<svg width="760" height="513" viewBox="0 0 760 513" fill="none" xmlns="http://www.w3.org/2000/svg">
<g clip-path="url(#clip0)">
<path d="M232.01 21.4C205.13 21.4 187.21 39.32 187.21 66.2C187.21 93.08 205.13 111 232.01 111C258.89 111 276.81 93.08 276.81 66.2C276.81 39.32 258.89 21.4 232.01 21.4ZM232.01 93.08C214.09 93.08 205.13 82.84 205.13 66.2C205.13 49.56 214.09 39.32 232.01 39.32C249.93 39.32 258.89 49.56 258.89 66.2C258.89 82.84 249.93 93.08 232.01 93.08ZM387.515 21.4L361.915 56.472H325.691L351.291 21.4H329.531L263.995 111H285.755L312.763 74.008H348.987L321.979 111H343.739L409.275 21.4H387.515ZM418.004 21.4L384.724 66.2H401.364L368.34 111H390.1L423.124 66.2H406.484L435.54 27.16V111H453.46V21.4H418.004ZM505.754 21.4L472.474 66.2H487.834L454.81 111H476.57L496.538 83.992H523.29V111H541.21V21.4H505.754ZM523.29 27.16V66.072H494.362L523.29 27.16ZM602.886 21.4C616.326 21.4 627.846 12.44 627.846 -0.360008H613.51C613.51 4.75999 608.902 8.6 602.886 8.6C596.87 8.6 592.262 4.75999 592.262 -0.360008H577.926C577.926 12.44 589.446 21.4 602.886 21.4ZM627.462 21.4L568.07 102.296V21.4H550.15V111H583.43L642.31 30.872V111H660.23V21.4H627.462ZM731.965 21.4V55.704H687.165V21.4H669.245V111H687.165V73.624H731.965V111H749.885V21.4H731.965Z" fill="white"/>
<path d="M125.36 121.4H80.56V139.32H94.128V211H112.048V139.32H125.36V121.4ZM207.235 121.4L178.563 160.568L149.635 121.4H127.875L160.899 166.2H174.467L141.699 211H163.459L228.995 121.4H207.235ZM272.452 145.08C272.452 131.64 263.492 121.528 250.82 121.4H231.62V211H249.54V168.76H250.82C263.492 168.632 272.452 158.52 272.452 145.08ZM250.692 153.4H249.54V136.76H250.692C254.532 136.76 257.092 140.6 257.092 145.08C257.092 149.56 254.532 153.4 250.692 153.4ZM342.84 121.4V155.704H298.04V121.4H280.12V211H298.04V173.624H342.84V211H360.76V121.4H342.84ZM448.307 121.4L388.915 202.296V121.4H370.995V211H404.275L463.155 130.872V211H481.075V121.4H448.307ZM532.202 145.08C532.202 131.64 523.242 121.528 510.57 121.4H491.37V211H509.29V168.76H510.57C523.242 168.632 532.202 158.52 532.202 145.08ZM510.442 153.4H509.29V136.76H510.442C514.282 136.76 516.842 140.6 516.842 145.08C516.842 149.56 514.282 153.4 510.442 153.4Z" fill="white"/>
<path d="M129.659 221.656L112.635 244.568V221.656H77.179L43.899 266.456H59.899L26.875 311.256H48.635L81.659 266.456H65.659L94.715 227.416V266.456H112.763L79.739 311.256H101.499L134.523 266.456H118.139L147.195 227.416V311.256H165.115V221.656H129.659ZM220.17 239.32V221.4H175.37V311H220.17V293.08H193.29V273.88H211.466V255.576H193.29V239.32H220.17ZM270.11 221.4H225.31V239.32H238.878V311H256.798V239.32H270.11V221.4ZM324.292 221.4L258.5 311H280.26L296.26 289.24H339.14V311H357.06V221.4H324.292ZM309.444 271.32L339.14 230.872V271.32H309.444ZM467.529 221.272H399.817L386.889 238.808H412.489L359.625 311H381.385L434.249 238.808H454.601L467.529 221.272ZM518.547 238.68L531.475 221.144H475.795L475.667 221.4H475.411L449.043 257.368L436.115 274.904H436.243L409.875 311H465.683L478.611 293.464H444.435L458.003 274.904H491.795L504.723 257.368H470.803L484.499 238.68H518.547ZM541.539 221.4L508.259 266.2H524.899L491.875 311H513.635L546.659 266.2H530.019L559.075 227.16V311H576.995V221.4H541.539ZM632.045 239.32V221.4H587.245V311H632.045V293.08H605.165V273.88H623.341V255.576H605.165V239.32H632.045ZM692.481 221.4C705.921 221.4 717.441 212.44 717.441 199.64H703.105C703.105 204.76 698.497 208.6 692.481 208.6C686.465 208.6 681.857 204.76 681.857 199.64H667.521C667.521 212.44 679.041 221.4 692.481 221.4ZM717.057 221.4L657.665 302.296V221.4H639.745V311L673.025 311L731.905 230.872V311H749.825V221.4H717.057Z" fill="white"/>
<path d="M113.904 321.272H46.192L33.264 338.808H58.864L6 411H27.76L80.624 338.808H100.976L113.904 321.272ZM144.61 321.4C117.73 321.4 99.81 339.32 99.81 366.2C99.81 393.08 117.73 411 144.61 411C171.49 411 189.41 393.08 189.41 366.2C189.41 339.32 171.49 321.4 144.61 321.4ZM144.61 393.08C126.69 393.08 117.73 382.84 117.73 366.2C117.73 349.56 126.69 339.32 144.61 339.32C162.53 339.32 171.49 349.56 171.49 366.2C171.49 382.84 162.53 393.08 144.61 393.08ZM277.76 321.4H197.12V411H215.04V339.32H259.84V411H277.76V321.4ZM330.235 321.4C303.355 321.4 285.435 339.32 285.435 366.2C285.435 393.08 303.355 411 330.235 411C357.115 411 375.035 393.08 375.035 366.2C375.035 339.32 357.115 321.4 330.235 321.4ZM330.235 393.08C312.315 393.08 303.355 382.84 303.355 366.2C303.355 349.56 312.315 339.32 330.235 339.32C348.155 339.32 357.115 349.56 357.115 366.2C357.115 382.84 348.155 393.08 330.235 393.08ZM423.577 345.08C423.577 331.64 414.617 321.528 401.945 321.4H382.745V411H400.665V368.76H401.945C414.617 368.632 423.577 358.52 423.577 345.08ZM401.817 353.4H400.665V336.76H401.817C405.657 336.76 408.217 340.6 408.217 345.08C408.217 349.56 405.657 353.4 401.817 353.4ZM473.485 321.4C446.605 321.4 428.685 339.32 428.685 366.2C428.685 393.08 446.605 411 473.485 411C500.365 411 518.285 393.08 518.285 366.2C518.285 339.32 500.365 321.4 473.485 321.4ZM473.485 393.08C455.565 393.08 446.605 382.84 446.605 366.2C446.605 349.56 455.565 339.32 473.485 339.32C491.405 339.32 500.365 349.56 500.365 366.2C500.365 382.84 491.405 393.08 473.485 393.08ZM564.011 366.2H555.435C562.475 362.36 566.827 354.552 566.827 345.08C566.827 331.64 557.867 321.528 545.195 321.4H525.995V411H597.035L564.011 366.2ZM545.067 336.76C548.907 336.76 551.467 340.6 551.467 345.08C551.467 349.56 548.907 353.4 545.067 353.4H543.915V336.76H545.067ZM543.915 395.64V368.76H544.171L564.011 395.64H543.915Z" fill="white"/>
<path d="M164.737 421.4L105.345 502.296V421.4H87.425V511H120.705L179.585 430.872V511H197.505V421.4H164.737ZM355.64 421.4L330.04 456.472H293.816L319.416 421.4H297.656L232.12 511H253.88L280.888 474.008H317.112L290.104 511H311.864L377.4 421.4H355.64ZM408.075 421.4C381.195 421.4 363.275 439.32 363.275 466.2C363.275 493.08 381.195 511 408.075 511C434.955 511 452.875 493.08 452.875 466.2C452.875 439.32 434.955 421.4 408.075 421.4ZM408.075 493.08C390.155 493.08 381.195 482.84 381.195 466.2C381.195 449.56 390.155 439.32 408.075 439.32C425.995 439.32 434.955 449.56 434.955 466.2C434.955 482.84 425.995 493.08 408.075 493.08ZM555.3 466.2H544.292L577.316 421.4H555.556L525.86 461.72V421.4H507.94V461.72L478.244 421.4H456.484L489.508 466.2H478.5C478.5 483.48 468.9 493.08 451.62 493.08V511C478.5 511 496.42 493.08 496.42 466.2H507.94V511H525.86V466.2H537.38C537.38 493.08 555.3 511 582.18 511V493.08C564.9 493.08 555.3 483.48 555.3 466.2ZM633.325 439.32V421.4H588.525V511H633.325V493.08H606.445V473.88H624.621V455.576H606.445V439.32H633.325ZM692.481 421.4C705.921 421.4 717.441 412.44 717.441 399.64H703.105C703.105 404.76 698.497 408.6 692.481 408.6C686.465 408.6 681.857 404.76 681.857 399.64H667.521C667.521 412.44 679.041 421.4 692.481 421.4ZM717.057 421.4L657.665 502.296V421.4H639.745V511L673.025 511L731.905 430.872V511H749.825V421.4H717.057Z" fill="white"/>
</g>
<defs>
<clipPath id="clip0">
<rect width="760" height="513" fill="white"/>
</clipPath>
</defs>
</svg>
