<svg width="394" height="305" viewBox="0 0 394 305" fill="none" xmlns="http://www.w3.org/2000/svg">
<g clip-path="url(#clip0)">
<path d="M114.128 12.3496C99.5327 12.3496 89.8026 22.0797 89.8026 36.6748C89.8026 51.2699 99.5327 61 114.128 61C128.723 61 138.453 51.2699 138.453 36.6748C138.453 22.0797 128.723 12.3496 114.128 12.3496ZM114.128 51.2699C104.398 51.2699 99.5327 45.7099 99.5327 36.6748C99.5327 27.6398 104.398 22.0797 114.128 22.0797C123.858 22.0797 128.723 27.6398 128.723 36.6748C128.723 45.7099 123.858 51.2699 114.128 51.2699ZM198.563 12.3496L184.663 31.3928H164.994L178.894 12.3496H167.079L131.495 61H143.31L157.974 40.9144H177.643L162.979 61H174.794L210.378 12.3496H198.563ZM215.117 12.3496L197.047 36.6748H206.082L188.151 61H199.966L217.897 36.6748H208.862L224.639 15.4772V61H234.369V12.3496H215.117ZM262.763 12.3496L244.693 36.6748H253.033L235.102 61H246.917L257.759 46.3354H272.285V61H282.015V12.3496H262.763ZM272.285 15.4772V36.6053H256.578L272.285 15.4772ZM315.503 12.3496C322.801 12.3496 329.056 7.48461 329.056 0.534557H321.272C321.272 3.31458 318.77 5.3996 315.503 5.3996C312.237 5.3996 309.735 3.31458 309.735 0.534557H301.951C301.951 7.48461 308.206 12.3496 315.503 12.3496ZM328.847 12.3496L296.599 56.274V12.3496H286.869V61H304.939L336.909 17.4927V61H346.64V12.3496H328.847ZM385.59 12.3496V30.9758H361.265V12.3496H351.534V61H361.265V40.7059H385.59V61H395.32V12.3496H385.59Z" fill="white"/>
<path d="M124.45 73.0966H87.684L80.6644 82.6181H94.5645L65.8608 121.816H77.6759L106.38 82.6181H117.43L124.45 73.0966ZM166.829 73.1661L151.261 94.4332L135.554 73.1661H123.739L141.67 97.4912H149.037L131.245 121.816H143.06L178.644 73.1661H166.829ZM201.545 86.0236C201.545 78.7261 196.68 73.2356 189.8 73.1661H179.375V121.816H189.105V98.8812H189.8C196.68 98.8117 201.545 93.3212 201.545 86.0236ZM189.73 90.5412H189.105V81.5061H189.73C191.815 81.5061 193.205 83.5911 193.205 86.0236C193.205 88.4562 191.815 90.5412 189.73 90.5412ZM239.069 73.1661V91.7922H214.744V73.1661H205.014V121.816H214.744V101.522H239.069V121.816H248.799V73.1661H239.069ZM295.64 73.1661L263.392 117.09V73.1661H253.661V121.816H271.732L303.702 78.3091V121.816H313.432V73.1661H295.64ZM340.497 86.0236C340.497 78.7261 335.632 73.2356 328.752 73.1661H318.327V121.816H328.057V98.8812H328.752C335.632 98.8117 340.497 93.3212 340.497 86.0236ZM328.682 90.5412H328.057V81.5061H328.682C330.767 81.5061 332.157 83.5911 332.157 86.0236C332.157 88.4562 330.767 90.5412 328.682 90.5412Z" fill="white"/>
<path d="M56.052 134.114L46.8084 146.554V134.114H27.5568L9.48667 158.439H18.1742L0.243103 182.764H12.0582L29.9893 158.439H21.3018L37.0784 137.241V158.439H46.8779L28.9468 182.764H40.7619L58.693 158.439H49.797L65.5736 137.241V182.764H75.3036V134.114H56.052ZM105.475 143.705V133.975H81.1498V182.625H105.475V172.895H90.8799V162.47H100.749V152.531H90.8799V143.705H105.475ZM132.869 133.975H108.544V143.705H115.911V182.625L125.641 182.625V143.705H132.869V133.975ZM162.566 133.975L126.843 182.625H138.658L147.346 170.81H170.628V182.625H180.359V133.975H162.566ZM154.504 161.08L170.628 139.118V161.08H154.504ZM240.618 133.905H203.852L196.833 143.427H210.733L182.029 182.625H193.844L222.548 143.427H233.599L240.618 133.905ZM268.598 143.357L275.617 133.836H245.384L245.315 133.975H245.176L230.859 153.504L223.839 163.026H223.909L209.592 182.625H239.894L246.913 173.103H228.357L235.724 163.026H254.072L261.092 153.504H242.674L250.11 143.357H268.598ZM281.36 133.975L263.289 158.3H272.325L254.393 182.625H266.209L284.14 158.3H275.105L290.881 137.102V182.625H300.611V133.975L281.36 133.975ZM330.78 143.705V133.975H306.455V182.625H330.78V172.895H316.185V162.47H326.054V152.531H316.185V143.705H330.78ZM363.873 133.975C371.171 133.975 377.426 129.11 377.426 122.16H369.642C369.642 124.94 367.14 127.025 363.873 127.025C360.606 127.025 358.104 124.94 358.104 122.16H350.32C350.32 129.11 356.575 133.975 363.873 133.975ZM377.217 133.975L344.969 177.899V133.975H335.239V182.625H353.309L385.279 139.118V182.625H395.009V133.975H377.217Z" fill="white"/>
<path d="M70.7926 194.722L34.0268 194.722L27.0073 204.243H40.9074L12.2037 243.441H24.0187L52.7225 204.243H63.773L70.7926 194.722ZM87.4651 194.791C72.87 194.791 63.1399 204.521 63.1399 219.116C63.1399 233.711 72.87 243.441 87.4651 243.441C102.06 243.441 111.79 233.711 111.79 219.116C111.79 204.521 102.06 194.791 87.4651 194.791ZM87.4651 233.711C77.735 233.711 72.87 228.151 72.87 219.116C72.87 210.081 77.735 204.521 87.4651 204.521C97.1952 204.521 102.06 210.081 102.06 219.116C102.06 228.151 97.1952 233.711 87.4651 233.711ZM183.368 194.791H141.111L105.527 243.441H117.342L145.976 204.313H164.603L135.968 243.441H147.783L183.368 194.791ZM200.743 194.791C186.148 194.791 176.418 204.521 176.418 219.116C176.418 233.711 186.148 243.441 200.743 243.441C215.338 243.441 225.068 233.711 225.068 219.116C225.068 204.521 215.338 194.791 200.743 194.791ZM200.743 233.711C191.013 233.711 186.148 228.151 186.148 219.116C186.148 210.081 191.013 204.521 200.743 204.521C210.473 204.521 215.338 210.081 215.338 219.116C215.338 228.151 210.473 233.711 200.743 233.711ZM251.425 207.649C251.425 200.351 246.56 194.861 239.679 194.791H229.254V243.441H238.984V220.506H239.679C246.56 220.437 251.425 214.946 251.425 207.649ZM239.61 212.166H238.984V203.131H239.61C241.695 203.131 243.085 205.216 243.085 207.649C243.085 210.081 241.695 212.166 239.61 212.166ZM278.524 194.791C263.928 194.791 254.198 204.521 254.198 219.116C254.198 233.711 263.928 243.441 278.524 243.441C293.119 243.441 302.849 233.711 302.849 219.116C302.849 204.521 293.119 194.791 278.524 194.791ZM278.524 233.711C268.794 233.711 263.928 228.151 263.928 219.116C263.928 210.081 268.794 204.521 278.524 204.521C288.254 204.521 293.119 210.081 293.119 219.116C293.119 228.151 288.254 233.711 278.524 233.711ZM327.677 219.116H323.02C326.843 217.031 329.206 212.792 329.206 207.649C329.206 200.351 324.341 194.861 317.46 194.791H307.035V243.441H345.608L327.677 219.116ZM317.391 203.131C319.476 203.131 320.866 205.216 320.866 207.649C320.866 210.081 319.476 212.166 317.391 212.166H316.765V203.131H317.391ZM316.765 235.101V220.506H316.904L327.677 235.101H316.765Z" fill="white"/>
<path d="M73.4304 255.6L41.1821 299.524V255.6H31.4521V304.25H49.5222L81.4924 260.743V304.25H91.2225V255.6L73.4304 255.6ZM178.476 255.6L164.575 274.643H144.907L158.807 255.6H146.992L111.408 304.25H123.223L137.887 284.164H157.556L142.891 304.25H154.706L190.291 255.6H178.476ZM207.641 255.6C193.046 255.6 183.316 265.33 183.316 279.925C183.316 294.52 193.046 304.25 207.641 304.25C222.236 304.25 231.966 294.52 231.966 279.925C231.966 265.33 222.236 255.6 207.641 255.6ZM207.641 294.52C197.911 294.52 193.046 288.96 193.046 279.925C193.046 270.89 197.911 265.33 207.641 265.33C217.371 265.33 222.236 270.89 222.236 279.925C222.236 288.96 217.371 294.52 207.641 294.52ZM288.275 279.925H282.298L300.23 255.6L288.414 255.6L272.29 277.492V255.6H262.56V277.492L246.436 255.6H234.621L252.552 279.925H246.575C246.575 289.307 241.363 294.52 231.98 294.52V304.25C246.575 304.25 256.305 294.52 256.305 279.925H262.56V304.25H272.29V279.925H278.545C278.545 294.52 288.275 304.25 302.871 304.25V294.52C293.488 294.52 288.275 289.307 288.275 279.925ZM331.336 265.33V255.6H307.011V304.25H331.336V294.52H316.741V284.095H326.61V274.156H316.741V265.33H331.336ZM364.151 255.6C371.449 255.6 377.704 250.735 377.704 243.785H369.92C369.92 246.565 367.418 248.65 364.151 248.65C360.884 248.65 358.382 246.565 358.382 243.785H350.598C350.598 250.735 356.853 255.6 364.151 255.6ZM377.495 255.6L345.247 299.524V255.6H335.517V304.25H353.587L385.557 260.743V304.25H395.287V255.6H377.495Z" fill="white"/>
</g>
<defs>
<clipPath id="clip0">
<rect width="394" height="305" fill="white"/>
</clipPath>
</defs>
</svg>
