<svg width="510" height="61" viewBox="0 0 510 61" fill="none" xmlns="http://www.w3.org/2000/svg">
<path d="M45.41 14.695C44.475 6.28 38.61 0.414997 30.195 0.414997H0.7V12.315H30.195V10.615C32.66 10.615 35.125 12.23 35.21 14.695H33.51V24.64H17.785V24.555L1.55 36.455V59.915H45.41V48.1H5.375L21.015 36.54H45.41V14.695ZM91.3445 14.78C90.8345 6.79 85.0545 1.35 76.8945 0.499996V0.584995H62.4445V0.499996C54.2845 1.35 48.5045 6.79 47.9945 14.78V45.805C48.5045 53.71 54.2845 59.15 62.4445 60H77.0645C85.1395 59.15 90.8345 53.625 91.3445 45.805V14.78ZM77.0645 49.8V48.1H62.4445V49.8C60.2345 49.8 58.7045 47.93 58.2795 45.805H59.8945V14.78H58.2795C58.7045 12.57 60.2345 10.7 62.4445 10.7V12.485H77.0645V10.7C79.1895 10.785 80.7195 12.655 81.0595 14.78H79.4445V45.805H81.0595C80.6345 47.845 79.1895 49.715 77.0645 49.8ZM102.718 46.91C98.7229 46.91 95.5779 49.97 95.5779 53.795C95.5779 57.875 98.7229 60.85 102.718 60.85C106.543 60.85 109.688 57.875 109.688 53.795C109.688 49.97 106.543 46.91 102.718 46.91ZM157.296 14.78C156.786 6.79 151.006 1.35 142.846 0.499996V0.584995H128.396V0.499996C120.236 1.35 114.456 6.79 113.946 14.78V45.805C114.456 53.71 120.236 59.15 128.396 60H143.016C151.091 59.15 156.786 53.625 157.296 45.805V14.78ZM143.016 49.8V48.1H128.396V49.8C126.186 49.8 124.656 47.93 124.231 45.805H125.846V14.78H124.231C124.656 12.57 126.186 10.7 128.396 10.7V12.485H143.016V10.7C145.141 10.785 146.671 12.655 147.011 14.78H145.396V45.805H147.011C146.586 47.845 145.141 49.715 143.016 49.8ZM204.624 12.23V0.414997H161.614V23.875L177.849 35.775V35.69H192.724V45.635H194.424C194.339 48.1 191.789 49.715 189.324 49.715V48.015H161.529V59.915H189.324C197.739 59.915 203.689 54.05 204.624 45.635V23.79H181.079L165.439 12.23H204.624ZM340.614 14.78C340.104 6.79 334.324 1.35 326.164 0.499996V0.584995H311.714V0.499996C303.554 1.35 297.774 6.79 297.264 14.78V45.805C297.774 53.71 303.554 59.15 311.714 60H326.334C334.409 59.15 340.104 53.625 340.614 45.805V14.78ZM326.334 49.8V48.1H311.714V49.8C309.504 49.8 307.974 47.93 307.549 45.805H309.164V14.78H307.549C307.974 12.57 309.504 10.7 311.714 10.7V12.485H326.334V10.7C328.459 10.785 329.989 12.655 330.329 14.78H328.714V45.805H330.329C329.904 47.845 328.459 49.715 326.334 49.8ZM389.557 14.695C388.622 6.28 382.757 0.414997 374.342 0.414997H344.847V12.315H374.342V10.615C376.807 10.615 379.272 12.23 379.357 14.695H377.657V24.64H361.932V24.555L345.697 36.455V59.915H389.557V48.1H349.522L365.162 36.54H389.557V14.695ZM402.682 46.91C398.687 46.91 395.542 49.97 395.542 53.795C395.542 57.875 398.687 60.85 402.682 60.85C406.507 60.85 409.652 57.875 409.652 53.795C409.652 49.97 406.507 46.91 402.682 46.91ZM458.96 14.78C458.45 6.79 452.67 1.35 444.51 0.499996V0.584995H430.06V0.499996C421.9 1.35 416.12 6.79 415.61 14.78V45.805C416.12 53.71 421.9 59.15 430.06 60H444.68C452.755 59.15 458.45 53.625 458.96 45.805V14.78ZM444.68 49.8V48.1H430.06V49.8C427.85 49.8 426.32 47.93 425.895 45.805H427.51V14.78H425.895C426.32 12.57 427.85 10.7 430.06 10.7V12.485H444.68V10.7C446.805 10.785 448.335 12.655 448.675 14.78H447.06V45.805H448.675C448.25 47.845 446.805 49.715 444.68 49.8ZM509.008 12.315V0.414997H478.408C469.993 0.414997 464.043 6.365 463.193 14.865V45.72C464.043 54.135 469.993 60.085 478.493 60.085L508.243 59.915V36.455L492.433 24.895L492.518 24.64H492.093L492.008 24.555V24.64H475.093V14.865H473.393C473.393 12.315 475.858 10.615 478.408 10.615V12.315H509.008ZM488.778 36.54L504.418 48.1L478.493 48.27V49.885C475.943 49.885 473.478 48.185 473.393 45.72H475.093V36.54H488.778Z" fill="white"/>
<rect x="218" y="24" width="67" height="12" fill="white"/>
</svg>
