<svg width="611" height="74" viewBox="0 0 611 74" fill="none" xmlns="http://www.w3.org/2000/svg">
<path d="M54.3426 18.0286C53.2236 7.95822 46.2049 0.939449 36.1345 0.939449H0.837161V15.1804H36.1345V13.146C39.0844 13.146 42.0343 15.0787 42.136 18.0286H40.1016V29.93H21.2831V29.8283L1.85437 44.0693V72.1444H54.3426V58.0051H6.43183L25.1486 44.171H54.3426V18.0286ZM109.313 18.1304C108.703 8.56855 101.786 2.05838 92.0208 1.04117V1.14289H74.7282V1.04117C64.9629 2.05838 58.0459 8.56855 57.4355 18.1304V55.2586C58.0459 64.7187 64.9629 71.2289 74.7282 72.2461H92.2242C101.888 71.2289 108.703 64.617 109.313 55.2586V18.1304ZM92.2242 60.0395V58.0051H74.7282V60.0395C72.0834 60.0395 70.2524 57.8017 69.7438 55.2586H71.6765V18.1304H69.7438C70.2524 15.4856 72.0834 13.2477 74.7282 13.2477V15.3839H92.2242V13.2477C94.7673 13.3494 96.5982 15.5873 97.0051 18.1304H95.0724V55.2586H97.0051C96.4965 57.6999 94.7673 59.9378 92.2242 60.0395ZM122.924 56.581C118.143 56.581 114.38 60.243 114.38 64.8204C114.38 69.7031 118.143 73.2633 122.924 73.2633C127.502 73.2633 131.265 69.7031 131.265 64.8204C131.265 60.243 127.502 56.581 122.924 56.581ZM188.239 18.1304C187.628 8.56855 180.711 2.05838 170.946 1.04117V1.14289H153.654V1.04117C143.888 2.05838 136.971 8.56855 136.361 18.1304V55.2586C136.971 64.7187 143.888 71.2289 153.654 72.2461H171.15C180.813 71.2289 187.628 64.617 188.239 55.2586V18.1304ZM171.15 60.0395V58.0051H153.654V60.0395C151.009 60.0395 149.178 57.8017 148.669 55.2586H150.602V18.1304H148.669C149.178 15.4856 151.009 13.2477 153.654 13.2477V15.3839H171.15V13.2477C173.693 13.3494 175.524 15.5873 175.931 18.1304H173.998V55.2586H175.931C175.422 57.6999 173.693 59.9378 171.15 60.0395ZM244.878 15.0787V0.939449H193.407V29.0145L212.836 43.2555V43.1538H230.637V55.0552H232.671C232.569 58.0051 229.518 59.9378 226.568 59.9378V57.9034H193.305V72.1444H226.568C236.638 72.1444 243.759 65.1256 244.878 55.0552V28.9128H216.701L197.984 15.0787H244.878ZM407.619 18.1304C407.009 8.56855 400.092 2.05838 390.326 1.04117V1.14289H373.034V1.04117C363.269 2.05838 356.352 8.56855 355.741 18.1304V55.2586C356.352 64.7187 363.269 71.2289 373.034 72.2461H390.53C400.193 71.2289 407.009 64.617 407.619 55.2586V18.1304ZM390.53 60.0395V58.0051H373.034V60.0395C370.389 60.0395 368.558 57.8017 368.05 55.2586H369.982V18.1304H368.05C368.558 15.4856 370.389 13.2477 373.034 13.2477V15.3839H390.53V13.2477C393.073 13.3494 394.904 15.5873 395.311 18.1304H393.378V55.2586H395.311C394.802 57.6999 393.073 59.9378 390.53 60.0395ZM466.191 18.0286C465.072 7.95822 458.053 0.939449 447.983 0.939449H412.685V15.1804H447.983V13.146C450.933 13.146 453.882 15.0787 453.984 18.0286H451.95V29.93H433.131V29.8283L413.703 44.0693V72.1444H466.191V58.0051H418.28L436.997 44.171H466.191V18.0286ZM481.897 56.581C477.116 56.581 473.353 60.243 473.353 64.8204C473.353 69.7031 477.116 73.2633 481.897 73.2633C486.475 73.2633 490.238 69.7031 490.238 64.8204C490.238 60.243 486.475 56.581 481.897 56.581ZM549.246 18.1304C548.636 8.56855 541.719 2.05838 531.954 1.04117V1.14289H514.661V1.04117C504.896 2.05838 497.979 8.56855 497.368 18.1304V55.2586C497.979 64.7187 504.896 71.2289 514.661 72.2461H532.157C541.821 71.2289 548.636 64.617 549.246 55.2586V18.1304ZM532.157 60.0395V58.0051H514.661V60.0395C512.016 60.0395 510.185 57.8017 509.677 55.2586H511.609V18.1304H509.677C510.185 15.4856 512.016 13.2477 514.661 13.2477V15.3839H532.157V13.2477C534.7 13.3494 536.531 15.5873 536.938 18.1304H535.005V55.2586H536.938C536.429 57.6999 534.7 59.9378 532.157 60.0395ZM609.14 15.1804V0.939449H572.52C562.45 0.939449 555.33 8.05994 554.312 18.2321V55.1569C555.33 65.2273 562.45 72.3478 572.622 72.3478L608.225 72.1444V44.0693L589.305 30.2352L589.406 29.93H588.898L588.796 29.8283V29.93H568.553V18.2321H566.519C566.519 15.1804 569.469 13.146 572.52 13.146V15.1804H609.14ZM584.93 44.171L603.647 58.0051L572.622 58.2086V60.1413C569.571 60.1413 566.621 58.1068 566.519 55.1569H568.553V44.171H584.93Z" fill="white"/>
<rect x="260.885" y="29.7207" width="80.1803" height="14.3607" fill="white"/>
</svg>
