<svg width="1202" height="243" viewBox="0 0 1202 243" fill="none" xmlns="http://www.w3.org/2000/svg">
<g clip-path="url(#clip0)">
<path d="M107.134 130.811C104.928 110.958 91.0914 97.121 71.2386 97.121H1.65326V125.196H71.2386V121.185C77.054 121.185 82.8695 124.995 83.0701 130.811H79.0594V154.273H41.9606V154.073L3.6586 182.147V237.495H107.134V209.621H12.6826L49.5809 182.348H107.134V130.811ZM215.504 131.011C214.301 112.161 200.664 99.3268 181.413 97.3215V97.522H147.322V97.3215C128.071 99.3268 114.435 112.161 113.232 131.011V204.206C114.435 222.856 128.071 235.69 147.322 237.695H181.814C200.865 235.69 214.301 222.655 215.504 204.206V131.011ZM181.814 213.631V209.621H147.322V213.631C142.109 213.631 138.499 209.219 137.496 204.206H141.306V131.011H137.496C138.499 125.797 142.109 121.386 147.322 121.386V125.597H181.814V121.386C186.828 121.586 190.437 125.998 191.239 131.011H187.429V204.206H191.239C190.237 209.019 186.828 213.431 181.814 213.631ZM242.336 206.813C232.911 206.813 225.491 214.032 225.491 223.056C225.491 232.682 232.911 239.701 242.336 239.701C251.36 239.701 258.78 232.682 258.78 223.056C258.78 214.032 251.36 206.813 242.336 206.813ZM371.098 131.011C369.895 112.161 356.258 99.3268 337.007 97.3215V97.522H302.916V97.3215C283.665 99.3268 270.029 112.161 268.826 131.011V204.206C270.029 222.856 283.665 235.69 302.916 237.695H337.408C356.459 235.69 369.895 222.655 371.098 204.206V131.011ZM337.408 213.631V209.621H302.916V213.631C297.703 213.631 294.093 209.219 293.09 204.206H296.9V131.011H293.09C294.093 125.797 297.703 121.386 302.916 121.386V125.597H337.408V121.386C342.422 121.586 346.031 125.998 346.833 131.011H343.023V204.206H346.833C345.831 209.019 342.422 213.431 337.408 213.631ZM482.756 124.995V97.121H381.286V152.468L419.588 180.543V180.343H454.681V203.805H458.692C458.492 209.621 452.476 213.431 446.66 213.431V209.42H381.086V237.495H446.66C466.513 237.495 480.55 223.658 482.756 203.805V152.268H427.208L390.31 124.995H482.756ZM803.586 131.011C802.382 112.161 788.746 99.3268 769.495 97.3215V97.522H735.404V97.3215C716.153 99.3268 702.516 112.161 701.313 131.011V204.206C702.516 222.856 716.153 235.69 735.404 237.695H769.896C788.947 235.69 802.382 222.655 803.586 204.206V131.011ZM769.896 213.631V209.621H735.404V213.631C730.19 213.631 726.581 209.219 725.578 204.206H729.388V131.011H725.578C726.581 125.797 730.19 121.386 735.404 121.386V125.597H769.896V121.386C774.909 121.586 778.519 125.998 779.321 131.011H775.511V204.206H779.321C778.318 209.019 774.909 213.431 769.896 213.631ZM919.054 130.811C916.848 110.958 903.011 97.121 883.158 97.121H813.573V125.196H883.158V121.185C888.974 121.185 894.789 124.995 894.99 130.811H890.979V154.273H853.88V154.073L815.578 182.147V237.495H919.054V209.621H824.602L861.501 182.348H919.054V130.811ZM950.018 206.813C940.593 206.813 933.173 214.032 933.173 223.056C933.173 232.682 940.593 239.701 950.018 239.701C959.042 239.701 966.461 232.682 966.461 223.056C966.461 214.032 959.042 206.813 950.018 206.813ZM1082.79 131.011C1081.59 112.161 1067.95 99.3268 1048.7 97.3215V97.522H1014.61V97.3215C995.357 99.3268 981.721 112.161 980.518 131.011V204.206C981.721 222.856 995.357 235.69 1014.61 237.695H1049.1C1068.15 235.69 1081.59 222.655 1082.79 204.206V131.011ZM1049.1 213.631V209.621H1014.61V213.631C1009.39 213.631 1005.78 209.219 1004.78 204.206H1008.59V131.011H1004.78C1005.78 125.797 1009.39 121.386 1014.61 121.386V125.597H1049.1V121.386C1054.11 121.586 1057.72 125.998 1058.53 131.011H1054.72V204.206H1058.53C1057.52 209.019 1054.11 213.431 1049.1 213.631ZM1200.87 125.196V97.121H1128.67C1108.82 97.121 1094.78 111.158 1092.78 131.212V204.006C1094.78 223.858 1108.82 237.896 1128.87 237.896L1199.06 237.495V182.147L1161.76 154.875L1161.96 154.273H1160.96L1160.76 154.073V154.273H1120.85V131.212H1116.84C1116.84 125.196 1122.66 121.185 1128.67 121.185V125.196H1200.87ZM1153.14 182.348L1190.04 209.621L1128.87 210.022V213.832C1122.86 213.832 1117.04 209.821 1116.84 204.006H1120.85V182.348H1153.14Z" fill="white"/>
<rect x="514.309" y="150.988" width="158.068" height="28.3107" fill="white"/>
<path d="M40.1086 30.3101C42.8925 31.301 45.0158 32.7873 46.4785 34.769C47.9412 36.7036 48.6726 39.0864 48.6726 41.9175C48.6726 46.3528 46.9032 49.8681 43.3643 52.4632C39.8727 55.0112 34.9183 56.2852 28.5012 56.2852H2.03073V6.74146H27.1565C33.2904 6.74146 38.0325 7.87389 41.3826 10.1387C44.7799 12.4036 46.4785 15.5886 46.4785 19.6936C46.4785 22.0528 45.9123 24.1289 44.7799 25.9219C43.6946 27.715 42.1375 29.1777 40.1086 30.3101ZM18.4509 25.7804H25.5286C28.2653 25.7804 29.6336 24.5772 29.6336 22.1708C29.6336 19.67 28.2653 18.4196 25.5286 18.4196H18.4509V25.7804ZM27.7227 44.607C30.4594 44.607 31.8277 43.2858 31.8277 40.6435C31.8277 38.0955 30.4594 36.8216 27.7227 36.8216H18.4509V44.607H27.7227ZM89.947 30.027H78.1273V56.2852H62.2025V30.027H50.3828V17.5703H89.947V30.027ZM112.417 56.9929C108.123 56.9929 104.254 56.1436 100.81 54.445C97.4123 52.6991 94.7464 50.3163 92.8118 47.2965C90.8772 44.2295 89.91 40.7615 89.91 36.8923C89.91 33.0232 90.8772 29.5787 92.8118 26.5589C94.7464 23.4919 97.4123 21.1091 100.81 19.4105C104.254 17.7119 108.123 16.8625 112.417 16.8625C116.758 16.8625 120.627 17.7119 124.024 19.4105C127.469 21.1091 130.135 23.4919 132.022 26.5589C133.957 29.5787 134.924 33.0232 134.924 36.8923C134.924 40.7615 133.957 44.2295 132.022 47.2965C130.135 50.3163 127.469 52.6991 124.024 54.445C120.627 56.1436 116.758 56.9929 112.417 56.9929ZM112.417 44.5362C114.257 44.5362 115.767 43.8756 116.947 42.5545C118.126 41.1861 118.716 39.2987 118.716 36.8923C118.716 34.4859 118.126 32.6221 116.947 31.301C115.767 29.9798 114.257 29.3192 112.417 29.3192C110.577 29.3192 109.067 29.9798 107.887 31.301C106.708 32.6221 106.118 34.4859 106.118 36.8923C106.118 39.2987 106.708 41.1861 107.887 42.5545C109.067 43.8756 110.577 44.5362 112.417 44.5362ZM164.999 16.8625C168.396 16.8625 171.51 17.6883 174.341 19.3397C177.219 20.944 179.484 23.2796 181.136 26.3466C182.834 29.4136 183.684 32.9524 183.684 36.9631C183.684 40.9738 182.834 44.5126 181.136 47.5796C179.484 50.5994 177.219 52.9351 174.341 54.5865C171.51 56.1908 168.396 56.9929 164.999 56.9929C160.705 56.9929 157.425 55.8841 155.161 53.6664V70.0158H139.165V17.5703H154.382V20.7552C156.694 18.1601 160.233 16.8625 164.999 16.8625ZM161.177 44.5362C163.017 44.5362 164.527 43.8756 165.706 42.5545C166.886 41.2333 167.476 39.3695 167.476 36.9631C167.476 34.5567 166.886 32.6929 165.706 31.3718C164.527 30.0034 163.017 29.3192 161.177 29.3192C159.336 29.3192 157.826 30.0034 156.647 31.3718C155.467 32.6929 154.877 34.5567 154.877 36.9631C154.877 39.3695 155.467 41.2333 156.647 42.5545C157.826 43.8756 159.336 44.5362 161.177 44.5362ZM208.112 56.9929C203.818 56.9929 199.949 56.1436 196.505 54.445C193.107 52.6991 190.441 50.3163 188.507 47.2965C186.572 44.2295 185.605 40.7615 185.605 36.8923C185.605 33.0232 186.572 29.5787 188.507 26.5589C190.441 23.4919 193.107 21.1091 196.505 19.4105C199.949 17.7119 203.818 16.8625 208.112 16.8625C212.453 16.8625 216.322 17.7119 219.719 19.4105C223.164 21.1091 225.83 23.4919 227.717 26.5589C229.652 29.5787 230.619 33.0232 230.619 36.8923C230.619 40.7615 229.652 44.2295 227.717 47.2965C225.83 50.3163 223.164 52.6991 219.719 54.445C216.322 56.1436 212.453 56.9929 208.112 56.9929ZM208.112 44.5362C209.952 44.5362 211.462 43.8756 212.642 42.5545C213.821 41.1861 214.411 39.2987 214.411 36.8923C214.411 34.4859 213.821 32.6221 212.642 31.301C211.462 29.9798 209.952 29.3192 208.112 29.3192C206.272 29.3192 204.762 29.9798 203.582 31.301C202.403 32.6221 201.813 34.4859 201.813 36.8923C201.813 39.2987 202.403 41.1861 203.582 42.5545C204.762 43.8756 206.272 44.5362 208.112 44.5362ZM234.86 17.5703H250.785V35.0521L264.162 17.5703H278.883V56.2852H262.958V38.7325L249.652 56.2852H234.86V17.5703ZM255.81 14.3853C250.903 14.3853 247.317 13.3945 245.052 11.4127C242.787 9.38379 241.655 6.24602 241.655 1.99942H251.917C251.917 3.55651 252.177 4.73612 252.696 5.53826C253.262 6.29321 254.277 6.67069 255.739 6.67069C258.382 6.67069 259.703 5.1136 259.703 1.99942H270.107C270.107 6.24602 268.951 9.38379 266.639 11.4127C264.374 13.3945 260.764 14.3853 255.81 14.3853ZM321.657 16.5794C326.045 16.5794 329.961 17.4523 333.406 19.1982C336.85 20.8968 339.516 23.3032 341.403 26.4174C343.338 29.4844 344.305 32.976 344.305 36.8923C344.305 40.8558 343.338 44.3947 341.403 47.5088C339.516 50.5758 336.85 52.9822 333.406 54.7281C329.961 56.4267 326.045 57.276 321.657 57.276C317.552 57.276 313.895 56.5919 310.686 55.2235C307.478 53.808 304.812 51.8026 302.689 49.2075L311.819 40.9974C314.461 44.0172 317.504 45.5271 320.949 45.5271C324.299 45.5271 326.753 44.3711 328.31 42.059H316.065V31.6549H328.239C327.531 30.5696 326.54 29.7439 325.266 29.1777C324.039 28.5643 322.6 28.2576 320.949 28.2576C317.504 28.2576 314.461 29.7675 311.819 32.7873L302.689 24.648C304.812 22.0528 307.478 20.0711 310.686 18.7027C313.895 17.2872 317.552 16.5794 321.657 16.5794ZM384.635 30.027H372.815V56.2852H356.891V30.027H345.071V17.5703H384.635V30.027ZM405.727 16.8625C412.522 16.8625 417.712 18.396 421.298 21.463C424.884 24.4828 426.677 29.1541 426.677 35.4768V56.2852H411.814V51.1892C409.974 55.0584 406.317 56.9929 400.844 56.9929C397.777 56.9929 395.158 56.4739 392.987 55.4358C390.864 54.3506 389.236 52.9115 388.104 51.1185C387.019 49.2783 386.476 47.2257 386.476 44.9609C386.476 41.1389 387.939 38.2371 390.864 36.2553C393.79 34.2736 398.225 33.2827 404.17 33.2827H410.611C410.092 30.2629 407.662 28.753 403.321 28.753C401.575 28.753 399.806 29.0361 398.013 29.6023C396.22 30.1214 394.686 30.8527 393.412 31.7964L388.316 21.2507C390.534 19.8823 393.2 18.8207 396.314 18.0657C399.475 17.2636 402.613 16.8625 405.727 16.8625ZM405.656 47.3673C406.789 47.3673 407.803 47.0606 408.7 46.4472C409.596 45.8338 410.257 44.9137 410.682 43.6869V40.9974H406.718C403.462 40.9974 401.834 42.0826 401.834 44.2531C401.834 45.1496 402.165 45.9046 402.825 46.518C403.533 47.0842 404.477 47.3673 405.656 47.3673ZM474.741 17.5703V56.2852H458.816V30.027H449.12V56.2852H433.195V17.5703H474.741Z" fill="white"/>
</g>
<defs>
<clipPath id="clip0">
<rect width="1201.28" height="243" fill="white"/>
</clipPath>
</defs>
</svg>
