<svg width="238" height="253" viewBox="0 0 238 253" fill="none" xmlns="http://www.w3.org/2000/svg">
<path d="M181.94 199.864C181.352 190.652 174.688 184.38 165.28 183.4V183.498H148.62V183.4C139.212 184.38 132.548 190.652 131.96 199.864V235.634C132.548 244.748 139.212 251.02 148.62 252H165.476C174.786 251.02 181.352 244.65 181.94 235.634V199.864ZM165.476 240.24V238.28H148.62V240.24C146.072 240.24 144.308 238.084 143.818 235.634H145.68V199.864H143.818C144.308 197.316 146.072 195.16 148.62 195.16V197.218H165.476V195.16C167.926 195.258 169.69 197.414 170.082 199.864H168.22V235.634H170.082C169.592 237.986 167.926 240.142 165.476 240.24ZM237.683 197.022V183.302H202.403C192.701 183.302 185.841 190.162 184.861 199.962V235.536C185.841 245.238 192.701 252.098 202.501 252.098L236.801 251.902V224.854L218.573 211.526L218.671 211.232H218.181L218.083 211.134V211.232H198.581V199.962H196.621C196.621 197.022 199.463 195.062 202.403 195.062V197.022H237.683ZM214.359 224.952L232.391 238.28L202.501 238.476V240.338C199.561 240.338 196.719 238.378 196.621 235.536H198.581V224.952H214.359Z" fill="white"/>
<path d="M51.94 199.864C51.352 190.652 44.688 184.38 35.28 183.4V183.498H18.62V183.4C9.212 184.38 2.548 190.652 1.96 199.864V235.634C2.548 244.748 9.212 251.02 18.62 252H35.476C44.786 251.02 51.352 244.65 51.94 235.634V199.864ZM35.476 240.24V238.28H18.62V240.24C16.072 240.24 14.308 238.084 13.818 235.634H15.68V199.864H13.818C14.308 197.316 16.072 195.16 18.62 195.16V197.218H35.476V195.16C37.926 195.258 39.69 197.414 40.082 199.864H38.22V235.634H40.082C39.592 237.986 37.926 240.142 35.476 240.24ZM106.409 199.766C105.331 190.064 98.5689 183.302 88.8669 183.302H54.8609V197.022H88.8669V195.062C91.7089 195.062 94.5509 196.924 94.6489 199.766H92.6889V211.232H74.5589V211.134L55.8409 224.854V251.902H106.409V238.28H60.2509L78.2829 224.952H106.409V199.766Z" fill="white"/>
<path d="M120.263 184C115.64 184 112 187.541 112 191.968C112 196.69 115.64 200.133 120.263 200.133C124.69 200.133 128.329 196.69 128.329 191.968C128.329 187.541 124.69 184 120.263 184Z" fill="white"/>
<path d="M120.263 184C115.64 184 112 187.541 112 191.968C112 196.69 115.64 200.133 120.263 200.133C124.69 200.133 128.329 196.69 128.329 191.968C128.329 187.541 124.69 184 120.263 184Z" fill="white"/>
<path d="M120.263 162C115.64 162 112 165.541 112 169.968C112 174.69 115.64 178.133 120.263 178.133C124.69 178.133 128.329 174.69 128.329 169.968C128.329 165.541 124.69 162 120.263 162Z" fill="white"/>
<path d="M120.263 139C115.64 139 112 142.541 112 146.968C112 151.69 115.64 155.133 120.263 155.133C124.69 155.133 128.329 151.69 128.329 146.968C128.329 142.541 124.69 139 120.263 139Z" fill="white"/>
<path d="M53.508 80.766C52.43 71.064 45.668 64.302 35.966 64.302H1.96V78.022H35.966V76.062C38.808 76.062 41.65 77.924 41.748 80.766H39.788V92.232H21.658V92.134L2.94 105.854V132.902H53.508V119.28H7.35L25.382 105.952H53.508V80.766ZM106.468 80.864C105.88 71.652 99.2158 65.38 89.8078 64.4V64.498H73.1478V64.4C63.7398 65.38 57.0758 71.652 56.4878 80.864V116.634C57.0758 125.748 63.7398 132.02 73.1478 133H90.0038C99.3138 132.02 105.88 125.65 106.468 116.634V80.864ZM90.0038 121.24V119.28H73.1478V121.24C70.5998 121.24 68.8358 119.084 68.3458 116.634H70.2078V80.864H68.3458C68.8358 78.316 70.5998 76.16 73.1478 76.16V78.218H90.0038V76.16C92.4538 76.258 94.2178 78.414 94.6098 80.864H92.7478V116.634H94.6098C94.1198 118.986 92.4538 121.142 90.0038 121.24ZM119.581 117.908C114.975 117.908 111.349 121.436 111.349 125.846C111.349 130.55 114.975 133.98 119.581 133.98C123.991 133.98 127.617 130.55 127.617 125.846C127.617 121.436 123.991 117.908 119.581 117.908ZM182.506 80.864C181.918 71.652 175.254 65.38 165.846 64.4V64.498H149.186V64.4C139.778 65.38 133.114 71.652 132.526 80.864V116.634C133.114 125.748 139.778 132.02 149.186 133H166.042C175.352 132.02 181.918 125.65 182.506 116.634V80.864ZM166.042 121.24V119.28H149.186V121.24C146.638 121.24 144.874 119.084 144.384 116.634H146.246V80.864H144.384C144.874 78.316 146.638 76.16 149.186 76.16V78.218H166.042V76.16C168.492 76.258 170.256 78.414 170.648 80.864H168.786V116.634H170.648C170.158 118.986 168.492 121.142 166.042 121.24ZM237.073 77.924V64.302H187.485V91.35L206.203 105.07V104.972H223.353V116.438H225.313C225.215 119.28 222.275 121.142 219.433 121.142V119.182H187.387V132.902H219.433C229.135 132.902 235.995 126.14 237.073 116.438V91.252H209.927L191.895 77.924H237.073Z" fill="white"/>
<path d="M1.92 25H10.24C16.128 25 20.832 24.136 20.832 19.016C20.832 14.216 17.184 13.896 13.76 13.768V12.488C16.16 12.296 19.168 12.2 19.168 7.976C19.168 3.528 16.128 2.44 9.856 2.44H1.92V25ZM7.04 11.016V6.92H10.496C12.576 6.92 14.048 6.92 14.048 8.968C14.048 11.016 12.576 11.016 10.496 11.016H7.04ZM7.04 20.52V15.496H10.88C13.92 15.496 15.712 15.496 15.712 18.024C15.712 20.52 13.92 20.52 10.88 20.52H7.04ZM38.4513 8.84H21.1713V13.32H27.2513V25H32.3713V13.32H38.4513V8.84ZM38.4525 16.904C38.4525 22.568 42.4845 25.32 47.5725 25.32C52.6285 25.32 56.6605 22.568 56.6605 16.904C56.6605 11.272 52.6285 8.52 47.5725 8.52C42.4845 8.52 38.4525 11.272 38.4525 16.904ZM43.5725 16.904C43.5725 14.216 45.1405 13 47.5725 13C49.9725 13 51.5405 14.216 51.5405 16.904C51.5405 19.624 49.9725 20.84 47.5725 20.84C45.1405 20.84 43.5725 19.624 43.5725 16.904ZM58.585 8.84V31.08H63.705V24.008L62.745 21.128H64.025C64.857 23.272 66.393 25.32 70.393 25.32C75.065 25.32 77.401 21.512 77.401 16.936C77.401 12.36 75.065 8.52 70.393 8.52C66.393 8.52 64.857 10.568 64.025 12.712H62.745L63.705 9.832V8.84H58.585ZM63.705 16.936C63.705 14.184 65.241 13 67.993 13C70.745 13 72.281 14.184 72.281 16.936C72.281 19.688 70.745 20.84 67.993 20.84C65.241 20.84 63.705 19.688 63.705 16.936ZM79.6563 16.904C79.6563 22.568 83.6883 25.32 88.7763 25.32C93.8323 25.32 97.8643 22.568 97.8643 16.904C97.8643 11.272 93.8323 8.52 88.7763 8.52C83.6883 8.52 79.6563 11.272 79.6563 16.904ZM84.7763 16.904C84.7763 14.216 86.3443 13 88.7763 13C91.1763 13 92.7443 14.216 92.7443 16.904C92.7443 19.624 91.1763 20.84 88.7763 20.84C86.3443 20.84 84.7763 19.624 84.7763 16.904ZM115.277 0.872H111.437C111.437 3.112 110.669 3.72 109.421 3.72C108.173 3.72 107.405 3.112 107.405 0.872H103.565C103.565 4.136 105.101 7.24 109.421 7.24C113.741 7.24 115.277 4.136 115.277 0.872ZM118.733 25V8.84H108.717L105.229 23.72H103.949L104.909 20.84V8.84H99.7888V25H109.805L113.293 10.12H114.573L113.613 12.84V25H118.733ZM9.952 32.52C5.536 32.52 1.504 34.92 1.28 39.528H6.4C6.592 38.088 7.904 37 9.952 37C11.808 37 12.992 37.832 13.44 39.304H8.64V42.504H13.44C12.992 44.008 11.808 44.84 9.952 44.84C7.904 44.84 6.592 43.752 6.4 42.312H1.28C1.504 46.92 5.536 49.32 9.952 49.32C15.104 49.32 18.784 46.312 18.784 40.904C18.784 35.528 15.104 32.52 9.952 32.52ZM36.7088 32.84H19.4288V37.32H25.5088V49H30.6288V37.32H36.7088V32.84ZM37.655 44.584C37.655 46.248 38.519 49.32 43.543 49.32C48.055 49.32 49.623 47.048 50.231 44.36H51.511L50.711 46.28V46.6C50.711 48.136 51.575 49 53.111 49H56.663V44.52H54.327V39.976C54.327 34.664 50.423 32.52 45.975 32.52C41.463 32.52 37.975 34.92 37.975 39.016H42.775C42.775 37.544 43.927 36.68 45.975 36.68C48.183 36.68 49.207 37.48 49.207 38.792L44.119 39.496C39.319 40.168 37.655 41.8 37.655 44.584ZM42.775 43.624C42.775 42.696 43.543 42.472 45.079 42.248L49.207 41.672C49.207 43.656 47.351 44.84 44.535 44.84C43.671 44.84 42.775 44.552 42.775 43.624ZM75.0243 32.84H58.5763V49H63.6963V37.32H69.9043V49H75.0243V32.84Z" fill="white"/>
</svg>
