<svg width="238" height="255" viewBox="0 0 238 255" fill="none" xmlns="http://www.w3.org/2000/svg">
<path d="M181.94 201.864C181.352 192.652 174.688 186.38 165.28 185.4V185.498H148.62V185.4C139.212 186.38 132.548 192.652 131.96 201.864V237.634C132.548 246.748 139.212 253.02 148.62 254H165.476C174.786 253.02 181.352 246.65 181.94 237.634V201.864ZM165.476 242.24V240.28H148.62V242.24C146.072 242.24 144.308 240.084 143.818 237.634H145.68V201.864H143.818C144.308 199.316 146.072 197.16 148.62 197.16V199.218H165.476V197.16C167.926 197.258 169.69 199.414 170.082 201.864H168.22V237.634H170.082C169.592 239.986 167.926 242.142 165.476 242.24ZM237.683 199.022V185.302H202.403C192.701 185.302 185.841 192.162 184.861 201.962V237.536C185.841 247.238 192.701 254.098 202.501 254.098L236.801 253.902V226.854L218.573 213.526L218.671 213.232H218.181L218.083 213.134V213.232H198.581V201.962H196.621C196.621 199.022 199.463 197.062 202.403 197.062V199.022H237.683ZM214.359 226.952L232.391 240.28L202.501 240.476V242.338C199.561 242.338 196.719 240.378 196.621 237.536H198.581V226.952H214.359Z" fill="white"/>
<path d="M51.94 201.864C51.352 192.652 44.688 186.38 35.28 185.4V185.498H18.62V185.4C9.212 186.38 2.548 192.652 1.96 201.864V237.634C2.548 246.748 9.212 253.02 18.62 254H35.476C44.786 253.02 51.352 246.65 51.94 237.634V201.864ZM35.476 242.24V240.28H18.62V242.24C16.072 242.24 14.308 240.084 13.818 237.634H15.68V201.864H13.818C14.308 199.316 16.072 197.16 18.62 197.16V199.218H35.476V197.16C37.926 197.258 39.69 199.414 40.082 201.864H38.22V237.634H40.082C39.592 239.986 37.926 242.142 35.476 242.24ZM106.409 201.766C105.331 192.064 98.5689 185.302 88.8669 185.302H54.8609V199.022H88.8669V197.062C91.7089 197.062 94.5509 198.924 94.6489 201.766H92.6889V213.232H74.5589V213.134L55.8409 226.854V253.902H106.409V240.28H60.2509L78.2829 226.952H106.409V201.766Z" fill="white"/>
<path d="M120.263 186C115.64 186 112 189.541 112 193.968C112 198.69 115.64 202.133 120.263 202.133C124.69 202.133 128.329 198.69 128.329 193.968C128.329 189.541 124.69 186 120.263 186Z" fill="white"/>
<path d="M120.263 186C115.64 186 112 189.541 112 193.968C112 198.69 115.64 202.133 120.263 202.133C124.69 202.133 128.329 198.69 128.329 193.968C128.329 189.541 124.69 186 120.263 186Z" fill="white"/>
<path d="M120.263 164C115.64 164 112 167.541 112 171.968C112 176.69 115.64 180.133 120.263 180.133C124.69 180.133 128.329 176.69 128.329 171.968C128.329 167.541 124.69 164 120.263 164Z" fill="white"/>
<path d="M120.263 141C115.64 141 112 144.541 112 148.968C112 153.69 115.64 157.133 120.263 157.133C124.69 157.133 128.329 153.69 128.329 148.968C128.329 144.541 124.69 141 120.263 141Z" fill="white"/>
<path d="M53.508 82.766C52.43 73.064 45.668 66.302 35.966 66.302H1.96V80.022H35.966V78.062C38.808 78.062 41.65 79.924 41.748 82.766H39.788V94.232H21.658V94.134L2.94 107.854V134.902H53.508V121.28H7.35L25.382 107.952H53.508V82.766ZM106.468 82.864C105.88 73.652 99.2158 67.38 89.8078 66.4V66.498H73.1478V66.4C63.7398 67.38 57.0758 73.652 56.4878 82.864V118.634C57.0758 127.748 63.7398 134.02 73.1478 135H90.0038C99.3138 134.02 105.88 127.65 106.468 118.634V82.864ZM90.0038 123.24V121.28H73.1478V123.24C70.5998 123.24 68.8358 121.084 68.3458 118.634H70.2078V82.864H68.3458C68.8358 80.316 70.5998 78.16 73.1478 78.16V80.218H90.0038V78.16C92.4538 78.258 94.2178 80.414 94.6098 82.864H92.7478V118.634H94.6098C94.1198 120.986 92.4538 123.142 90.0038 123.24ZM119.581 119.908C114.975 119.908 111.349 123.436 111.349 127.846C111.349 132.55 114.975 135.98 119.581 135.98C123.991 135.98 127.617 132.55 127.617 127.846C127.617 123.436 123.991 119.908 119.581 119.908ZM182.506 82.864C181.918 73.652 175.254 67.38 165.846 66.4V66.498H149.186V66.4C139.778 67.38 133.114 73.652 132.526 82.864V118.634C133.114 127.748 139.778 134.02 149.186 135H166.042C175.352 134.02 181.918 127.65 182.506 118.634V82.864ZM166.042 123.24V121.28H149.186V123.24C146.638 123.24 144.874 121.084 144.384 118.634H146.246V82.864H144.384C144.874 80.316 146.638 78.16 149.186 78.16V80.218H166.042V78.16C168.492 78.258 170.256 80.414 170.648 82.864H168.786V118.634H170.648C170.158 120.986 168.492 123.142 166.042 123.24ZM237.073 79.924V66.302H187.485V93.35L206.203 107.07V106.972H223.353V118.438H225.313C225.215 121.28 222.275 123.142 219.433 123.142V121.182H187.387V134.902H219.433C229.135 134.902 235.995 128.14 237.073 118.438V93.252H209.927L191.895 79.924H237.073Z" fill="white"/>
<path d="M2.888 1.216H14.376C19.7733 1.216 22.472 3.11467 22.472 6.912C22.472 8.832 21.5227 10.3573 19.624 11.488C22.2693 12.4053 23.592 14.272 23.592 17.088C23.592 18.368 23.3467 19.4773 22.856 20.416C22.3867 21.3333 21.7253 22.048 20.872 22.56C20.0187 23.072 19.1013 23.4453 18.12 23.68C17.1387 23.8933 16.0507 24 14.856 24H2.888V1.216ZM9.672 6.4V9.92H13.608C14.2693 9.92 14.7813 9.77067 15.144 9.472C15.528 9.152 15.72 8.72533 15.72 8.192C15.72 6.99733 14.9093 6.4 13.288 6.4H9.672ZM9.672 14.304V18.592H13.992C15.7627 18.592 16.648 17.888 16.648 16.48C16.648 15.0293 15.7627 14.304 13.992 14.304H9.672ZM30.1588 12.256H24.8788V7.488H41.7108V12.256H36.4308V24H30.1588V12.256ZM51.4415 7.008C54.1082 7.008 56.2735 7.808 57.9375 9.408C59.6015 11.008 60.4335 13.0987 60.4335 15.68C60.4335 18.2827 59.5908 20.4053 57.9055 22.048C56.2202 23.6693 54.0442 24.48 51.3775 24.48C48.6895 24.48 46.5028 23.6693 44.8175 22.048C43.1322 20.4267 42.2895 18.3253 42.2895 15.744C42.2895 13.1627 43.1322 11.0613 44.8175 9.44C46.5242 7.81867 48.7322 7.008 51.4415 7.008ZM51.3135 11.584C49.5215 11.584 48.6255 12.9707 48.6255 15.744C48.6255 18.5387 49.5428 19.936 51.3775 19.936C53.1908 19.936 54.0975 18.5173 54.0975 15.68C54.0975 12.9493 53.1695 11.584 51.3135 11.584ZM68.9738 7.488V9.28C70.1044 7.808 71.6831 7.072 73.7098 7.072C75.8644 7.072 77.5924 7.88267 78.8938 9.504C80.2164 11.104 80.8778 13.2267 80.8778 15.872C80.8778 18.4747 80.2484 20.5547 78.9898 22.112C77.7311 23.648 76.0458 24.416 73.9338 24.416C72.0991 24.416 70.5204 23.6907 69.1978 22.24V29.312H62.8938V7.488H68.9738ZM71.7578 12.128C69.9231 12.128 69.0058 13.3867 69.0058 15.904C69.0058 18.3787 69.9338 19.616 71.7898 19.616C73.6244 19.616 74.5418 18.368 74.5418 15.872C74.5418 13.376 73.6138 12.128 71.7578 12.128ZM91.7078 7.008C94.3744 7.008 96.5398 7.808 98.2038 9.408C99.8678 11.008 100.7 13.0987 100.7 15.68C100.7 18.2827 99.8571 20.4053 98.1718 22.048C96.4864 23.6693 94.3104 24.48 91.6438 24.48C88.9558 24.48 86.7691 23.6693 85.0838 22.048C83.3984 20.4267 82.5558 18.3253 82.5558 15.744C82.5558 13.1627 83.3984 11.0613 85.0838 9.44C86.7904 7.81867 88.9984 7.008 91.7078 7.008ZM91.5798 11.584C89.7878 11.584 88.8918 12.9707 88.8918 15.744C88.8918 18.5387 89.8091 19.936 91.6438 19.936C93.4571 19.936 94.3638 18.5173 94.3638 15.68C94.3638 12.9493 93.4358 11.584 91.5798 11.584ZM117.144 1.216C117.08 2.79467 116.547 4.032 115.544 4.928C114.541 5.80267 113.283 6.24 111.768 6.24C110.125 6.24 108.803 5.824 107.8 4.992C106.819 4.16 106.275 2.90133 106.168 1.216H109.08C109.187 2.38933 110.083 2.976 111.768 2.976C113.261 2.976 114.093 2.38933 114.264 1.216H117.144ZM120.408 24H114.36V15.36H114.264L109.464 24H103.16V7.488H109.208V15.904H109.304L114.104 7.488H120.408V24ZM19.496 45.872C19.496 48.4107 18.6533 50.4693 16.968 52.048C15.304 53.6267 13.1387 54.416 10.472 54.416C8.104 54.416 6.16267 53.8293 4.648 52.656C3.15467 51.4613 2.22667 49.7973 1.864 47.664H7.944C8.22133 49.0933 9.04267 49.808 10.408 49.808C11.9227 49.808 12.808 48.912 13.064 47.12H9.128V43.952H12.968C12.584 42.3733 11.72 41.584 10.376 41.584C9.77867 41.584 9.26667 41.7547 8.84 42.096C8.43467 42.416 8.168 42.8747 8.04 43.472H1.992C2.20533 41.552 3.08 40.016 4.616 38.864C6.152 37.6907 8.09333 37.104 10.44 37.104C13.1493 37.104 15.336 37.9147 17 39.536C18.664 41.136 19.496 43.248 19.496 45.872ZM25.76 42.256H20.48V37.488H37.312V42.256H32.032V54H25.76V42.256ZM55.8748 54H49.4748C49.3254 53.4453 49.2401 52.9333 49.2188 52.464C47.8321 53.8507 46.0721 54.544 43.9388 54.544C42.0614 54.544 40.5894 54.0853 39.5228 53.168C38.4774 52.2507 37.9548 50.9813 37.9548 49.36C37.9548 48.528 38.1254 47.8027 38.4668 47.184C38.8081 46.5653 39.1494 46.096 39.4908 45.776C39.8534 45.4347 40.4614 45.136 41.3148 44.88C42.1681 44.6027 42.7761 44.432 43.1388 44.368C43.5014 44.304 44.2054 44.1973 45.2508 44.048C45.2934 44.0267 45.3254 44.016 45.3468 44.016C45.3894 44.016 45.4321 44.016 45.4748 44.016C45.5388 43.9947 45.5921 43.984 45.6348 43.984C45.7414 43.9627 45.9974 43.9413 46.4028 43.92C46.8081 43.8773 47.1174 43.8347 47.3308 43.792C47.5654 43.7493 47.8321 43.6747 48.1308 43.568C48.4508 43.4613 48.6854 43.3013 48.8348 43.088C48.9841 42.8747 49.0588 42.6187 49.0588 42.32C49.0588 41.36 48.3654 40.88 46.9788 40.88C46.2108 40.88 45.6561 40.9973 45.3148 41.232C44.9734 41.4667 44.7494 41.904 44.6428 42.544H38.7228C38.8721 38.8533 41.6241 37.008 46.9788 37.008C51.2241 37.008 53.8268 38.032 54.7868 40.08C55.0854 40.6987 55.2348 41.7013 55.2348 43.088C55.2348 43.7493 55.2241 44.7307 55.2028 46.032C55.1814 47.312 55.1708 48.4 55.1708 49.296C55.1708 51.4933 55.4054 53.0613 55.8748 54ZM49.0908 46.48C48.6214 46.8 47.6401 47.12 46.1468 47.44C44.9948 47.696 44.4188 48.272 44.4188 49.168C44.4188 49.68 44.5788 50.0853 44.8988 50.384C45.2188 50.6827 45.6561 50.832 46.2108 50.832C47.3628 50.832 48.1948 50.4053 48.7068 49.552C48.9628 49.1253 49.0908 48.432 49.0908 47.472V46.48ZM75.7893 37.488V54H69.4853V42.256H64.8453V54H58.5413V37.488H75.7893Z" fill="white"/>
</svg>
