<svg width="284" height="200" viewBox="0 0 284 200" fill="none" xmlns="http://www.w3.org/2000/svg">
<path d="M216.775 136.008C216.07 124.962 208.079 117.441 196.797 116.265V116.383H176.819V116.265C165.538 117.441 157.547 124.962 156.842 136.008V178.902C157.547 189.831 165.538 197.352 176.819 198.527H197.032C208.196 197.352 216.07 189.714 216.775 178.902V136.008ZM197.032 184.425V182.075H176.819V184.425C173.764 184.425 171.649 181.84 171.061 178.902H173.294V136.008H171.061C171.649 132.953 173.764 130.368 176.819 130.368V132.835H197.032V130.368C199.97 130.485 202.086 133.07 202.556 136.008H200.323V178.902H202.556C201.968 181.722 199.97 184.308 197.032 184.425ZM283.619 132.6V116.148H241.313C229.679 116.148 221.453 124.374 220.278 136.126V178.784C221.453 190.419 229.679 198.645 241.431 198.645L282.562 198.41V165.975L260.704 149.993L260.821 149.64H260.234L260.116 149.523V149.64H236.73V136.126H234.38C234.38 132.6 237.788 130.25 241.313 130.25V132.6H283.619ZM255.65 166.093L277.273 182.075L241.431 182.31V184.543C237.905 184.543 234.497 182.192 234.38 178.784H236.73V166.093H255.65Z" fill="white"/>
<path d="M40.085 182.075V116.265H1.89204V132.718H23.6327V182.075H0.951902V198.527H60.8856V182.075H40.085ZM124.322 136.008C123.617 124.962 115.625 117.441 104.344 116.265V116.383H84.366V116.265C73.0844 117.441 65.0932 124.962 64.3881 136.008V178.902C65.0932 189.831 73.0844 197.352 84.366 198.527H104.579C115.743 197.352 123.617 189.714 124.322 178.902V136.008ZM104.579 184.425V182.075H84.366V184.425C81.3105 184.425 79.1952 181.84 78.6077 178.902H80.8405V136.008H78.6077C79.1952 132.953 81.3105 130.368 84.366 130.368V132.835H104.579V130.368C107.517 130.485 109.632 133.07 110.102 136.008H107.869V178.902H110.102C109.515 181.722 107.517 184.308 104.579 184.425ZM140.046 180.43C134.523 180.43 130.175 184.66 130.175 189.949C130.175 195.589 134.523 199.703 140.046 199.703C145.334 199.703 149.682 195.589 149.682 189.949C149.682 184.66 145.334 180.43 140.046 180.43Z" fill="white"/>
<path d="M2.02641 0.678507H13.922C21.878 0.678507 25.856 3.91462 25.856 10.3868C25.856 13.4055 24.9094 15.6951 23.0164 17.2556C21.1489 18.7905 18.6674 19.558 15.572 19.558H10.3533V28H2.02641V0.678507ZM10.3533 7.39376V13.1881H14.3825C16.6849 13.1881 17.836 12.2287 17.836 10.3101C17.836 8.36587 16.6337 7.39376 14.229 7.39376H10.3533ZM49.0755 22.0522C48.4871 24.1499 47.208 25.7616 45.2382 26.8872C43.2939 28.0128 41.1579 28.5756 38.8299 28.5756C35.6066 28.5756 32.9333 27.6674 30.81 25.8511C28.6867 24.0348 27.625 21.5278 27.625 18.33C27.625 15.2346 28.6483 12.6892 30.6948 10.6938C32.767 8.69844 35.3891 7.70074 38.5613 7.70074C41.8869 7.70074 44.5347 8.73681 46.5045 10.8089C48.4999 12.8811 49.4976 15.6695 49.4976 19.1742V19.7498H34.9159C34.967 21.0033 35.3252 21.9755 35.9903 22.6662C36.681 23.3569 37.6148 23.7022 38.7915 23.7022C40.1985 23.7022 41.2602 23.1522 41.9765 22.0522H49.0755ZM42.0916 15.9509C41.8869 13.6997 40.723 12.5741 38.5997 12.5741C36.5531 12.5741 35.338 13.6997 34.9542 15.9509H42.0916ZM51.1431 21.1313H58.3572C58.3572 22.001 58.6642 22.7173 59.2781 23.2801C59.8921 23.8174 60.6468 24.086 61.5421 24.086C62.4119 24.086 63.0643 23.8685 63.4992 23.4336C63.9596 22.9732 64.1899 22.4231 64.1899 21.7836C64.1899 21.0161 63.9341 20.5045 63.4224 20.2487C62.9108 19.9673 62.1305 19.8266 61.0817 19.8266C60.5445 19.8266 60.1224 19.8394 59.8154 19.8649V15.8742C61.2224 15.8742 62.2201 15.7463 62.8085 15.4904C63.3968 15.209 63.691 14.6718 63.691 13.8788C63.691 13.3927 63.4864 13.009 63.0771 12.7276C62.6678 12.4206 62.1433 12.2671 61.5038 12.2671C60.941 12.2671 60.4293 12.4334 59.9689 12.766C59.5084 13.0985 59.227 13.5974 59.1247 14.2625H51.9873C51.9873 12.0369 52.8955 10.3868 54.7118 9.31241C56.5281 8.23796 58.9328 7.70074 61.9259 7.70074C64.919 7.70074 67.2213 8.19959 68.833 9.19729C70.4702 10.195 71.2889 11.5636 71.2889 13.3032C71.2889 14.1986 71.0203 15.0044 70.483 15.7207C69.9458 16.4114 69.2423 16.9358 68.3725 17.294C69.4981 17.4986 70.3935 18.0103 71.0586 18.8289C71.7238 19.6219 72.0563 20.5173 72.0563 21.515C72.0563 23.8174 71.097 25.5697 69.1784 26.7721C67.2853 27.9744 64.5992 28.5756 61.12 28.5756C58.1014 28.5756 55.6839 27.9616 53.8676 26.7337C52.0513 25.4802 51.1431 23.6511 51.1431 21.2464V21.1313ZM94.6046 8.19959L87.3521 28.4605C86.5591 30.6861 85.587 32.2338 84.4358 33.1036C83.3102 33.9734 81.5834 34.4083 79.2554 34.4083H74.3053V28.3454C74.8426 28.3709 75.4309 28.3837 76.0705 28.3837C76.4798 28.3837 76.8124 28.3709 77.0682 28.3454C77.324 28.3198 77.6182 28.2558 77.9508 28.1535C78.2833 28.0767 78.5391 27.9233 78.7182 27.693C78.8973 27.4372 78.9868 27.1174 78.9868 26.7337C78.9868 26.4779 78.9101 26.1581 78.7566 25.7744L72.3099 8.19959H80.3682L82.5939 16.0277C82.952 17.3068 83.2718 18.8417 83.5532 20.6324C84.0137 18.2789 84.3718 16.6672 84.6276 15.7974L86.8149 8.19959H94.6046ZM115.812 28H108.406V13.9172H104.645C104.645 17.4219 104.441 20.1208 104.031 22.0138C103.571 24.2906 102.752 25.9279 101.576 26.9256C100.424 27.8977 98.7743 28.3837 96.6255 28.3837C96.2929 28.3837 95.8964 28.3326 95.4359 28.2302C95.001 28.1535 94.6429 28.0767 94.3615 28L93.9394 27.8465V22.4359C94.4254 22.615 94.8347 22.7045 95.1673 22.7045C95.4999 22.7045 95.7813 22.6406 96.0115 22.5127C96.2673 22.3592 96.472 22.1417 96.6255 21.8603C96.8045 21.5534 96.9452 21.272 97.0476 21.0161C97.1499 20.7347 97.2138 20.3766 97.2394 19.9417C97.2906 19.4812 97.329 19.1231 97.3545 18.8673C97.3801 18.6114 97.3929 18.2661 97.3929 17.8312C97.4185 17.3707 97.4313 17.0893 97.4313 16.987C97.508 15.2218 97.5464 12.2927 97.5464 8.19959H115.812V28ZM139.752 21.0545C139.752 23.229 139.074 24.9302 137.718 26.1581C136.362 27.386 134.354 28 131.694 28H119.645V8.19959H127.204V14.3776H131.886C134.546 14.3776 136.516 14.966 137.795 16.1428C139.1 17.294 139.752 18.9312 139.752 21.0545ZM129.468 23.3953C131.157 23.3953 132.001 22.6662 132.001 21.208C132.001 19.7498 131.157 19.0207 129.468 19.0207H127.204V23.3953H129.468ZM145.119 13.9172H138.787V8.19959H158.971V13.9172H152.64V28H145.119V13.9172ZM180.847 28H173.172C172.993 27.3349 172.891 26.7209 172.865 26.1581C171.203 27.8209 169.092 28.6523 166.534 28.6523C164.283 28.6523 162.518 28.1023 161.238 27.0023C159.985 25.9023 159.358 24.3802 159.358 22.4359C159.358 21.4382 159.563 20.5685 159.972 19.8266C160.382 19.0847 160.791 18.5219 161.2 18.1382C161.635 17.7289 162.364 17.3707 163.387 17.0637C164.411 16.7312 165.14 16.5265 165.575 16.4498C166.01 16.373 166.854 16.2451 168.107 16.066C168.158 16.0405 168.197 16.0277 168.222 16.0277C168.274 16.0277 168.325 16.0277 168.376 16.0277C168.453 16.0021 168.517 15.9893 168.568 15.9893C168.696 15.9637 169.003 15.9381 169.489 15.9125C169.975 15.8614 170.346 15.8102 170.601 15.7591C170.883 15.7079 171.203 15.6183 171.561 15.4904C171.945 15.3625 172.226 15.1707 172.405 14.9148C172.584 14.659 172.674 14.352 172.674 13.9939C172.674 12.8427 171.842 12.2671 170.179 12.2671C169.258 12.2671 168.593 12.4078 168.184 12.6892C167.775 12.9706 167.506 13.495 167.378 14.2625H160.279C160.458 9.83683 163.758 7.624 170.179 7.624C175.27 7.624 178.391 8.85193 179.542 11.3078C179.901 12.0497 180.08 13.252 180.08 14.9148C180.08 15.7079 180.067 16.8847 180.041 18.4452C180.016 19.9801 180.003 21.2847 180.003 22.3592C180.003 24.9941 180.284 26.8744 180.847 28ZM172.712 18.9824C172.149 19.3661 170.972 19.7498 169.182 20.1336C167.8 20.4405 167.11 21.1313 167.11 22.2057C167.11 22.8197 167.301 23.3057 167.685 23.6639C168.069 24.022 168.593 24.2011 169.258 24.2011C170.64 24.2011 171.638 23.6894 172.252 22.6662C172.558 22.1545 172.712 21.3231 172.712 20.1719V18.9824ZM188.457 13.9172H182.126V8.19959H202.31V13.9172H195.979V28H188.457V13.9172ZM233.226 28H225.858V8.19959H233.226V28ZM223.824 21.0545C223.824 23.229 223.146 24.9302 221.791 26.1581C220.435 27.386 218.427 28 215.766 28H204.484V8.19959H211.852V14.3776H215.958C218.618 14.3776 220.588 14.966 221.867 16.1428C223.172 17.294 223.824 18.9312 223.824 21.0545ZM213.732 23.3953C215.421 23.3953 216.265 22.6662 216.265 21.208C216.265 19.7498 215.421 19.0207 213.732 19.0207H211.852V23.3953H213.732ZM8.89516 48.4206V51.7207H11.8499C13.308 51.7207 14.0371 51.1451 14.0371 49.9939C14.0371 48.945 13.3464 48.4206 11.965 48.4206H8.89516ZM14.1522 64H1.52756V44.1996H13.5766C16.3651 44.1996 18.3988 44.5961 19.6779 45.3892C20.9826 46.1566 21.635 47.3973 21.635 49.1113C21.635 51.1067 20.6756 52.5009 18.757 53.294V53.3707C19.7803 53.5754 20.6373 54.0998 21.328 54.944C22.0443 55.7882 22.4024 56.7731 22.4024 57.8987C22.4024 61.9662 19.6524 64 14.1522 64ZM12.1569 59.6639C12.7964 59.6639 13.3208 59.4848 13.7301 59.1266C14.165 58.7685 14.3825 58.2696 14.3825 57.6301C14.3825 56.3766 13.5255 55.7498 11.8115 55.7498H8.89516V59.6639H12.1569ZM30.0824 49.9172H23.7509V44.1996H43.935V49.9172H37.6035V64H30.0824V49.9172ZM55.6036 43.624C58.8014 43.624 61.398 44.5833 63.3933 46.502C65.3887 48.4206 66.3864 50.9276 66.3864 54.023C66.3864 57.144 65.3759 59.6894 63.355 61.6593C61.334 63.6035 58.7246 64.5756 55.5269 64.5756C52.3036 64.5756 49.6814 63.6035 47.6605 61.6593C45.6395 59.715 44.629 57.1952 44.629 54.0998C44.629 51.0044 45.6395 48.4846 47.6605 46.5403C49.707 44.5961 52.3547 43.624 55.6036 43.624ZM55.4502 49.1113C53.3013 49.1113 52.2268 50.7741 52.2268 54.0998C52.2268 57.451 53.3269 59.1266 55.5269 59.1266C57.7014 59.1266 58.7886 57.4254 58.7886 54.023C58.7886 50.7486 57.6758 49.1113 55.4502 49.1113ZM76.6275 44.1996V46.3485C77.9833 44.5833 79.8764 43.7007 82.3067 43.7007C84.8905 43.7007 86.9626 44.6729 88.5231 46.6171C90.1092 48.5357 90.9022 51.0811 90.9022 54.2533C90.9022 57.3743 90.1475 59.8685 88.6382 61.736C87.1289 63.5779 85.1079 64.4988 82.5753 64.4988C80.3752 64.4988 78.4822 63.6291 76.8961 61.8895V70.3699H69.3366V44.1996H76.6275ZM79.9659 49.7637C77.7659 49.7637 76.6659 51.273 76.6659 54.2917C76.6659 57.2592 77.7787 58.7429 80.0043 58.7429C82.2044 58.7429 83.3044 57.2464 83.3044 54.2533C83.3044 51.2602 82.1916 49.7637 79.9659 49.7637ZM103.889 43.624C107.087 43.624 109.683 44.5833 111.679 46.502C113.674 48.4206 114.672 50.9276 114.672 54.023C114.672 57.144 113.661 59.6894 111.64 61.6593C109.619 63.6035 107.01 64.5756 103.812 64.5756C100.589 64.5756 97.9668 63.6035 95.9458 61.6593C93.9249 59.715 92.9144 57.1952 92.9144 54.0998C92.9144 51.0044 93.9249 48.4846 95.9458 46.5403C97.9924 44.5961 100.64 43.624 103.889 43.624ZM103.736 49.1113C101.587 49.1113 100.512 50.7741 100.512 54.0998C100.512 57.451 101.612 59.1266 103.812 59.1266C105.987 59.1266 107.074 57.4254 107.074 54.023C107.074 50.7486 105.961 49.1113 103.736 49.1113ZM117.776 44.1996H134.276V49.9172H125.335V64H117.776V44.1996ZM145.804 43.624C149.002 43.624 151.598 44.5833 153.594 46.502C155.589 48.4206 156.587 50.9276 156.587 54.023C156.587 57.144 155.576 59.6894 153.555 61.6593C151.534 63.6035 148.925 64.5756 145.727 64.5756C142.504 64.5756 139.882 63.6035 137.861 61.6593C135.84 59.715 134.829 57.1952 134.829 54.0998C134.829 51.0044 135.84 48.4846 137.861 46.5403C139.907 44.5961 142.555 43.624 145.804 43.624ZM145.65 49.1113C143.502 49.1113 142.427 50.7741 142.427 54.0998C142.427 57.451 143.527 59.1266 145.727 59.1266C147.902 59.1266 148.989 57.4254 148.989 54.023C148.989 50.7486 147.876 49.1113 145.65 49.1113ZM21.9803 90.2533C21.9803 93.2975 20.9698 95.7662 18.9489 97.6593C16.9535 99.5523 14.3569 100.499 11.1592 100.499C8.31956 100.499 5.99161 99.7953 4.17529 98.3883C2.38456 96.9558 1.27174 94.9604 0.836849 92.4022H8.1277C8.46026 94.1162 9.44517 94.9732 11.0824 94.9732C12.8987 94.9732 13.9604 93.8987 14.2674 91.7498H9.54749V87.9509H14.1522C13.6918 86.0579 12.6557 85.1113 11.044 85.1113C10.3277 85.1113 9.71378 85.316 9.20214 85.7253C8.71608 86.109 8.39631 86.659 8.24282 87.3753H0.990341C1.24616 85.0729 2.29502 83.231 4.13692 81.8496C5.97882 80.4426 8.30677 79.7391 11.1208 79.7391C14.3697 79.7391 16.9918 80.7112 18.9872 82.6555C20.9826 84.5741 21.9803 87.1067 21.9803 90.2533ZM29.4918 85.9172H23.1603V80.1996H43.3444V85.9172H37.0129V100H29.4918V85.9172ZM65.604 100H57.9294C57.7503 99.3349 57.648 98.7209 57.6224 98.1581C55.9596 99.8209 53.8491 100.652 51.2909 100.652C49.0397 100.652 47.2745 100.102 45.9954 99.0023C44.7419 97.9023 44.1152 96.3802 44.1152 94.4359C44.1152 93.4382 44.3198 92.5685 44.7291 91.8266C45.1384 91.0847 45.5478 90.5219 45.9571 90.1382C46.392 89.7289 47.121 89.3707 48.1443 89.0637C49.1676 88.7312 49.8967 88.5265 50.3316 88.4498C50.7665 88.373 51.6107 88.2451 52.8642 88.066C52.9153 88.0405 52.9537 88.0277 52.9793 88.0277C53.0305 88.0277 53.0816 88.0277 53.1328 88.0277C53.2095 88.0021 53.2735 87.9893 53.3247 87.9893C53.4526 87.9637 53.7596 87.9381 54.2456 87.9125C54.7317 87.8614 55.1026 87.8102 55.3584 87.7591C55.6398 87.7079 55.9596 87.6183 56.3177 87.4904C56.7015 87.3625 56.9829 87.1707 57.1619 86.9148C57.341 86.659 57.4306 86.352 57.4306 85.9939C57.4306 84.8427 56.5991 84.2671 54.9363 84.2671C54.0154 84.2671 53.3502 84.4078 52.9409 84.6892C52.5316 84.9706 52.263 85.495 52.1351 86.2625H45.0361C45.2152 81.8368 48.5153 79.624 54.9363 79.624C60.0271 79.624 63.1481 80.8519 64.2993 83.3078C64.6575 84.0497 64.8365 85.252 64.8365 86.9148C64.8365 87.7079 64.8237 88.8847 64.7982 90.4452C64.7726 91.9801 64.7598 93.2847 64.7598 94.3592C64.7598 96.9941 65.0412 98.8744 65.604 100ZM57.4689 90.9824C56.9061 91.3661 55.7294 91.7498 53.9386 92.1336C52.5572 92.4405 51.8665 93.1313 51.8665 94.2057C51.8665 94.8197 52.0584 95.3057 52.4421 95.6639C52.8258 96.022 53.3502 96.2011 54.0154 96.2011C55.3968 96.2011 56.3945 95.6894 57.0085 94.6662C57.3154 94.1545 57.4689 93.3231 57.4689 92.1719V90.9824ZM89.4845 80.1996V100H81.925V85.9172H76.361V100H68.8015V80.1996H89.4845ZM113.945 100H106.27C106.091 99.3349 105.989 98.7209 105.963 98.1581C104.3 99.8209 102.19 100.652 99.6317 100.652C97.3805 100.652 95.6154 100.102 94.3363 99.0023C93.0828 97.9023 92.456 96.3802 92.456 94.4359C92.456 93.4382 92.6607 92.5685 93.07 91.8266C93.4793 91.0847 93.8886 90.5219 94.2979 90.1382C94.7328 89.7289 95.4619 89.3707 96.4852 89.0637C97.5084 88.7312 98.2375 88.5265 98.6724 88.4498C99.1073 88.373 99.9515 88.2451 101.205 88.066C101.256 88.0405 101.295 88.0277 101.32 88.0277C101.371 88.0277 101.422 88.0277 101.474 88.0277C101.55 88.0021 101.614 87.9893 101.665 87.9893C101.793 87.9637 102.1 87.9381 102.586 87.9125C103.072 87.8614 103.443 87.8102 103.699 87.7591C103.981 87.7079 104.3 87.6183 104.659 87.4904C105.042 87.3625 105.324 87.1707 105.503 86.9148C105.682 86.659 105.771 86.352 105.771 85.9939C105.771 84.8427 104.94 84.2671 103.277 84.2671C102.356 84.2671 101.691 84.4078 101.282 84.6892C100.872 84.9706 100.604 85.495 100.476 86.2625H93.377C93.556 81.8368 96.8561 79.624 103.277 79.624C108.368 79.624 111.489 80.8519 112.64 83.3078C112.998 84.0497 113.177 85.252 113.177 86.9148C113.177 87.7079 113.165 88.8847 113.139 90.4452C113.113 91.9801 113.101 93.2847 113.101 94.3592C113.101 96.9941 113.382 98.8744 113.945 100ZM105.81 90.9824C105.247 91.3661 104.07 91.7498 102.279 92.1336C100.898 92.4405 100.207 93.1313 100.207 94.2057C100.207 94.8197 100.399 95.3057 100.783 95.6639C101.167 96.022 101.691 96.2011 102.356 96.2011C103.738 96.2011 104.735 95.6894 105.349 94.6662C105.656 94.1545 105.81 93.3231 105.81 92.1719V90.9824Z" fill="white"/>
</svg>
