<svg width="238" height="236" viewBox="0 0 238 236" fill="none" xmlns="http://www.w3.org/2000/svg">
<path d="M181.94 182.864C181.352 173.652 174.688 167.38 165.28 166.4V166.498H148.62V166.4C139.212 167.38 132.548 173.652 131.96 182.864V218.634C132.548 227.748 139.212 234.02 148.62 235H165.476C174.786 234.02 181.352 227.65 181.94 218.634V182.864ZM165.476 223.24V221.28H148.62V223.24C146.072 223.24 144.308 221.084 143.818 218.634H145.68V182.864H143.818C144.308 180.316 146.072 178.16 148.62 178.16V180.218H165.476V178.16C167.926 178.258 169.69 180.414 170.082 182.864H168.22V218.634H170.082C169.592 220.986 167.926 223.142 165.476 223.24ZM237.683 180.022V166.302H202.403C192.701 166.302 185.841 173.162 184.861 182.962V218.536C185.841 228.238 192.701 235.098 202.501 235.098L236.801 234.902V207.854L218.573 194.526L218.671 194.232H218.181L218.083 194.134V194.232H198.581V182.962H196.621C196.621 180.022 199.463 178.062 202.403 178.062V180.022H237.683ZM214.359 207.952L232.391 221.28L202.501 221.476V223.338C199.561 223.338 196.719 221.378 196.621 218.536H198.581V207.952H214.359Z" fill="white"/>
<path d="M51.94 182.864C51.352 173.652 44.688 167.38 35.28 166.4V166.498H18.62V166.4C9.212 167.38 2.548 173.652 1.96 182.864V218.634C2.548 227.748 9.212 234.02 18.62 235H35.476C44.786 234.02 51.352 227.65 51.94 218.634V182.864ZM35.476 223.24V221.28H18.62V223.24C16.072 223.24 14.308 221.084 13.818 218.634H15.68V182.864H13.818C14.308 180.316 16.072 178.16 18.62 178.16V180.218H35.476V178.16C37.926 178.258 39.69 180.414 40.082 182.864H38.22V218.634H40.082C39.592 220.986 37.926 223.142 35.476 223.24ZM106.409 182.766C105.331 173.064 98.5689 166.302 88.8669 166.302H54.8609V180.022H88.8669V178.062C91.7089 178.062 94.5509 179.924 94.6489 182.766H92.6889V194.232H74.5589V194.134L55.8409 207.854V234.902H106.409V221.28H60.2509L78.2829 207.952H106.409V182.766Z" fill="white"/>
<path d="M120.263 167C115.64 167 112 170.541 112 174.968C112 179.69 115.64 183.133 120.263 183.133C124.69 183.133 128.329 179.69 128.329 174.968C128.329 170.541 124.69 167 120.263 167Z" fill="white"/>
<path d="M120.263 167C115.64 167 112 170.541 112 174.968C112 179.69 115.64 183.133 120.263 183.133C124.69 183.133 128.329 179.69 128.329 174.968C128.329 170.541 124.69 167 120.263 167Z" fill="white"/>
<path d="M120.263 145C115.64 145 112 148.541 112 152.968C112 157.69 115.64 161.133 120.263 161.133C124.69 161.133 128.329 157.69 128.329 152.968C128.329 148.541 124.69 145 120.263 145Z" fill="white"/>
<path d="M120.263 122C115.64 122 112 125.541 112 129.968C112 134.69 115.64 138.133 120.263 138.133C124.69 138.133 128.329 134.69 128.329 129.968C128.329 125.541 124.69 122 120.263 122Z" fill="white"/>
<path d="M53.508 63.766C52.43 54.064 45.668 47.302 35.966 47.302H1.96V61.022H35.966V59.062C38.808 59.062 41.65 60.924 41.748 63.766H39.788V75.232H21.658V75.134L2.94 88.854V115.902H53.508V102.28H7.35L25.382 88.952H53.508V63.766ZM106.468 63.864C105.88 54.652 99.2158 48.38 89.8078 47.4V47.498H73.1478V47.4C63.7398 48.38 57.0758 54.652 56.4878 63.864V99.634C57.0758 108.748 63.7398 115.02 73.1478 116H90.0038C99.3138 115.02 105.88 108.65 106.468 99.634V63.864ZM90.0038 104.24V102.28H73.1478V104.24C70.5998 104.24 68.8358 102.084 68.3458 99.634H70.2078V63.864H68.3458C68.8358 61.316 70.5998 59.16 73.1478 59.16V61.218H90.0038V59.16C92.4538 59.258 94.2178 61.414 94.6098 63.864H92.7478V99.634H94.6098C94.1198 101.986 92.4538 104.142 90.0038 104.24ZM119.581 100.908C114.975 100.908 111.349 104.436 111.349 108.846C111.349 113.55 114.975 116.98 119.581 116.98C123.991 116.98 127.617 113.55 127.617 108.846C127.617 104.436 123.991 100.908 119.581 100.908ZM182.506 63.864C181.918 54.652 175.254 48.38 165.846 47.4V47.498H149.186V47.4C139.778 48.38 133.114 54.652 132.526 63.864V99.634C133.114 108.748 139.778 115.02 149.186 116H166.042C175.352 115.02 181.918 108.65 182.506 99.634V63.864ZM166.042 104.24V102.28H149.186V104.24C146.638 104.24 144.874 102.084 144.384 99.634H146.246V63.864H144.384C144.874 61.316 146.638 59.16 149.186 59.16V61.218H166.042V59.16C168.492 59.258 170.256 61.414 170.648 63.864H168.786V99.634H170.648C170.158 101.986 168.492 104.142 166.042 104.24ZM237.073 60.924V47.302H187.485V74.35L206.203 88.07V87.972H223.353V99.438H225.313C225.215 102.28 222.275 104.142 219.433 104.142V102.182H187.387V115.902H219.433C229.135 115.902 235.995 109.14 237.073 99.438V74.252H209.927L191.895 60.924H237.073Z" fill="white"/>
<path d="M1.92 25H10.24C16.128 25 20.832 24.136 20.832 19.016C20.832 14.216 17.184 13.896 13.76 13.768V12.488C16.16 12.296 19.168 12.2 19.168 7.976C19.168 3.528 16.128 2.44 9.856 2.44H1.92V25ZM7.04 11.016V6.92H10.496C12.576 6.92 14.048 6.92 14.048 8.968C14.048 11.016 12.576 11.016 10.496 11.016H7.04ZM7.04 20.52V15.496H10.88C13.92 15.496 15.712 15.496 15.712 18.024C15.712 20.52 13.92 20.52 10.88 20.52H7.04ZM38.4513 8.84H21.1713V13.32H27.2513V25H32.3713V13.32H38.4513V8.84ZM38.4525 16.904C38.4525 22.568 42.4845 25.32 47.5725 25.32C52.6285 25.32 56.6605 22.568 56.6605 16.904C56.6605 11.272 52.6285 8.52 47.5725 8.52C42.4845 8.52 38.4525 11.272 38.4525 16.904ZM43.5725 16.904C43.5725 14.216 45.1405 13 47.5725 13C49.9725 13 51.5405 14.216 51.5405 16.904C51.5405 19.624 49.9725 20.84 47.5725 20.84C45.1405 20.84 43.5725 19.624 43.5725 16.904ZM58.585 8.84V31.08H63.705V24.008L62.745 21.128H64.025C64.857 23.272 66.393 25.32 70.393 25.32C75.065 25.32 77.401 21.512 77.401 16.936C77.401 12.36 75.065 8.52 70.393 8.52C66.393 8.52 64.857 10.568 64.025 12.712H62.745L63.705 9.832V8.84H58.585ZM63.705 16.936C63.705 14.184 65.241 13 67.993 13C70.745 13 72.281 14.184 72.281 16.936C72.281 19.688 70.745 20.84 67.993 20.84C65.241 20.84 63.705 19.688 63.705 16.936ZM79.6563 16.904C79.6563 22.568 83.6883 25.32 88.7763 25.32C93.8323 25.32 97.8643 22.568 97.8643 16.904C97.8643 11.272 93.8323 8.52 88.7763 8.52C83.6883 8.52 79.6563 11.272 79.6563 16.904ZM84.7763 16.904C84.7763 14.216 86.3443 13 88.7763 13C91.1763 13 92.7443 14.216 92.7443 16.904C92.7443 19.624 91.1763 20.84 88.7763 20.84C86.3443 20.84 84.7763 19.624 84.7763 16.904ZM115.277 0.872H111.437C111.437 3.112 110.669 3.72 109.421 3.72C108.173 3.72 107.405 3.112 107.405 0.872H103.565C103.565 4.136 105.101 7.24 109.421 7.24C113.741 7.24 115.277 4.136 115.277 0.872ZM118.733 25V8.84H108.717L105.229 23.72H103.949L104.909 20.84V8.84H99.7888V25H109.805L113.293 10.12H114.573L113.613 12.84V25H118.733ZM138.306 8.52C133.89 8.52 129.858 10.92 129.634 15.528H134.754C134.946 14.088 136.258 13 138.306 13C140.162 13 141.346 13.832 141.794 15.304H136.994V18.504H141.794C141.346 20.008 140.162 20.84 138.306 20.84C136.258 20.84 134.946 19.752 134.754 18.312H129.634C129.858 22.92 133.89 25.32 138.306 25.32C143.458 25.32 147.138 22.312 147.138 16.904C147.138 11.528 143.458 8.52 138.306 8.52ZM165.062 8.84H147.782V13.32H153.862V25H158.982V13.32H165.062V8.84ZM166.009 20.584C166.009 22.248 166.873 25.32 171.897 25.32C176.409 25.32 177.977 23.048 178.585 20.36H179.865L179.065 22.28V22.6C179.065 24.136 179.929 25 181.465 25H185.017V20.52H182.681V15.976C182.681 10.664 178.777 8.52 174.329 8.52C169.817 8.52 166.329 10.92 166.329 15.016H171.129C171.129 13.544 172.281 12.68 174.329 12.68C176.537 12.68 177.561 13.48 177.561 14.792L172.473 15.496C167.673 16.168 166.009 17.8 166.009 20.584ZM171.129 19.624C171.129 18.696 171.897 18.472 173.433 18.248L177.561 17.672C177.561 19.656 175.705 20.84 172.889 20.84C172.025 20.84 171.129 20.552 171.129 19.624ZM203.378 8.84H186.93V25H192.05V13.32H198.258V25H203.378V8.84Z" fill="white"/>
</svg>
