<svg width="146" height="44" viewBox="0 0 146 44" fill="none" xmlns="http://www.w3.org/2000/svg">
<path d="M22 44C7.33333 44 0 35.619 0 22C0 8.38095 7.33333 0 22 0C36.6667 0 44 8.38095 44 22C44 35.619 36.6667 44 22 44Z" fill="white"/>
<path d="M18.9543 23.7255V35.0493H23.4326V23.7255H27.2712L27.847 19.3751H23.4326V16.6241C23.4326 15.9844 23.5606 15.4726 23.8165 15.0887C24.1364 14.7048 24.7122 14.5129 25.5438 14.5129H27.847V10.6744C26.9513 10.5464 25.7997 10.4824 24.5202 10.4824C22.7929 10.4824 21.4494 10.9942 20.4258 12.0178C19.4021 13.0415 18.9543 14.385 18.9543 16.1763V19.3751H15.0518V23.7255H18.9543Z" fill="black"/>
<path d="M73 44C58.3333 44 51 35.619 51 22C51 8.38095 58.3333 0 73 0C87.6667 0 95 8.38095 95 22C95 35.619 87.6667 44 73 44Z" fill="#FFC100"/>
<path d="M69.9543 23.7255V35.0493H74.4326V23.7255H78.2712L78.847 19.3751H74.4326V16.6241C74.4326 15.9844 74.5606 15.4726 74.8165 15.0887C75.1364 14.7048 75.7122 14.5129 76.5438 14.5129H78.847V10.6744C77.9513 10.5464 76.7997 10.4824 75.5202 10.4824C73.7929 10.4824 72.4494 10.9942 71.4258 12.0178C70.4021 13.0415 69.9543 14.385 69.9543 16.1763V19.3751H66.0518V23.7255H69.9543Z" fill="black"/>
<path d="M124 44C109.333 44 102 35.619 102 22C102 8.38095 109.333 0 124 0C138.667 0 146 8.38095 146 22C146 35.619 138.667 44 124 44Z" fill="#FFC100"/>
<path d="M120.954 23.7255V35.0493H125.433V23.7255H129.271L129.847 19.3751H125.433V16.6241C125.433 15.9844 125.561 15.4726 125.816 15.0887C126.136 14.7048 126.712 14.5129 127.544 14.5129H129.847V10.6744C128.951 10.5464 127.8 10.4824 126.52 10.4824C124.793 10.4824 123.449 10.9942 122.426 12.0178C121.402 13.0415 120.954 14.385 120.954 16.1763V19.3751H117.052V23.7255H120.954Z" fill="white"/>
</svg>
