<svg width="45" height="45" viewBox="0 0 45 45" fill="none" xmlns="http://www.w3.org/2000/svg">
<path d="M22.1637 44.4914C7.38789 44.4914 0 36.0481 0 22.3278C0 8.60737 7.38789 0.164062 22.1637 0.164062C36.9395 0.164063 44.3274 8.60737 44.3274 22.3278C44.3274 36.0481 36.9395 44.4914 22.1637 44.4914Z" fill="#FFBE00"/>
<path d="M19.0847 24.0531V35.455H23.5939V24.0531H27.459L28.0387 19.6728H23.5939V16.9028C23.5939 16.2586 23.7228 15.7433 23.9804 15.3568C24.3025 14.9703 24.8823 14.777 25.7197 14.777H28.0387V10.912C27.1369 10.7832 25.9774 10.7188 24.689 10.7188C22.9498 10.7188 21.597 11.2341 20.5663 12.2648C19.5357 13.2954 19.0847 14.6482 19.0847 16.4519V19.6728H15.1553V24.0531H19.0847Z" fill="white"/>
</svg>
