<svg width="1067" height="529" viewBox="0 0 1067 529" fill="none" xmlns="http://www.w3.org/2000/svg">
<rect width="1067" height="529" fill="black"/>
<rect width="232" height="56" transform="translate(161 173)" fill="#F3F0F0"/>
<rect x="161" y="173" width="232" height="56" fill="#FFC100"/>
<path d="M228.1 198.146C228.1 200.722 227.34 202.858 225.82 204.554C224.316 206.234 222.3 207.074 219.772 207.074C217.164 207.074 215.084 206.242 213.532 204.578C211.98 202.914 211.204 200.762 211.204 198.122C211.204 195.546 211.988 193.41 213.556 191.714C215.14 190.018 217.196 189.17 219.724 189.17C222.268 189.17 224.3 189.986 225.82 191.618C227.34 193.234 228.1 195.41 228.1 198.146ZM223.54 198.002C223.54 196.386 223.196 195.114 222.508 194.186C221.82 193.258 220.876 192.794 219.676 192.794C218.476 192.794 217.524 193.274 216.82 194.234C216.116 195.178 215.764 196.458 215.764 198.074C215.764 199.738 216.108 201.042 216.796 201.986C217.5 202.93 218.468 203.402 219.7 203.402C220.916 203.402 221.86 202.93 222.532 201.986C223.204 201.042 223.54 199.714 223.54 198.002ZM237.468 197.378V206.666H233.388V197.378H229.308V194.282H241.548V197.378H237.468ZM255.614 194.282V206.666H251.534V197.378H247.358V206.666H243.278V194.282H255.614ZM262.26 194.282V195.722C263.124 194.554 264.332 193.97 265.884 193.97C267.516 193.97 268.828 194.57 269.82 195.77C270.812 196.97 271.308 198.562 271.308 200.546C271.308 202.498 270.828 204.058 269.868 205.226C268.908 206.394 267.628 206.978 266.028 206.978C264.54 206.978 263.34 206.402 262.428 205.25V210.866H258.372V194.282H262.26ZM264.708 197.21C263.956 197.21 263.364 197.506 262.932 198.098C262.5 198.69 262.284 199.498 262.284 200.522C262.284 201.578 262.5 202.394 262.932 202.97C263.364 203.546 263.98 203.834 264.78 203.834C265.564 203.834 266.164 203.554 266.58 202.994C267.012 202.434 267.228 201.634 267.228 200.594C267.228 199.49 267.012 198.65 266.58 198.074C266.148 197.498 265.524 197.21 264.708 197.21ZM285.513 206.666H281.385C281.273 206.314 281.209 205.922 281.193 205.49C280.057 206.53 278.689 207.05 277.089 207.05C275.745 207.05 274.681 206.714 273.897 206.042C273.129 205.354 272.745 204.418 272.745 203.234C272.745 202.642 272.849 202.122 273.057 201.674C273.265 201.226 273.505 200.882 273.777 200.642C274.049 200.386 274.449 200.162 274.977 199.97C275.505 199.778 275.953 199.65 276.321 199.586C276.689 199.506 277.201 199.418 277.857 199.322C279.409 199.082 280.281 198.922 280.473 198.842C280.905 198.666 281.121 198.33 281.121 197.834C281.121 196.954 280.489 196.514 279.225 196.514C278.569 196.514 278.089 196.618 277.785 196.826C277.497 197.034 277.281 197.45 277.137 198.074H273.297C273.553 195.306 275.545 193.922 279.273 193.922C281.273 193.922 282.793 194.298 283.833 195.05C284.297 195.386 284.609 195.778 284.769 196.226C284.945 196.674 285.033 197.314 285.033 198.146V203.114C285.033 204.746 285.193 205.93 285.513 206.666ZM281.121 200.858C280.929 200.954 280.705 201.042 280.449 201.122C280.193 201.202 279.985 201.258 279.825 201.29C279.681 201.322 279.433 201.378 279.081 201.458C278.745 201.522 278.529 201.562 278.433 201.578C277.425 201.786 276.921 202.29 276.921 203.09C276.921 203.554 277.065 203.914 277.353 204.17C277.641 204.426 278.033 204.554 278.529 204.554C279.249 204.554 279.857 204.346 280.353 203.93C280.865 203.498 281.121 202.898 281.121 202.13V200.858ZM287.787 206.666V194.282H295.587C296.755 194.282 297.707 194.53 298.443 195.026C299.195 195.522 299.571 196.314 299.571 197.402C299.571 198.49 299.035 199.322 297.963 199.898C299.451 200.378 300.195 201.394 300.195 202.946C300.195 204.114 299.787 205.042 298.971 205.73C298.491 206.146 297.979 206.41 297.435 206.522C296.907 206.618 296.219 206.666 295.371 206.666H287.787ZM291.723 199.154H293.907C294.979 199.154 295.515 198.754 295.515 197.954C295.515 197.154 294.955 196.754 293.835 196.754H291.723V199.154ZM291.723 204.098H294.171C294.747 204.098 295.195 204.002 295.515 203.81C295.835 203.618 295.995 203.25 295.995 202.706C295.995 201.746 295.355 201.266 294.075 201.266H291.723V204.098ZM314.747 206.666H310.787L310.907 198.938L306.971 206.666H302.411V194.282H306.371L306.251 202.01L310.163 194.282H314.747V206.666ZM324.608 197.378V206.666H320.528V197.378H316.448V194.282H328.688V197.378H324.608ZM337.283 206.666H330.419V194.282H334.451V198.314H337.427C338.979 198.314 340.179 198.666 341.027 199.37C341.891 200.074 342.323 201.106 342.323 202.466C342.323 203.858 341.883 204.906 341.003 205.61C340.139 206.314 338.899 206.666 337.283 206.666ZM336.443 201.146H334.451V203.762H336.467C337.603 203.762 338.171 203.33 338.171 202.466C338.171 201.586 337.595 201.146 336.443 201.146Z" fill="black"/>
<rect width="232" height="56" transform="translate(410 173)" fill="#F3F0F0"/>
<rect x="410" y="173" width="232" height="56" fill="#F0B600"/>
<path d="M477.1 198.146C477.1 200.722 476.34 202.858 474.82 204.554C473.316 206.234 471.3 207.074 468.772 207.074C466.164 207.074 464.084 206.242 462.532 204.578C460.98 202.914 460.204 200.762 460.204 198.122C460.204 195.546 460.988 193.41 462.556 191.714C464.14 190.018 466.196 189.17 468.724 189.17C471.268 189.17 473.3 189.986 474.82 191.618C476.34 193.234 477.1 195.41 477.1 198.146ZM472.54 198.002C472.54 196.386 472.196 195.114 471.508 194.186C470.82 193.258 469.876 192.794 468.676 192.794C467.476 192.794 466.524 193.274 465.82 194.234C465.116 195.178 464.764 196.458 464.764 198.074C464.764 199.738 465.108 201.042 465.796 201.986C466.5 202.93 467.468 203.402 468.7 203.402C469.916 203.402 470.86 202.93 471.532 201.986C472.204 201.042 472.54 199.714 472.54 198.002ZM486.468 197.378V206.666H482.388V197.378H478.308V194.282H490.548V197.378H486.468ZM504.614 194.282V206.666H500.534V197.378H496.358V206.666H492.278V194.282H504.614ZM511.26 194.282V195.722C512.124 194.554 513.332 193.97 514.884 193.97C516.516 193.97 517.828 194.57 518.82 195.77C519.812 196.97 520.308 198.562 520.308 200.546C520.308 202.498 519.828 204.058 518.868 205.226C517.908 206.394 516.628 206.978 515.028 206.978C513.54 206.978 512.34 206.402 511.428 205.25V210.866H507.372V194.282H511.26ZM513.708 197.21C512.956 197.21 512.364 197.506 511.932 198.098C511.5 198.69 511.284 199.498 511.284 200.522C511.284 201.578 511.5 202.394 511.932 202.97C512.364 203.546 512.98 203.834 513.78 203.834C514.564 203.834 515.164 203.554 515.58 202.994C516.012 202.434 516.228 201.634 516.228 200.594C516.228 199.49 516.012 198.65 515.58 198.074C515.148 197.498 514.524 197.21 513.708 197.21ZM534.513 206.666H530.385C530.273 206.314 530.209 205.922 530.193 205.49C529.057 206.53 527.689 207.05 526.089 207.05C524.745 207.05 523.681 206.714 522.897 206.042C522.129 205.354 521.745 204.418 521.745 203.234C521.745 202.642 521.849 202.122 522.057 201.674C522.265 201.226 522.505 200.882 522.777 200.642C523.049 200.386 523.449 200.162 523.977 199.97C524.505 199.778 524.953 199.65 525.321 199.586C525.689 199.506 526.201 199.418 526.857 199.322C528.409 199.082 529.281 198.922 529.473 198.842C529.905 198.666 530.121 198.33 530.121 197.834C530.121 196.954 529.489 196.514 528.225 196.514C527.569 196.514 527.089 196.618 526.785 196.826C526.497 197.034 526.281 197.45 526.137 198.074H522.297C522.553 195.306 524.545 193.922 528.273 193.922C530.273 193.922 531.793 194.298 532.833 195.05C533.297 195.386 533.609 195.778 533.769 196.226C533.945 196.674 534.033 197.314 534.033 198.146V203.114C534.033 204.746 534.193 205.93 534.513 206.666ZM530.121 200.858C529.929 200.954 529.705 201.042 529.449 201.122C529.193 201.202 528.985 201.258 528.825 201.29C528.681 201.322 528.433 201.378 528.081 201.458C527.745 201.522 527.529 201.562 527.433 201.578C526.425 201.786 525.921 202.29 525.921 203.09C525.921 203.554 526.065 203.914 526.353 204.17C526.641 204.426 527.033 204.554 527.529 204.554C528.249 204.554 528.857 204.346 529.353 203.93C529.865 203.498 530.121 202.898 530.121 202.13V200.858ZM536.787 206.666V194.282H544.587C545.755 194.282 546.707 194.53 547.443 195.026C548.195 195.522 548.571 196.314 548.571 197.402C548.571 198.49 548.035 199.322 546.963 199.898C548.451 200.378 549.195 201.394 549.195 202.946C549.195 204.114 548.787 205.042 547.971 205.73C547.491 206.146 546.979 206.41 546.435 206.522C545.907 206.618 545.219 206.666 544.371 206.666H536.787ZM540.723 199.154H542.907C543.979 199.154 544.515 198.754 544.515 197.954C544.515 197.154 543.955 196.754 542.835 196.754H540.723V199.154ZM540.723 204.098H543.171C543.747 204.098 544.195 204.002 544.515 203.81C544.835 203.618 544.995 203.25 544.995 202.706C544.995 201.746 544.355 201.266 543.075 201.266H540.723V204.098ZM563.747 206.666H559.787L559.907 198.938L555.971 206.666H551.411V194.282H555.371L555.251 202.01L559.163 194.282H563.747V206.666ZM573.608 197.378V206.666H569.528V197.378H565.448V194.282H577.688V197.378H573.608ZM586.283 206.666H579.419V194.282H583.451V198.314H586.427C587.979 198.314 589.179 198.666 590.027 199.37C590.891 200.074 591.323 201.106 591.323 202.466C591.323 203.858 590.883 204.906 590.003 205.61C589.139 206.314 587.899 206.666 586.283 206.666ZM585.443 201.146H583.451V203.762H585.467C586.603 203.762 587.171 203.33 587.171 202.466C587.171 201.586 586.595 201.146 585.443 201.146Z" fill="black"/>
<rect width="232" height="56" transform="translate(161 260)" fill="#F3F0F0"/>
<rect x="161" y="260" width="232" height="56" fill="#FFCB2B"/>
<path d="M228.1 285.146C228.1 287.722 227.34 289.858 225.82 291.554C224.316 293.234 222.3 294.074 219.772 294.074C217.164 294.074 215.084 293.242 213.532 291.578C211.98 289.914 211.204 287.762 211.204 285.122C211.204 282.546 211.988 280.41 213.556 278.714C215.14 277.018 217.196 276.17 219.724 276.17C222.268 276.17 224.3 276.986 225.82 278.618C227.34 280.234 228.1 282.41 228.1 285.146ZM223.54 285.002C223.54 283.386 223.196 282.114 222.508 281.186C221.82 280.258 220.876 279.794 219.676 279.794C218.476 279.794 217.524 280.274 216.82 281.234C216.116 282.178 215.764 283.458 215.764 285.074C215.764 286.738 216.108 288.042 216.796 288.986C217.5 289.93 218.468 290.402 219.7 290.402C220.916 290.402 221.86 289.93 222.532 288.986C223.204 288.042 223.54 286.714 223.54 285.002ZM237.468 284.378V293.666H233.388V284.378H229.308V281.282H241.548V284.378H237.468ZM255.614 281.282V293.666H251.534V284.378H247.358V293.666H243.278V281.282H255.614ZM262.26 281.282V282.722C263.124 281.554 264.332 280.97 265.884 280.97C267.516 280.97 268.828 281.57 269.82 282.77C270.812 283.97 271.308 285.562 271.308 287.546C271.308 289.498 270.828 291.058 269.868 292.226C268.908 293.394 267.628 293.978 266.028 293.978C264.54 293.978 263.34 293.402 262.428 292.25V297.866H258.372V281.282H262.26ZM264.708 284.21C263.956 284.21 263.364 284.506 262.932 285.098C262.5 285.69 262.284 286.498 262.284 287.522C262.284 288.578 262.5 289.394 262.932 289.97C263.364 290.546 263.98 290.834 264.78 290.834C265.564 290.834 266.164 290.554 266.58 289.994C267.012 289.434 267.228 288.634 267.228 287.594C267.228 286.49 267.012 285.65 266.58 285.074C266.148 284.498 265.524 284.21 264.708 284.21ZM285.513 293.666H281.385C281.273 293.314 281.209 292.922 281.193 292.49C280.057 293.53 278.689 294.05 277.089 294.05C275.745 294.05 274.681 293.714 273.897 293.042C273.129 292.354 272.745 291.418 272.745 290.234C272.745 289.642 272.849 289.122 273.057 288.674C273.265 288.226 273.505 287.882 273.777 287.642C274.049 287.386 274.449 287.162 274.977 286.97C275.505 286.778 275.953 286.65 276.321 286.586C276.689 286.506 277.201 286.418 277.857 286.322C279.409 286.082 280.281 285.922 280.473 285.842C280.905 285.666 281.121 285.33 281.121 284.834C281.121 283.954 280.489 283.514 279.225 283.514C278.569 283.514 278.089 283.618 277.785 283.826C277.497 284.034 277.281 284.45 277.137 285.074H273.297C273.553 282.306 275.545 280.922 279.273 280.922C281.273 280.922 282.793 281.298 283.833 282.05C284.297 282.386 284.609 282.778 284.769 283.226C284.945 283.674 285.033 284.314 285.033 285.146V290.114C285.033 291.746 285.193 292.93 285.513 293.666ZM281.121 287.858C280.929 287.954 280.705 288.042 280.449 288.122C280.193 288.202 279.985 288.258 279.825 288.29C279.681 288.322 279.433 288.378 279.081 288.458C278.745 288.522 278.529 288.562 278.433 288.578C277.425 288.786 276.921 289.29 276.921 290.09C276.921 290.554 277.065 290.914 277.353 291.17C277.641 291.426 278.033 291.554 278.529 291.554C279.249 291.554 279.857 291.346 280.353 290.93C280.865 290.498 281.121 289.898 281.121 289.13V287.858ZM287.787 293.666V281.282H295.587C296.755 281.282 297.707 281.53 298.443 282.026C299.195 282.522 299.571 283.314 299.571 284.402C299.571 285.49 299.035 286.322 297.963 286.898C299.451 287.378 300.195 288.394 300.195 289.946C300.195 291.114 299.787 292.042 298.971 292.73C298.491 293.146 297.979 293.41 297.435 293.522C296.907 293.618 296.219 293.666 295.371 293.666H287.787ZM291.723 286.154H293.907C294.979 286.154 295.515 285.754 295.515 284.954C295.515 284.154 294.955 283.754 293.835 283.754H291.723V286.154ZM291.723 291.098H294.171C294.747 291.098 295.195 291.002 295.515 290.81C295.835 290.618 295.995 290.25 295.995 289.706C295.995 288.746 295.355 288.266 294.075 288.266H291.723V291.098ZM314.747 293.666H310.787L310.907 285.938L306.971 293.666H302.411V281.282H306.371L306.251 289.01L310.163 281.282H314.747V293.666ZM324.608 284.378V293.666H320.528V284.378H316.448V281.282H328.688V284.378H324.608ZM337.283 293.666H330.419V281.282H334.451V285.314H337.427C338.979 285.314 340.179 285.666 341.027 286.37C341.891 287.074 342.323 288.106 342.323 289.466C342.323 290.858 341.883 291.906 341.003 292.61C340.139 293.314 338.899 293.666 337.283 293.666ZM336.443 288.146H334.451V290.762H336.467C337.603 290.762 338.171 290.33 338.171 289.466C338.171 288.586 337.595 288.146 336.443 288.146Z" fill="black"/>
<rect width="232" height="56" transform="translate(659 173)" fill="#F3F0F0"/>
<rect x="659" y="173" width="232" height="56" fill="#E1AA00"/>
<path d="M726.1 198.146C726.1 200.722 725.34 202.858 723.82 204.554C722.316 206.234 720.3 207.074 717.772 207.074C715.164 207.074 713.084 206.242 711.532 204.578C709.98 202.914 709.204 200.762 709.204 198.122C709.204 195.546 709.988 193.41 711.556 191.714C713.14 190.018 715.196 189.17 717.724 189.17C720.268 189.17 722.3 189.986 723.82 191.618C725.34 193.234 726.1 195.41 726.1 198.146ZM721.54 198.002C721.54 196.386 721.196 195.114 720.508 194.186C719.82 193.258 718.876 192.794 717.676 192.794C716.476 192.794 715.524 193.274 714.82 194.234C714.116 195.178 713.764 196.458 713.764 198.074C713.764 199.738 714.108 201.042 714.796 201.986C715.5 202.93 716.468 203.402 717.7 203.402C718.916 203.402 719.86 202.93 720.532 201.986C721.204 201.042 721.54 199.714 721.54 198.002ZM735.468 197.378V206.666H731.388V197.378H727.308V194.282H739.548V197.378H735.468ZM753.614 194.282V206.666H749.534V197.378H745.358V206.666H741.278V194.282H753.614ZM760.26 194.282V195.722C761.124 194.554 762.332 193.97 763.884 193.97C765.516 193.97 766.828 194.57 767.82 195.77C768.812 196.97 769.308 198.562 769.308 200.546C769.308 202.498 768.828 204.058 767.868 205.226C766.908 206.394 765.628 206.978 764.028 206.978C762.54 206.978 761.34 206.402 760.428 205.25V210.866H756.372V194.282H760.26ZM762.708 197.21C761.956 197.21 761.364 197.506 760.932 198.098C760.5 198.69 760.284 199.498 760.284 200.522C760.284 201.578 760.5 202.394 760.932 202.97C761.364 203.546 761.98 203.834 762.78 203.834C763.564 203.834 764.164 203.554 764.58 202.994C765.012 202.434 765.228 201.634 765.228 200.594C765.228 199.49 765.012 198.65 764.58 198.074C764.148 197.498 763.524 197.21 762.708 197.21ZM783.513 206.666H779.385C779.273 206.314 779.209 205.922 779.193 205.49C778.057 206.53 776.689 207.05 775.089 207.05C773.745 207.05 772.681 206.714 771.897 206.042C771.129 205.354 770.745 204.418 770.745 203.234C770.745 202.642 770.849 202.122 771.057 201.674C771.265 201.226 771.505 200.882 771.777 200.642C772.049 200.386 772.449 200.162 772.977 199.97C773.505 199.778 773.953 199.65 774.321 199.586C774.689 199.506 775.201 199.418 775.857 199.322C777.409 199.082 778.281 198.922 778.473 198.842C778.905 198.666 779.121 198.33 779.121 197.834C779.121 196.954 778.489 196.514 777.225 196.514C776.569 196.514 776.089 196.618 775.785 196.826C775.497 197.034 775.281 197.45 775.137 198.074H771.297C771.553 195.306 773.545 193.922 777.273 193.922C779.273 193.922 780.793 194.298 781.833 195.05C782.297 195.386 782.609 195.778 782.769 196.226C782.945 196.674 783.033 197.314 783.033 198.146V203.114C783.033 204.746 783.193 205.93 783.513 206.666ZM779.121 200.858C778.929 200.954 778.705 201.042 778.449 201.122C778.193 201.202 777.985 201.258 777.825 201.29C777.681 201.322 777.433 201.378 777.081 201.458C776.745 201.522 776.529 201.562 776.433 201.578C775.425 201.786 774.921 202.29 774.921 203.09C774.921 203.554 775.065 203.914 775.353 204.17C775.641 204.426 776.033 204.554 776.529 204.554C777.249 204.554 777.857 204.346 778.353 203.93C778.865 203.498 779.121 202.898 779.121 202.13V200.858ZM785.787 206.666V194.282H793.587C794.755 194.282 795.707 194.53 796.443 195.026C797.195 195.522 797.571 196.314 797.571 197.402C797.571 198.49 797.035 199.322 795.963 199.898C797.451 200.378 798.195 201.394 798.195 202.946C798.195 204.114 797.787 205.042 796.971 205.73C796.491 206.146 795.979 206.41 795.435 206.522C794.907 206.618 794.219 206.666 793.371 206.666H785.787ZM789.723 199.154H791.907C792.979 199.154 793.515 198.754 793.515 197.954C793.515 197.154 792.955 196.754 791.835 196.754H789.723V199.154ZM789.723 204.098H792.171C792.747 204.098 793.195 204.002 793.515 203.81C793.835 203.618 793.995 203.25 793.995 202.706C793.995 201.746 793.355 201.266 792.075 201.266H789.723V204.098ZM812.747 206.666H808.787L808.907 198.938L804.971 206.666H800.411V194.282H804.371L804.251 202.01L808.163 194.282H812.747V206.666ZM822.608 197.378V206.666H818.528V197.378H814.448V194.282H826.688V197.378H822.608ZM835.283 206.666H828.419V194.282H832.451V198.314H835.427C836.979 198.314 838.179 198.666 839.027 199.37C839.891 200.074 840.323 201.106 840.323 202.466C840.323 203.858 839.883 204.906 839.003 205.61C838.139 206.314 836.899 206.666 835.283 206.666ZM834.443 201.146H832.451V203.762H834.467C835.603 203.762 836.171 203.33 836.171 202.466C836.171 201.586 835.595 201.146 834.443 201.146Z" fill="black"/>
<path d="M433 316H438.484L455 293H449.516L433 316Z" fill="#FFBE00"/>
<path d="M455 316H460.484L477 293H471.516L455 316Z" fill="#FFBE00"/>
<path d="M455 316H460.484L477 293H471.516L455 316Z" fill="white"/>
</svg>
