<svg width="36" height="42" viewBox="0 0 36 42" fill="none" xmlns="http://www.w3.org/2000/svg">
<path d="M27.5961 6.0001C23.9211 4.9251 21.5461 3.8501 20.4711 2.7751C20.2461 2.6751 20.1336 2.4501 20.1336 2.1001C20.1336 1.8751 20.2086 1.6626 20.3586 1.4626C20.5336 1.3626 20.7211 1.3126 20.9211 1.3126L22.1586 1.4626C23.8336 1.8876 25.4211 2.1001 26.9211 2.1001C29.1211 2.1001 30.7336 1.9376 31.7586 1.6126C32.6086 1.3126 33.2211 1.1626 33.5961 1.1626C33.9461 1.1626 34.1211 1.3376 34.1211 1.6876L33.9711 2.7001C33.5711 4.1751 33.3711 6.1501 33.3711 8.6251C33.3711 10.5501 33.5211 12.1626 33.8211 13.4626L33.9711 14.6626C33.9711 14.8876 33.9211 15.0751 33.8211 15.2251L33.2961 15.4501C32.7711 15.4501 32.2711 15.0376 31.7961 14.2126C31.3461 13.3876 30.8961 12.4126 30.4461 11.2876C30.0211 10.1626 29.6336 8.9876 29.2836 7.7626L20.4711 16.6876C22.5711 18.7376 23.6211 21.1126 23.6211 23.8126C23.6211 26.9376 22.5086 29.5876 20.2836 31.7626C18.0836 33.9376 15.5586 35.0251 12.7086 35.0251C9.78359 35.0251 7.24609 34.0001 5.09609 31.9501C2.94609 29.9001 1.87109 27.3626 1.87109 24.3376C1.87109 21.3376 2.92109 18.7751 5.02109 16.6501C7.12109 14.5251 9.70859 13.4626 12.7836 13.4626C14.5086 13.4626 16.4211 14.0001 18.5211 15.0751L27.5961 6.0001ZM12.7836 16.2751C10.5336 16.2751 8.63359 17.0376 7.08359 18.5626C5.55859 20.0626 4.79609 21.9376 4.79609 24.1876C4.79609 26.5626 5.57109 28.4876 7.12109 29.9626C8.69609 31.4376 10.5836 32.1751 12.7836 32.1751C14.9836 32.1751 16.8461 31.4001 18.3711 29.8501C19.9211 28.2751 20.6961 26.3876 20.6961 24.1876C20.6961 21.9876 19.9086 20.1251 18.3336 18.6001C16.7836 17.0501 14.9336 16.2751 12.7836 16.2751Z" fill="white"/>
</svg>
