<svg width="24" height="41" viewBox="0 0 24 41" fill="none" xmlns="http://www.w3.org/2000/svg">
<path d="M10.6125 21.7251C7.7875 21.2751 5.5125 20.0376 3.7875 18.0126C2.0875 15.9876 1.2375 13.6751 1.2375 11.0751C1.2375 7.9501 2.325 5.3501 4.5 3.2751C6.675 1.2001 9.175 0.162598 12 0.162598C14.975 0.162598 17.5125 1.2376 19.6125 3.3876C21.7625 5.4876 22.8375 8.0501 22.8375 11.0751C22.8375 13.7751 21.925 16.1376 20.1 18.1626C18.275 20.1876 16.0625 21.3751 13.4625 21.7251V27.9501H23.0625V30.5751H13.4625V40.4001H10.6125V30.5751H0.9375V27.9501H10.6125V21.7251ZM12 3.3126C9.8 3.3126 7.95 4.0626 6.45 5.5626C4.975 7.0626 4.2375 8.8751 4.2375 11.0001C4.2375 13.1501 5 14.9876 6.525 16.5126C8.075 18.0126 9.9 18.7626 12 18.7626C14.15 18.7626 15.9625 17.9876 17.4375 16.4376C18.9875 14.9126 19.7625 13.1001 19.7625 11.0001C19.7625 8.8501 19.0125 7.0376 17.5125 5.5626C16.0375 4.0626 14.2 3.3126 12 3.3126Z" fill="white"/>
</svg>
