<svg width="137" height="248" viewBox="0 0 137 248" fill="none" xmlns="http://www.w3.org/2000/svg">
<path opacity="0.1" d="M59.6265 132.623C42.2653 129.833 28.2914 122.207 17.7049 109.746C7.27201 97.2841 2.06639 83.0623 2.08802 67.0804C2.11401 47.8714 8.82037 31.8985 22.2071 19.1618C35.5939 6.42512 50.9697 0.0685153 68.3347 0.0920122C86.6216 0.116757 102.21 6.74577 115.101 19.979C128.299 32.9054 134.886 48.6657 134.861 67.2601C134.838 83.8567 129.21 98.3711 117.975 110.803C106.74 123.236 93.13 130.517 77.1451 132.646L77.0934 170.911L136.103 170.991L136.082 187.126L77.0715 187.046L76.9898 247.44L59.4712 247.416L59.5529 187.023L0.0817611 186.942L0.103595 170.807L59.5747 170.887L59.6265 132.623ZM68.3085 19.4547C54.7853 19.4364 43.4073 24.0312 34.1745 33.239C25.0954 42.4471 20.547 53.5822 20.5293 66.6443C20.5114 79.8601 25.1831 91.1614 34.5445 100.548C44.0597 109.781 55.2715 114.407 68.1799 114.424C81.3958 114.442 92.5434 109.693 101.623 100.178C111.163 90.8167 115.942 79.6819 115.96 66.7735C115.978 53.5577 111.383 42.4102 102.174 33.3311C93.1203 24.0985 81.8316 19.473 68.3085 19.4547Z" fill="white"/>
</svg>
