<svg width="199" height="210" viewBox="0 0 199 210" fill="none" xmlns="http://www.w3.org/2000/svg">
<path opacity="0.1" d="M158.737 29.9026C136.06 23.2576 121.405 16.6126 114.772 9.96755C113.384 9.34941 112.69 7.95858 112.69 5.79509C112.69 4.40427 113.152 3.09071 114.078 1.85443C115.158 1.23629 116.315 0.927214 117.549 0.927214L125.185 1.85443C135.521 4.48153 145.316 5.79509 154.572 5.79509C168.147 5.79509 178.097 4.7906 184.422 2.78164C189.667 0.927214 193.447 0 195.76 0C197.92 0 199 1.08175 199 3.24525L198.074 9.50394C195.606 18.6215 194.372 30.8299 194.372 46.1289C194.372 58.0281 195.298 67.9957 197.149 76.0315L198.074 83.4492C198.074 84.8401 197.766 85.9991 197.149 86.9263L193.909 88.3171C190.67 88.3171 187.585 85.7673 184.653 80.6676C181.877 75.5679 179.1 69.541 176.323 62.5869C173.701 55.6328 171.31 48.3697 169.15 40.7974L114.772 95.9666C127.73 108.639 134.209 123.319 134.209 140.009C134.209 159.326 127.345 175.707 113.615 189.152C100.04 202.596 84.4593 209.319 66.8733 209.319C48.8244 209.319 33.1667 202.983 19.9 190.311C6.63333 177.639 0 161.953 0 143.255C0 124.71 6.47907 108.87 19.4372 95.7348C32.3954 82.5993 48.3616 76.0315 67.336 76.0315C77.9802 76.0315 89.7814 79.354 102.74 85.9991L158.737 29.9026ZM67.336 93.4168C53.4523 93.4168 41.7283 98.1301 32.164 107.557C22.7539 116.829 18.0488 128.419 18.0488 142.327C18.0488 157.008 22.831 168.907 32.3953 178.025C42.114 187.143 53.7609 191.701 67.336 191.701C80.9112 191.701 92.4039 186.911 101.814 177.33C111.378 167.594 116.16 155.926 116.16 142.327C116.16 128.728 111.301 117.215 101.583 107.789C92.0182 98.2074 80.6027 93.4168 67.336 93.4168Z" fill="white"/>
</svg>
