<svg width="46" height="45" viewBox="0 0 46 45" fill="none" xmlns="http://www.w3.org/2000/svg">
<path d="M22.194 44.4914C7.41817 44.4914 0.0302734 36.0481 0.0302734 22.3278C0.0302734 8.60737 7.41817 0.164062 22.194 0.164062C36.9698 0.164063 44.3577 8.60737 44.3577 22.3278C44.3577 36.0481 36.9698 44.4914 22.194 44.4914Z" fill="#FFBE00"/>
<path d="M22.5506 15.4674C23.6779 15.4674 24.7488 15.8056 25.7634 16.3692C26.778 16.9329 27.5671 17.722 28.1308 18.7366C28.6944 19.7511 29.0326 20.8221 29.0326 21.9494C29.0326 23.133 28.6944 24.204 28.1308 25.2186C27.5671 26.2331 26.778 27.0222 25.7634 27.5859C24.7488 28.1495 23.6779 28.4314 22.5506 28.4314C21.3669 28.4314 20.296 28.1495 19.2814 27.5859C18.2669 27.0222 17.4777 26.2331 16.9141 25.2186C16.3504 24.204 16.0686 23.133 16.0686 21.9494C16.0686 20.8221 16.3504 19.7511 16.9141 18.7366C17.4777 17.722 18.2669 16.9329 19.2814 16.3692C20.296 15.8056 21.3669 15.4674 22.5506 15.4674ZM22.5506 26.1768C23.6779 26.1768 24.6925 25.7822 25.538 24.9367C26.3271 24.1476 26.778 23.133 26.778 21.9494C26.778 20.8221 26.3271 19.8075 25.538 18.962C24.6925 18.1729 23.6779 17.722 22.5506 17.722C21.3669 17.722 20.3524 18.1729 19.5632 18.962C18.7178 19.8075 18.3232 20.8221 18.3232 21.9494C18.3232 23.133 18.7178 24.1476 19.5632 24.9367C20.3524 25.7822 21.3669 26.1768 22.5506 26.1768ZM30.8363 15.1855C30.8363 14.791 30.6672 14.4528 30.3854 14.1146C30.0472 13.8328 29.709 13.6637 29.3144 13.6637C28.8635 13.6637 28.5253 13.8328 28.2435 14.1146C27.9053 14.4528 27.7926 14.791 27.7926 15.1855C27.7926 15.6365 27.9053 15.9747 28.2435 16.2565C28.5253 16.5947 28.8635 16.7074 29.3144 16.7074C29.709 16.7074 30.0472 16.5947 30.329 16.2565C30.6108 15.9747 30.7799 15.6365 30.8363 15.1855ZM35.12 16.7074C35.12 17.7783 35.1764 19.5257 35.1764 21.9494C35.1764 24.4294 35.12 26.1768 35.0637 27.2477C35.0073 28.3186 34.8382 29.2205 34.6128 30.0096C34.2746 30.9678 33.7109 31.8133 33.0345 32.4897C32.3581 33.166 31.5127 33.6733 30.6108 34.0115C29.8217 34.2933 28.8635 34.4624 27.7926 34.5188C26.7216 34.5752 24.9743 34.5752 22.5506 34.5752C20.0705 34.5752 18.3232 34.5752 17.2523 34.5188C16.1813 34.4624 15.2795 34.2933 14.4904 33.9552C13.5322 33.6733 12.6867 33.166 12.0103 32.4897C11.3339 31.8133 10.8266 30.9678 10.4885 30.0096C10.2066 29.2205 10.0375 28.3186 9.98117 27.2477C9.9248 26.1768 9.9248 24.4294 9.9248 21.9494C9.9248 19.5257 9.9248 17.7783 9.98117 16.7074C10.0375 15.6365 10.2066 14.6783 10.4885 13.8892C10.8266 12.9873 11.3339 12.1418 12.0103 11.4654C12.6867 10.7891 13.5322 10.2254 14.4904 9.88722C15.2795 9.66176 16.1813 9.49267 17.2523 9.4363C18.3232 9.37994 20.0705 9.32357 22.5506 9.32357C24.9743 9.32357 26.7216 9.37994 27.7926 9.4363C28.8635 9.49267 29.8217 9.66176 30.6108 9.88722C31.5127 10.2254 32.3581 10.7891 33.0345 11.4654C33.7109 12.1418 34.2746 12.9873 34.6128 13.8892C34.8382 14.6783 35.0073 15.6365 35.12 16.7074ZM32.4145 29.3896C32.64 28.7696 32.7527 27.755 32.8654 26.3459C32.8654 25.5567 32.9218 24.3731 32.9218 22.8512V21.0475C32.9218 19.5257 32.8654 18.342 32.8654 17.5529C32.7527 16.1438 32.64 15.1292 32.4145 14.5092C31.9636 13.3819 31.1181 12.5364 29.9908 12.0855C29.3708 11.86 28.3562 11.7473 26.9471 11.6345C26.1016 11.6345 24.9179 11.5782 23.4524 11.5782H21.6488C20.1269 11.5782 18.9432 11.6345 18.1541 11.6345C16.745 11.7473 15.7304 11.86 15.1104 12.0855C13.9267 12.5364 13.1376 13.3819 12.6867 14.5092C12.4612 15.1292 12.2921 16.1438 12.2358 17.5529C12.1794 18.3984 12.1794 19.582 12.1794 21.0475V22.8512C12.1794 24.3731 12.1794 25.5567 12.2358 26.3459C12.2921 27.755 12.4612 28.7696 12.6867 29.3896C13.1376 30.5732 13.9831 31.3624 15.1104 31.8133C15.7304 32.0387 16.745 32.2078 18.1541 32.2642C18.9432 32.3206 20.1269 32.3206 21.6488 32.3206H23.4524C24.9743 32.3206 26.158 32.3206 26.9471 32.2642C28.3562 32.2078 29.3708 32.0387 29.9908 31.8133C31.1181 31.3624 31.9636 30.5169 32.4145 29.3896Z" fill="white"/>
</svg>
