<svg width="938" height="459" viewBox="0 0 938 459" fill="none" xmlns="http://www.w3.org/2000/svg">
<rect x="19.75" y="93.75" width="84.5" height="121.5" fill="black" stroke="white" stroke-width="0.5"/>
<rect x="30" y="105" width="64" height="99" fill="white"/>
<rect x="41" y="116" width="42" height="78" fill="black"/>
<rect x="51" y="127" width="22" height="56" fill="white"/>
<rect x="50.75" y="239.75" width="84.5" height="121.5" fill="black" stroke="white" stroke-width="0.5"/>
<rect x="61" y="251" width="64" height="99" fill="white"/>
<rect x="72" y="262" width="42" height="78" fill="black"/>
<rect x="82" y="273" width="22" height="56" fill="white"/>
<rect x="151.75" y="158.75" width="84.5" height="121.5" fill="black" stroke="white" stroke-width="0.5"/>
<rect x="162" y="170" width="64" height="99" fill="white"/>
<rect x="173" y="181" width="42" height="78" fill="black"/>
<rect x="183" y="192" width="22" height="56" fill="white"/>
<rect x="316.75" y="166.75" width="84.5" height="121.5" fill="black" stroke="white" stroke-width="0.5"/>
<rect x="327" y="178" width="64" height="99" fill="white"/>
<rect x="338" y="189" width="42" height="78" fill="black"/>
<rect x="348" y="200" width="22" height="56" fill="white"/>
<rect x="401.75" y="25.75" width="84.5" height="121.5" fill="black" stroke="white" stroke-width="0.5"/>
<rect x="412" y="37" width="64" height="99" fill="white"/>
<rect x="423" y="48" width="42" height="78" fill="black"/>
<rect x="433" y="59" width="22" height="56" fill="white"/>
<rect x="370.75" y="307.75" width="84.5" height="121.5" fill="black" stroke="white" stroke-width="0.5"/>
<rect x="381" y="319" width="64" height="99" fill="white"/>
<rect x="392" y="330" width="42" height="78" fill="black"/>
<rect x="402" y="341" width="22" height="56" fill="white"/>
<rect x="563.75" y="165.75" width="84.5" height="121.5" fill="black" stroke="white" stroke-width="0.5"/>
<rect x="574" y="177" width="64" height="99" fill="white"/>
<rect x="585" y="188" width="42" height="78" fill="black"/>
<rect x="595" y="199" width="22" height="56" fill="white"/>
<rect x="661.75" y="77.75" width="84.5" height="121.5" fill="black" stroke="white" stroke-width="0.5"/>
<rect x="672" y="89" width="64" height="99" fill="white"/>
<rect x="683" y="100" width="42" height="78" fill="black"/>
<rect x="693" y="111" width="22" height="56" fill="white"/>
<rect x="759.75" y="212.75" width="84.5" height="121.5" fill="black" stroke="white" stroke-width="0.5"/>
<rect x="770" y="224" width="64" height="99" fill="white"/>
<rect x="781" y="235" width="42" height="78" fill="black"/>
<rect x="791" y="246" width="22" height="56" fill="white"/>
<path d="M87.0039 11.625L87.0039 446.982" stroke="#059313" stroke-width="1.00218"/>
<line x1="0.388672" y1="196.554" x2="257.525" y2="196.554" stroke="#059313" stroke-width="1.00218"/>
<path d="M386.914 9.62109L385.525 447.402" stroke="#059313" stroke-width="1.00218"/>
<path d="M445.041 9.62109L443.652 447.402" stroke="#059313" stroke-width="1.00218"/>
<line x1="548.305" y1="184.542" x2="858.31" y2="184.542" stroke="#059313" stroke-width="1.00218"/>
<line x1="548.305" y1="271.05" x2="858.31" y2="271.05" stroke="#059313" stroke-width="1.00218"/>
</svg>
