<svg width="206" height="32" viewBox="0 0 206 32" fill="none" xmlns="http://www.w3.org/2000/svg">
<path d="M1.92 25H10.24C16.128 25 20.832 24.136 20.832 19.016C20.832 14.216 17.184 13.896 13.76 13.768V12.488C16.16 12.296 19.168 12.2 19.168 7.976C19.168 3.528 16.128 2.44 9.856 2.44H1.92V25ZM7.04 11.016V6.92H10.496C12.576 6.92 14.048 6.92 14.048 8.968C14.048 11.016 12.576 11.016 10.496 11.016H7.04ZM7.04 20.52V15.496H10.88C13.92 15.496 15.712 15.496 15.712 18.024C15.712 20.52 13.92 20.52 10.88 20.52H7.04ZM38.4513 8.84H21.1713V13.32H27.2513V25H32.3713V13.32H38.4513V8.84ZM38.4525 16.904C38.4525 22.568 42.4845 25.32 47.5725 25.32C52.6285 25.32 56.6605 22.568 56.6605 16.904C56.6605 11.272 52.6285 8.52 47.5725 8.52C42.4845 8.52 38.4525 11.272 38.4525 16.904ZM43.5725 16.904C43.5725 14.216 45.1405 13 47.5725 13C49.9725 13 51.5405 14.216 51.5405 16.904C51.5405 19.624 49.9725 20.84 47.5725 20.84C45.1405 20.84 43.5725 19.624 43.5725 16.904ZM58.585 8.84V31.08H63.705V24.008L62.745 21.128H64.025C64.857 23.272 66.393 25.32 70.393 25.32C75.065 25.32 77.401 21.512 77.401 16.936C77.401 12.36 75.065 8.52 70.393 8.52C66.393 8.52 64.857 10.568 64.025 12.712H62.745L63.705 9.832V8.84H58.585ZM63.705 16.936C63.705 14.184 65.241 13 67.993 13C70.745 13 72.281 14.184 72.281 16.936C72.281 19.688 70.745 20.84 67.993 20.84C65.241 20.84 63.705 19.688 63.705 16.936ZM79.6563 16.904C79.6563 22.568 83.6883 25.32 88.7763 25.32C93.8323 25.32 97.8643 22.568 97.8643 16.904C97.8643 11.272 93.8323 8.52 88.7763 8.52C83.6883 8.52 79.6563 11.272 79.6563 16.904ZM84.7763 16.904C84.7763 14.216 86.3443 13 88.7763 13C91.1763 13 92.7443 14.216 92.7443 16.904C92.7443 19.624 91.1763 20.84 88.7763 20.84C86.3443 20.84 84.7763 19.624 84.7763 16.904ZM115.277 0.872H111.437C111.437 3.112 110.669 3.72 109.421 3.72C108.173 3.72 107.405 3.112 107.405 0.872H103.565C103.565 4.136 105.101 7.24 109.421 7.24C113.741 7.24 115.277 4.136 115.277 0.872ZM118.733 25V8.84H108.717L105.229 23.72H103.949L104.909 20.84V8.84H99.7888V25H109.805L113.293 10.12H114.573L113.613 12.84V25H118.733ZM138.306 8.52C133.89 8.52 129.858 10.92 129.634 15.528H134.754C134.946 14.088 136.258 13 138.306 13C140.162 13 141.346 13.832 141.794 15.304H136.994V18.504H141.794C141.346 20.008 140.162 20.84 138.306 20.84C136.258 20.84 134.946 19.752 134.754 18.312H129.634C129.858 22.92 133.89 25.32 138.306 25.32C143.458 25.32 147.138 22.312 147.138 16.904C147.138 11.528 143.458 8.52 138.306 8.52ZM165.062 8.84H147.782V13.32H153.862V25H158.982V13.32H165.062V8.84ZM166.009 20.584C166.009 22.248 166.873 25.32 171.897 25.32C176.409 25.32 177.977 23.048 178.585 20.36H179.865L179.065 22.28V22.6C179.065 24.136 179.929 25 181.465 25H185.017V20.52H182.681V15.976C182.681 10.664 178.777 8.52 174.329 8.52C169.817 8.52 166.329 10.92 166.329 15.016H171.129C171.129 13.544 172.281 12.68 174.329 12.68C176.537 12.68 177.561 13.48 177.561 14.792L172.473 15.496C167.673 16.168 166.009 17.8 166.009 20.584ZM171.129 19.624C171.129 18.696 171.897 18.472 173.433 18.248L177.561 17.672C177.561 19.656 175.705 20.84 172.889 20.84C172.025 20.84 171.129 20.552 171.129 19.624ZM203.378 8.84H186.93V25H192.05V13.32H198.258V25H203.378V8.84Z" fill="white"/>
</svg>
