<svg width="410" height="238" viewBox="0 0 410 238" fill="none" xmlns="http://www.w3.org/2000/svg">
<g clip-path="url(#clip0)">
<path d="M10.288 221.608H1.264V233H2.768V222.92H8.784V233H10.288V221.608ZM19.4269 230.392H18.0989C17.7149 231.64 17.0589 232.152 15.8749 232.152C14.2749 232.152 13.2989 231.096 13.2989 229.336L13.3149 229.24H19.5229V229.048C19.5229 226.664 18.4989 224.504 15.7789 224.504C13.4909 224.504 11.9389 226.312 11.9389 228.984C11.9389 231.672 13.3949 233.272 15.8269 233.272C17.7789 233.272 19.0109 232.296 19.4269 230.392ZM18.1149 228.136H13.3149C13.4909 226.584 14.4189 225.624 15.7469 225.624C17.1069 225.624 17.9869 226.568 18.1149 228.136ZM22.0446 224.744H20.7646V236.184H22.1246V231.848C22.8286 232.808 23.6766 233.208 24.8926 233.208C27.1486 233.208 28.5886 231.496 28.5886 228.824C28.5886 226.152 27.1326 224.488 24.8286 224.488C23.6126 224.488 22.6846 224.888 22.0446 225.912V224.744ZM24.6206 225.624C26.2206 225.624 27.1806 226.84 27.1806 228.84C27.1806 230.824 26.2206 232.056 24.6686 232.056C23.0686 232.056 22.0766 230.84 22.0766 228.84C22.0766 226.84 23.0366 225.624 24.6206 225.624ZM30.017 233H34.513C35.985 233 37.025 231.976 37.025 230.568C37.025 229.464 36.417 228.728 35.457 228.536V228.52C36.225 228.168 36.673 227.624 36.673 226.744C36.673 225.064 35.281 224.744 33.841 224.744H30.017V233ZM33.697 228.072H31.345V225.912H33.697C34.897 225.912 35.265 226.28 35.265 226.968C35.265 227.672 34.865 228.072 33.697 228.072ZM31.345 229.224H34.017C35.137 229.224 35.617 229.704 35.617 230.456C35.617 231.24 35.121 231.832 34.257 231.832H31.345V229.224ZM45.7548 231.912C45.6108 231.944 45.5468 231.96 45.4188 231.96C45.0028 231.96 44.8588 231.752 44.8588 231.144C44.8588 229.912 44.9228 228.696 44.9228 227.464C44.9228 226.728 44.9388 225.88 44.3628 225.32C43.8188 224.808 42.8748 224.52 41.7708 224.52C39.6428 224.52 38.3628 225.56 38.3148 227.32H39.6428C39.7708 226.104 40.4268 225.64 41.6908 225.64C42.9068 225.64 43.5628 226.12 43.5628 227C43.5628 228.12 42.8908 228.072 40.9228 228.312C38.9708 228.552 37.9948 229.416 37.9948 230.888C37.9948 232.328 39.0028 233.224 40.6348 233.224C41.9148 233.224 42.8108 232.824 43.6268 231.912C43.6428 232.696 44.0588 233.128 44.8268 233.128C45.1308 233.128 45.4668 233.08 45.7548 232.968V231.912ZM43.5628 228.712V230.216C43.5628 231.272 42.3308 232.152 41.0508 232.152C40.0268 232.152 39.4028 231.624 39.4028 230.776C39.4028 229.448 40.7468 229.336 41.7388 229.208C42.3468 229.128 43.0508 229.096 43.5628 228.712ZM53.3645 233V224.744H49.1725C47.5725 224.744 46.5805 225.624 46.5805 227.176C46.5805 228.536 47.4605 229.4 48.6285 229.576L45.7805 233H47.5885L50.1965 229.624H52.0045V233H53.3645ZM52.0045 225.944V228.424H49.6045C48.4685 228.424 47.9725 228.024 47.9725 227.176C47.9725 226.344 48.4845 225.944 49.6045 225.944H52.0045ZM66.3634 224.744H60.7474L60.6034 229.736C60.5554 231.528 59.9474 232.008 59.4034 232.008C59.2274 232.008 58.8594 231.992 58.6834 231.896V233C58.8594 233.08 59.2594 233.176 59.6594 233.176C60.8114 233.176 61.8674 232.296 61.9474 229.592L62.0594 225.944H65.0034V233H66.3634V224.744ZM69.918 233L73.63 226.264H73.662V233H75.022V224.744H73.278L69.566 231.48H69.534V224.744H68.174V233H69.918ZM82.5606 225.944V224.744H76.8966V233H78.2566V225.944H82.5606ZM90.3048 231.912C90.1608 231.944 90.0968 231.96 89.9688 231.96C89.5528 231.96 89.4088 231.752 89.4088 231.144C89.4088 229.912 89.4728 228.696 89.4728 227.464C89.4728 226.728 89.4888 225.88 88.9128 225.32C88.3688 224.808 87.4248 224.52 86.3208 224.52C84.1928 224.52 82.9128 225.56 82.8648 227.32H84.1928C84.3207 226.104 84.9768 225.64 86.2408 225.64C87.4568 225.64 88.1128 226.12 88.1128 227C88.1128 228.12 87.4408 228.072 85.4728 228.312C83.5208 228.552 82.5448 229.416 82.5448 230.888C82.5448 232.328 83.5528 233.224 85.1848 233.224C86.4648 233.224 87.3608 232.824 88.1768 231.912C88.1928 232.696 88.6088 233.128 89.3768 233.128C89.6808 233.128 90.0168 233.08 90.3048 232.968V231.912ZM88.1128 228.712V230.216C88.1128 231.272 86.8808 232.152 85.6008 232.152C84.5768 232.152 83.9528 231.624 83.9528 230.776C83.9528 229.448 85.2968 229.336 86.2888 229.208C86.8968 229.128 87.6008 229.096 88.1128 228.712Z" fill="black"/>
<path d="M148.336 11.8H146.464C146.144 13.432 145.056 14.04 143.488 14.04H143.2V15.72H145.92V23H148.336V11.8ZM165.6 23V14.744H162.304L160.752 20.744H160.688L159.136 14.744H155.84V23H157.984V16.728H158.032L159.648 23H161.792L163.408 16.728H163.456V23H165.6ZM174.915 20.44H172.739C172.403 21.272 171.891 21.64 171.059 21.64C169.843 21.64 169.155 20.872 169.123 19.448H175.043V19.224C175.043 16.328 173.459 14.504 170.963 14.504C168.563 14.504 166.819 16.36 166.819 18.92C166.819 21.512 168.499 23.24 171.043 23.24C172.915 23.24 174.403 22.232 174.915 20.44ZM172.739 18.008H169.123C169.251 16.856 169.955 16.152 170.963 16.152C172.099 16.152 172.643 17 172.739 18.008ZM184.014 19.816H181.822C181.646 20.904 181.038 21.48 180.062 21.48C178.846 21.48 178.142 20.536 178.142 18.888C178.142 17.192 178.878 16.2 180.11 16.2C180.99 16.2 181.582 16.712 181.742 17.624H183.966C183.774 15.704 182.302 14.504 180.094 14.504C177.534 14.504 175.854 16.264 175.854 18.936C175.854 21.512 177.518 23.208 180.062 23.208C182.254 23.208 183.726 21.96 184.014 19.816ZM191.84 16.488V14.744H184.144V16.488H186.864V23H189.12V16.488H191.84ZM200.655 18.872C200.655 16.248 198.975 14.504 196.431 14.504C193.839 14.504 192.127 16.248 192.127 18.872C192.127 21.512 193.823 23.256 196.399 23.256C198.975 23.256 200.655 21.528 200.655 18.872ZM198.383 18.856C198.383 20.552 197.647 21.544 196.399 21.544C195.135 21.544 194.399 20.568 194.399 18.872C194.399 17.224 195.151 16.232 196.367 16.232C197.631 16.232 198.383 17.208 198.383 18.856Z" fill="black"/>
<path d="M244.448 21.032H239.152C239.792 20.072 241.104 19.32 242.064 18.664C243.392 17.752 244.384 16.952 244.384 15.144C244.384 13.112 242.832 11.72 240.576 11.72C238.08 11.72 236.496 13.336 236.496 15.88V16.12H238.672C238.736 14.472 239.312 13.688 240.496 13.688C241.456 13.688 242.096 14.328 242.096 15.304C242.096 16.68 240.672 17.4 239.68 18.072C237.664 19.432 236.288 20.408 236.24 23H244.448V21.032ZM259.6 23V14.744H256.304L254.752 20.744H254.688L253.136 14.744H249.84V23H251.984V16.728H252.032L253.648 23H255.792L257.408 16.728H257.456V23H259.6ZM268.915 20.44H266.739C266.403 21.272 265.891 21.64 265.059 21.64C263.843 21.64 263.155 20.872 263.123 19.448H269.043V19.224C269.043 16.328 267.459 14.504 264.963 14.504C262.563 14.504 260.819 16.36 260.819 18.92C260.819 21.512 262.499 23.24 265.043 23.24C266.915 23.24 268.403 22.232 268.915 20.44ZM266.739 18.008H263.123C263.251 16.856 263.955 16.152 264.963 16.152C266.099 16.152 266.643 17 266.739 18.008ZM278.014 19.816H275.822C275.646 20.904 275.038 21.48 274.062 21.48C272.846 21.48 272.142 20.536 272.142 18.888C272.142 17.192 272.878 16.2 274.11 16.2C274.99 16.2 275.582 16.712 275.742 17.624H277.966C277.774 15.704 276.302 14.504 274.094 14.504C271.534 14.504 269.854 16.264 269.854 18.936C269.854 21.512 271.518 23.208 274.062 23.208C276.254 23.208 277.726 21.96 278.014 19.816ZM285.84 16.488V14.744H278.144V16.488H280.864V23H283.12V16.488H285.84ZM294.655 18.872C294.655 16.248 292.975 14.504 290.431 14.504C287.839 14.504 286.127 16.248 286.127 18.872C286.127 21.512 287.823 23.256 290.399 23.256C292.975 23.256 294.655 21.528 294.655 18.872ZM292.383 18.856C292.383 20.552 291.647 21.544 290.399 21.544C289.135 21.544 288.399 20.568 288.399 18.872C288.399 17.224 289.151 16.232 290.367 16.232C291.631 16.232 292.383 17.208 292.383 18.856Z" fill="black"/>
<path d="M330.512 15.464H332.672C332.704 14.216 333.312 13.544 334.368 13.544C335.296 13.544 335.92 14.104 335.92 14.952C335.92 15.896 335.28 16.36 333.968 16.36C333.824 16.36 333.76 16.36 333.584 16.344V17.944C333.808 17.928 333.904 17.928 334.144 17.928C335.216 17.928 336.176 18.344 336.176 19.592C336.176 20.6 335.44 21.288 334.32 21.288C333.104 21.288 332.432 20.52 332.416 19.144H330.224V19.304C330.224 21.704 331.824 23.208 334.368 23.208C336.816 23.208 338.528 21.704 338.528 19.576C338.528 18.264 337.792 17.304 336.544 17C337.504 16.744 338.112 15.88 338.112 14.792C338.112 12.968 336.592 11.72 334.384 11.72C332.016 11.72 330.592 13.16 330.512 15.464ZM353.6 23V14.744H350.304L348.752 20.744H348.688L347.136 14.744H343.84V23H345.984V16.728H346.032L347.648 23H349.792L351.408 16.728H351.456V23H353.6ZM362.915 20.44H360.739C360.403 21.272 359.891 21.64 359.059 21.64C357.843 21.64 357.155 20.872 357.123 19.448H363.043V19.224C363.043 16.328 361.459 14.504 358.963 14.504C356.563 14.504 354.819 16.36 354.819 18.92C354.819 21.512 356.499 23.24 359.043 23.24C360.915 23.24 362.403 22.232 362.915 20.44ZM360.739 18.008H357.123C357.251 16.856 357.955 16.152 358.963 16.152C360.099 16.152 360.643 17 360.739 18.008ZM372.014 19.816H369.822C369.646 20.904 369.038 21.48 368.062 21.48C366.846 21.48 366.142 20.536 366.142 18.888C366.142 17.192 366.878 16.2 368.11 16.2C368.99 16.2 369.582 16.712 369.742 17.624H371.966C371.774 15.704 370.302 14.504 368.094 14.504C365.534 14.504 363.854 16.264 363.854 18.936C363.854 21.512 365.518 23.208 368.062 23.208C370.254 23.208 371.726 21.96 372.014 19.816ZM379.84 16.488V14.744H372.144V16.488H374.864V23H377.12V16.488H379.84ZM388.655 18.872C388.655 16.248 386.975 14.504 384.431 14.504C381.839 14.504 380.127 16.248 380.127 18.872C380.127 21.512 381.823 23.256 384.399 23.256C386.975 23.256 388.655 21.528 388.655 18.872ZM386.383 18.856C386.383 20.552 385.647 21.544 384.399 21.544C383.135 21.544 382.399 20.568 382.399 18.872C382.399 17.224 383.151 16.232 384.367 16.232C385.631 16.232 386.383 17.208 386.383 18.856Z" fill="black"/>
<path d="M6.064 171.336C2.752 171.336 0.624 173.624 0.624 177.176C0.624 180.488 2.432 183.272 6.08 183.272C9.696 183.272 11.536 180.552 11.536 177.208C11.536 173.816 9.6 171.336 6.064 171.336ZM6.064 172.648C8.48 172.648 10.032 174.472 10.032 177.288C10.032 180.12 8.48 181.976 6.096 181.976C3.68 181.976 2.128 180.136 2.128 177.288C2.128 174.856 3.376 172.648 6.064 172.648ZM13.7483 173.592C12.9483 174.824 12.7563 176.744 12.7563 178.328C12.7563 178.872 12.7883 179.384 12.8523 179.832C13.1883 182.104 14.7403 183.272 16.6763 183.272C19.1243 183.272 20.5483 181.688 20.5483 178.936C20.5483 176.248 19.1083 174.712 16.7883 174.712C15.4123 174.712 14.3563 175.496 13.8923 176.584H13.8443C14.0843 174.632 15.0123 173.24 16.8203 173.112C18.2603 173 19.9723 173.032 20.2763 171.336H18.9163C18.6923 171.752 18.0523 171.768 17.0123 171.848C15.4443 171.96 14.4843 172.456 13.7483 173.592ZM14.1483 178.984C14.1483 177.048 15.1243 175.848 16.6603 175.848C18.1963 175.848 19.1563 177.032 19.1563 178.968C19.1563 180.968 18.2123 182.12 16.6923 182.12C15.0923 182.12 14.1483 180.84 14.1483 178.984ZM21.9678 183H32.6398V185.624H33.9358V181.8H32.8638V174.744H31.5038V181.8H28.0958V174.744H26.7358V181.8H23.3278V174.744H21.9678V183ZM42.2673 181.912C42.1233 181.944 42.0593 181.96 41.9313 181.96C41.5153 181.96 41.3713 181.752 41.3713 181.144C41.3713 179.912 41.4353 178.696 41.4353 177.464C41.4353 176.728 41.4513 175.88 40.8753 175.32C40.3313 174.808 39.3873 174.52 38.2833 174.52C36.1553 174.52 34.8753 175.56 34.8273 177.32H36.1553C36.2833 176.104 36.9393 175.64 38.2033 175.64C39.4193 175.64 40.0753 176.12 40.0753 177C40.0753 178.12 39.4033 178.072 37.4353 178.312C35.4833 178.552 34.5073 179.416 34.5073 180.888C34.5073 182.328 35.5153 183.224 37.1473 183.224C38.4273 183.224 39.3233 182.824 40.1393 181.912C40.1553 182.696 40.5713 183.128 41.3393 183.128C41.6433 183.128 41.9793 183.08 42.2673 182.968V181.912ZM40.0753 178.712V180.216C40.0753 181.272 38.8433 182.152 37.5633 182.152C36.5393 182.152 35.9153 181.624 35.9153 180.776C35.9153 179.448 37.2593 179.336 38.2513 179.208C38.8593 179.128 39.5633 179.096 40.0753 178.712ZM49.877 183V174.744H45.685C44.085 174.744 43.093 175.624 43.093 177.176C43.093 178.536 43.973 179.4 45.141 179.576L42.293 183H44.101L46.709 179.624H48.517V183H49.877ZM48.517 175.944V178.424H46.117C44.981 178.424 44.485 178.024 44.485 177.176C44.485 176.344 44.997 175.944 46.117 175.944H48.517ZM62.8759 174.744H57.2599L57.1159 179.736C57.0679 181.528 56.4599 182.008 55.9159 182.008C55.7399 182.008 55.3719 181.992 55.1959 181.896V183C55.3719 183.08 55.7719 183.176 56.1719 183.176C57.3239 183.176 58.3799 182.296 58.4599 179.592L58.5719 175.944H61.5159V183H62.8759V174.744ZM66.4305 183L70.1425 176.264H70.1745V183H71.5345V174.744H69.7905L66.0785 181.48H66.0465V174.744H64.6865V183H66.4305ZM79.0731 175.944V174.744H73.4091V183H74.7691V175.944H79.0731ZM86.8172 181.912C86.6732 181.944 86.6092 181.96 86.4812 181.96C86.0652 181.96 85.9212 181.752 85.9212 181.144C85.9212 179.912 85.9852 178.696 85.9852 177.464C85.9852 176.728 86.0012 175.88 85.4252 175.32C84.8812 174.808 83.9372 174.52 82.8332 174.52C80.7052 174.52 79.4252 175.56 79.3772 177.32H80.7052C80.8332 176.104 81.4892 175.64 82.7532 175.64C83.9692 175.64 84.6252 176.12 84.6252 177C84.6252 178.12 83.9532 178.072 81.9852 178.312C80.0332 178.552 79.0572 179.416 79.0572 180.888C79.0572 182.328 80.0652 183.224 81.6972 183.224C82.9772 183.224 83.8732 182.824 84.6892 181.912C84.7052 182.696 85.1212 183.128 85.8892 183.128C86.1932 183.128 86.5292 183.08 86.8172 182.968V181.912ZM84.6252 178.712V180.216C84.6252 181.272 83.3932 182.152 82.1132 182.152C81.0892 182.152 80.4652 181.624 80.4652 180.776C80.4652 179.448 81.8092 179.336 82.8012 179.208C83.4092 179.128 84.1132 179.096 84.6252 178.712Z" fill="black"/>
<path d="M9.664 123.608H2.512L2.304 130.552C2.224 133.448 1.632 133.896 0.816 133.896C0.64 133.896 0.208 133.864 0 133.736V135.016C0.288 135.128 0.768 135.24 1.088 135.24C2.816 135.24 3.648 133.624 3.728 131.336L3.952 124.92H8.16V135H9.664V123.608ZM13.5211 135L17.2331 128.264H17.2651V135H18.6251V126.744H16.8811L13.1691 133.48H13.1371V126.744H11.7771V135H13.5211ZM26.1638 127.944V126.744H20.4998V135H21.8598V127.944H26.1638ZM33.9079 133.912C33.7639 133.944 33.6999 133.96 33.5719 133.96C33.1559 133.96 33.0119 133.752 33.0119 133.144C33.0119 131.912 33.0759 130.696 33.0759 129.464C33.0759 128.728 33.0919 127.88 32.5159 127.32C31.9719 126.808 31.0279 126.52 29.9239 126.52C27.7959 126.52 26.5159 127.56 26.4679 129.32H27.7959C27.9239 128.104 28.5799 127.64 29.8439 127.64C31.0599 127.64 31.7159 128.12 31.7159 129C31.7159 130.12 31.0439 130.072 29.0759 130.312C27.1239 130.552 26.1479 131.416 26.1479 132.888C26.1479 134.328 27.1559 135.224 28.7879 135.224C30.0679 135.224 30.9639 134.824 31.7799 133.912C31.7959 134.696 32.2119 135.128 32.9799 135.128C33.2839 135.128 33.6199 135.08 33.9079 134.968V133.912ZM31.7159 130.712V132.216C31.7159 133.272 30.4839 134.152 29.2039 134.152C28.1799 134.152 27.5559 133.624 27.5559 132.776C27.5559 131.448 28.8999 131.336 29.8919 131.208C30.4999 131.128 31.2039 131.096 31.7159 130.712ZM45.6268 135V126.744H44.2668V130.2C43.9628 130.296 42.7628 130.568 41.9628 130.568C40.9548 130.568 40.3788 130.184 40.3788 129.128V126.744H39.0188V129.352C39.0188 130.952 40.0588 131.72 41.7068 131.72C42.5388 131.72 43.9788 131.432 44.2668 131.352V135H45.6268ZM54.5362 132.392H53.2082C52.8242 133.64 52.1682 134.152 50.9842 134.152C49.3842 134.152 48.4082 133.096 48.4082 131.336L48.4242 131.24H54.6322V131.048C54.6322 128.664 53.6082 126.504 50.8882 126.504C48.6002 126.504 47.0482 128.312 47.0482 130.984C47.0482 133.672 48.5042 135.272 50.9362 135.272C52.8882 135.272 54.1202 134.296 54.5362 132.392ZM53.2242 130.136H48.4242C48.6002 128.584 49.5282 127.624 50.8562 127.624C52.2162 127.624 53.0962 128.568 53.2242 130.136ZM64.818 135V126.744H62.866L60.354 133.432H60.322L57.81 126.744H55.858V135H57.218V128.488H57.266L59.714 135H60.962L63.41 128.488H63.458V135H64.818ZM67.9871 135V127.944H72.1151V135H73.4751V126.744H66.6271V135H67.9871ZM77.0617 135L80.7737 128.264H80.8057V135H82.1657V126.744H80.4217L76.7097 133.48H76.6777V126.744H75.3177V135H77.0617ZM87.6244 126.504C85.1284 126.504 83.5764 128.184 83.5764 130.904C83.5764 133.624 85.0804 135.256 87.6084 135.256C90.1204 135.256 91.5764 133.624 91.5764 130.824C91.5764 128.088 90.1204 126.504 87.6244 126.504ZM87.5924 127.64C89.1924 127.64 90.1844 128.888 90.1844 130.856C90.1844 132.888 89.2244 134.104 87.6244 134.104C85.9604 134.104 84.9844 132.904 84.9844 130.872C84.9844 128.904 85.9924 127.64 87.5924 127.64ZM94.3559 135V131.224H98.4839V135H99.8439V126.744H98.4839V130.024H94.3559V126.744H92.9959V135H94.3559ZM105.302 126.504C102.806 126.504 101.254 128.184 101.254 130.904C101.254 133.624 102.758 135.256 105.286 135.256C107.798 135.256 109.254 133.624 109.254 130.824C109.254 128.088 107.798 126.504 105.302 126.504ZM105.27 127.64C106.87 127.64 107.862 128.888 107.862 130.856C107.862 132.888 106.902 134.104 105.302 134.104C103.638 134.104 102.662 132.904 102.662 130.872C102.662 128.904 103.67 127.64 105.27 127.64ZM110.642 135H115.138C116.61 135 117.65 133.976 117.65 132.568C117.65 131.464 117.042 130.728 116.082 130.536V130.52C116.85 130.168 117.298 129.624 117.298 128.744C117.298 127.064 115.906 126.744 114.466 126.744H110.642V135ZM114.322 130.072H111.97V127.912H114.322C115.522 127.912 115.89 128.28 115.89 128.968C115.89 129.672 115.49 130.072 114.322 130.072ZM111.97 131.224H114.642C115.762 131.224 116.242 131.704 116.242 132.456C116.242 133.24 115.746 133.832 114.882 133.832H111.97V131.224Z" fill="black"/>
<path d="M9.568 57.608H0.208V59.736H3.632V69H6.144V59.736H9.568V57.608ZM16.952 64.872C16.952 62.248 15.272 60.504 12.728 60.504C10.136 60.504 8.424 62.248 8.424 64.872C8.424 67.512 10.12 69.256 12.696 69.256C15.272 69.256 16.952 67.528 16.952 64.872ZM14.68 64.856C14.68 66.552 13.944 67.544 12.696 67.544C11.432 67.544 10.696 66.568 10.696 64.872C10.696 63.224 11.448 62.232 12.664 62.232C13.928 62.232 14.68 63.208 14.68 64.856ZM25.9733 69V60.744H18.2773V69H20.5333V62.488H23.7173V69H25.9733ZM35.8176 64.872C35.8176 62.248 34.1376 60.504 31.5936 60.504C29.0016 60.504 27.2896 62.248 27.2896 64.872C27.2896 67.512 28.9856 69.256 31.5616 69.256C34.1376 69.256 35.8176 67.528 35.8176 64.872ZM33.5456 64.856C33.5456 66.552 32.8096 67.544 31.5616 67.544C30.2976 67.544 29.5616 66.568 29.5616 64.872C29.5616 63.224 30.3136 62.232 31.5296 62.232C32.7936 62.232 33.5456 63.208 33.5456 64.856ZM39.2549 60.744H37.1109V71.928H39.3669V67.976C39.9749 68.824 40.8709 69.208 41.9109 69.208C44.0709 69.208 45.4949 67.512 45.4949 64.92C45.4949 62.264 44.0389 60.52 41.8149 60.52C40.7589 60.52 39.8629 60.92 39.2549 61.768V60.744ZM41.2549 62.344C42.4709 62.344 43.2229 63.304 43.2229 64.92C43.2229 66.488 42.4869 67.432 41.2709 67.432C40.0229 67.432 39.2869 66.488 39.2869 64.888C39.2869 63.288 40.0229 62.344 41.2549 62.344ZM54.6761 60.744V69H56.9321V60.744H54.6761ZM53.6361 66.28C53.6361 64.488 52.2761 63.576 50.6121 63.576H48.8201V60.744H46.5801V69H50.5161C52.3081 69 53.6361 68.104 53.6361 66.28ZM48.8201 65.112H49.9561C50.7401 65.112 51.3481 65.48 51.3481 66.28C51.3481 67.08 50.8041 67.432 49.9721 67.432H48.8201V65.112Z" fill="black"/>
<path d="M10.752 101.608H8.256V105.896H3.6V101.608H1.104V113H3.6V108.088H8.256V113H10.752V101.608ZM20.8114 108.872C20.8114 106.248 19.1314 104.504 16.5874 104.504C13.9954 104.504 12.2834 106.248 12.2834 108.872C12.2834 111.512 13.9794 113.256 16.5554 113.256C19.1314 113.256 20.8114 111.528 20.8114 108.872ZM18.5394 108.856C18.5394 110.552 17.8034 111.544 16.5554 111.544C15.2914 111.544 14.5554 110.568 14.5554 108.872C14.5554 107.224 15.3074 106.232 16.5234 106.232C17.7874 106.232 18.5394 107.208 18.5394 108.856ZM25.5834 109.528L26.4634 110.52V113H28.6074V110.52L29.4874 109.528L31.4874 113H34.1594L30.9274 107.928L33.7914 104.744H31.1994L28.6074 108.024V104.744H26.4634V108.024L23.8714 104.744H21.2794L24.0954 107.88L20.9114 113H23.5834L25.5834 109.528ZM42.5076 113V104.744H39.9316L36.9876 110.328V104.744H34.8116V113H37.3876L40.3316 107.416V113H42.5076Z" fill="black"/>
<path d="M144.75 68.015C145.03 72.11 148.005 74.49 152.135 74.49C159.275 74.49 160.92 66.93 160.92 61.295C160.92 55.625 159.555 49.185 152.38 49.185C147.515 49.185 144.19 52.545 144.19 57.515C144.19 62.31 147.27 65.565 151.785 65.565C154.55 65.565 156.44 64.445 157.84 62.17C157.84 62.835 157.84 63.08 157.77 63.815C157.49 67.21 156.51 71.9 152.24 71.9C149.72 71.9 148.005 70.43 147.69 68.015H144.75ZM152.24 51.845C155.285 51.845 157.315 54.05 157.315 57.48C157.315 60.735 155.285 62.905 152.24 62.905C148.985 62.905 147.34 60.42 147.34 57.41C147.34 54.05 149.335 51.845 152.24 51.845Z" fill="black"/>
<path d="M241.775 60.735C238.975 61.75 237.4 63.99 237.4 67C237.4 71.515 240.69 74.49 245.625 74.49C250.77 74.49 254.025 71.515 254.025 66.79C254.025 63.815 252.555 61.75 249.65 60.735C251.89 59.685 253.045 57.83 253.045 55.38C253.045 51.74 250 49.185 245.73 49.185C241.39 49.185 238.345 51.775 238.345 55.52C238.345 57.935 239.605 59.825 241.775 60.735ZM245.73 51.845C248.32 51.845 250 53.35 250 55.73C250 58.075 248.32 59.615 245.73 59.615C243.14 59.615 241.39 58.075 241.39 55.73C241.39 53.385 243.14 51.845 245.73 51.845ZM245.625 62.03C248.775 62.03 250.91 64.025 250.91 66.965C250.91 69.905 248.775 71.97 245.695 71.97C242.685 71.97 240.515 69.87 240.515 66.93C240.515 64.095 242.65 62.03 245.625 62.03Z" fill="black"/>
<path d="M161.64 110.64H145.61V113.475H158.595C153.345 119.285 149.425 127.09 148.865 135H152.155C153.17 125.585 156.845 118.655 161.64 113.195V110.64Z" fill="black"/>
<path d="M254.5 116.625C254.185 112.565 251.525 110.185 247.36 110.185C240.045 110.185 238.365 117.22 238.365 123.17C238.365 128.945 239.835 135.49 247.01 135.49C252.05 135.49 255.165 131.85 255.165 127.055C255.165 122.295 252.085 119.11 247.465 119.11C244.875 119.11 242.67 120.16 241.305 122.365C241.48 119.005 241.935 112.775 247.255 112.775C249.775 112.775 251.14 114.315 251.455 116.625H254.5ZM246.94 121.7C250.055 121.7 252.015 123.87 252.015 127.335C252.015 130.695 249.985 132.83 247.01 132.83C243.965 132.83 241.865 130.625 241.865 127.195C241.865 123.905 243.93 121.7 246.94 121.7Z" fill="black"/>
<path d="M347.485 110.64H335.235L332.925 123.52L335.48 123.695C336.6 122.085 338.21 121.28 340.24 121.28C343.46 121.28 345.665 123.695 345.665 127.125C345.665 130.45 343.355 132.97 340.275 132.97C337.51 132.97 335.48 131.08 335.235 128.315H332.225C332.365 132.655 335.515 135.49 340.24 135.49C345.385 135.49 348.815 131.815 348.815 126.81C348.815 121.98 345.63 118.69 340.975 118.69C338.945 118.69 337.335 119.18 335.97 120.65L337.44 113.265H347.485V110.64Z" fill="black"/>
<path d="M347.64 49.64H331.61V52.475H344.595C339.345 58.285 335.425 66.09 334.865 74H338.155C339.17 64.585 342.845 57.655 347.64 52.195V49.64Z" fill="black"/>
<path d="M160.485 159.64H148.235L145.925 172.52L148.48 172.695C149.6 171.085 151.21 170.28 153.24 170.28C156.46 170.28 158.665 172.695 158.665 176.125C158.665 179.45 156.355 181.97 153.275 181.97C150.51 181.97 148.48 180.08 148.235 177.315H145.225C145.365 181.655 148.515 184.49 153.24 184.49C158.385 184.49 161.815 180.815 161.815 175.81C161.815 170.98 158.63 167.69 153.975 167.69C151.945 167.69 150.335 168.18 148.97 169.65L150.44 162.265H160.485V159.64Z" fill="black"/>
<path d="M255.025 175.495H251.665V159.185H249.25L237.98 175.215V178.015H248.865V184H251.665V178.015H255.025V175.495ZM248.865 175.495H240.605L248.865 163.56V175.495Z" fill="black"/>
<path d="M332.61 167.235H335.515C335.62 163.735 337.37 161.775 340.345 161.775C342.935 161.775 344.65 163.385 344.65 165.835C344.65 168.355 342.725 169.93 339.645 169.93C339.295 169.93 339.12 169.93 338.63 169.895V172.415C339.365 172.31 339.645 172.275 340.24 172.275C343.6 172.275 345.735 174.13 345.735 177.035C345.735 179.905 343.53 181.865 340.38 181.865C337.09 181.865 335.13 179.87 334.99 176.335H332.05V176.79C332.05 181.515 335.34 184.49 340.345 184.49C345.42 184.49 348.955 181.445 348.92 176.825C348.92 173.815 347.17 171.505 344.37 170.84C346.505 169.93 347.765 168.005 347.765 165.66C347.765 161.775 344.86 159.185 340.485 159.185C335.585 159.185 332.75 162.09 332.61 167.235Z" fill="black"/>
<path d="M145.61 216.235H148.515C148.62 212.735 150.37 210.775 153.345 210.775C155.935 210.775 157.65 212.385 157.65 214.835C157.65 217.355 155.725 218.93 152.645 218.93C152.295 218.93 152.12 218.93 151.63 218.895V221.415C152.365 221.31 152.645 221.275 153.24 221.275C156.6 221.275 158.735 223.13 158.735 226.035C158.735 228.905 156.53 230.865 153.38 230.865C150.09 230.865 148.13 228.87 147.99 225.335H145.05V225.79C145.05 230.515 148.34 233.49 153.345 233.49C158.42 233.49 161.955 230.445 161.92 225.825C161.92 222.815 160.17 220.505 157.37 219.84C159.505 218.93 160.765 217.005 160.765 214.66C160.765 210.775 157.86 208.185 153.485 208.185C148.585 208.185 145.75 211.09 145.61 216.235Z" fill="black"/>
<path d="M254.045 230.305H241.305C241.97 227.505 244.56 226.105 246.835 224.74C250.475 222.535 254.255 220.225 254.255 215.395C254.255 211.02 251.21 208.185 246.52 208.185C241.725 208.185 238.54 211.44 238.54 216.34V217.005H241.55C241.62 213.925 242.67 210.775 246.38 210.775C249.215 210.775 251.175 212.7 251.175 215.465C251.175 219.07 247.92 220.89 245.26 222.57C240.955 225.265 238.19 227.295 237.875 233H254.045V230.305Z" fill="black"/>
<path d="M343.53 208.22H341.185C340.345 211.93 337.72 212.805 334.045 212.805V215.045H340.275V233H343.53V208.22Z" fill="black"/>
<path d="M165.12 68.12C164.62 68.89 164.5 70.09 164.5 71.08C164.5 71.42 164.52 71.74 164.56 72.02C164.77 73.44 165.74 74.17 166.95 74.17C168.48 74.17 169.37 73.18 169.37 71.46C169.37 69.78 168.47 68.82 167.02 68.82C166.16 68.82 165.5 69.31 165.21 69.99H165.18C165.33 68.77 165.91 67.9 167.04 67.82C167.94 67.75 169.01 67.77 169.2 66.71H168.35C168.21 66.97 167.81 66.98 167.16 67.03C166.18 67.1 165.58 67.41 165.12 68.12ZM165.37 71.49C165.37 70.28 165.98 69.53 166.94 69.53C167.9 69.53 168.5 70.27 168.5 71.48C168.5 72.73 167.91 73.45 166.96 73.45C165.96 73.45 165.37 72.65 165.37 71.49ZM174.752 73.32C174.662 73.34 174.622 73.35 174.542 73.35C174.282 73.35 174.192 73.22 174.192 72.84C174.192 72.07 174.232 71.31 174.232 70.54C174.232 70.08 174.242 69.55 173.882 69.2C173.542 68.88 172.952 68.7 172.262 68.7C170.932 68.7 170.132 69.35 170.102 70.45H170.932C171.012 69.69 171.422 69.4 172.212 69.4C172.972 69.4 173.382 69.7 173.382 70.25C173.382 70.95 172.962 70.92 171.732 71.07C170.512 71.22 169.902 71.76 169.902 72.68C169.902 73.58 170.532 74.14 171.552 74.14C172.352 74.14 172.912 73.89 173.422 73.32C173.432 73.81 173.692 74.08 174.172 74.08C174.362 74.08 174.572 74.05 174.752 73.98V73.32ZM173.382 71.32V72.26C173.382 72.92 172.612 73.47 171.812 73.47C171.172 73.47 170.782 73.14 170.782 72.61C170.782 71.78 171.622 71.71 172.242 71.63C172.622 71.58 173.062 71.56 173.382 71.32ZM179.653 68.84H176.143L176.053 71.96C176.023 73.08 175.643 73.38 175.303 73.38C175.193 73.38 174.963 73.37 174.853 73.31V74C174.963 74.05 175.213 74.11 175.463 74.11C176.183 74.11 176.843 73.56 176.893 71.87L176.963 69.59H178.803V74H179.653V68.84ZM185.01 68.84H181.5L181.41 71.96C181.38 73.08 181 73.38 180.66 73.38C180.55 73.38 180.32 73.37 180.21 73.31V74C180.32 74.05 180.57 74.11 180.82 74.11C181.54 74.11 182.2 73.56 182.25 71.87L182.32 69.59H184.16V74H185.01V68.84ZM188.327 68.69C186.767 68.69 185.797 69.74 185.797 71.44C185.797 73.14 186.737 74.16 188.317 74.16C189.887 74.16 190.797 73.14 190.797 71.39C190.797 69.68 189.887 68.69 188.327 68.69ZM188.307 69.4C189.307 69.4 189.927 70.18 189.927 71.41C189.927 72.68 189.327 73.44 188.327 73.44C187.287 73.44 186.677 72.69 186.677 71.42C186.677 70.19 187.307 69.4 188.307 69.4ZM191.589 74H194.399C195.319 74 195.969 73.36 195.969 72.48C195.969 71.79 195.589 71.33 194.989 71.21V71.2C195.469 70.98 195.749 70.64 195.749 70.09C195.749 69.04 194.879 68.84 193.979 68.84H191.589V74ZM193.889 70.92H192.419V69.57H193.889C194.639 69.57 194.869 69.8 194.869 70.23C194.869 70.67 194.619 70.92 193.889 70.92ZM192.419 71.64H194.089C194.789 71.64 195.089 71.94 195.089 72.41C195.089 72.9 194.779 73.27 194.239 73.27H192.419V71.64Z" fill="black"/>
<path d="M165.12 128.12C164.62 128.89 164.5 130.09 164.5 131.08C164.5 131.42 164.52 131.74 164.56 132.02C164.77 133.44 165.74 134.17 166.95 134.17C168.48 134.17 169.37 133.18 169.37 131.46C169.37 129.78 168.47 128.82 167.02 128.82C166.16 128.82 165.5 129.31 165.21 129.99H165.18C165.33 128.77 165.91 127.9 167.04 127.82C167.94 127.75 169.01 127.77 169.2 126.71H168.35C168.21 126.97 167.81 126.98 167.16 127.03C166.18 127.1 165.58 127.41 165.12 128.12ZM165.37 131.49C165.37 130.28 165.98 129.53 166.94 129.53C167.9 129.53 168.5 130.27 168.5 131.48C168.5 132.73 167.91 133.45 166.96 133.45C165.96 133.45 165.37 132.65 165.37 131.49ZM174.752 133.32C174.662 133.34 174.622 133.35 174.542 133.35C174.282 133.35 174.192 133.22 174.192 132.84C174.192 132.07 174.232 131.31 174.232 130.54C174.232 130.08 174.242 129.55 173.882 129.2C173.542 128.88 172.952 128.7 172.262 128.7C170.932 128.7 170.132 129.35 170.102 130.45H170.932C171.012 129.69 171.422 129.4 172.212 129.4C172.972 129.4 173.382 129.7 173.382 130.25C173.382 130.95 172.962 130.92 171.732 131.07C170.512 131.22 169.902 131.76 169.902 132.68C169.902 133.58 170.532 134.14 171.552 134.14C172.352 134.14 172.912 133.89 173.422 133.32C173.432 133.81 173.692 134.08 174.172 134.08C174.362 134.08 174.572 134.05 174.752 133.98V133.32ZM173.382 131.32V132.26C173.382 132.92 172.612 133.47 171.812 133.47C171.172 133.47 170.782 133.14 170.782 132.61C170.782 131.78 171.622 131.71 172.242 131.63C172.622 131.58 173.062 131.56 173.382 131.32ZM179.653 128.84H176.143L176.053 131.96C176.023 133.08 175.643 133.38 175.303 133.38C175.193 133.38 174.963 133.37 174.853 133.31V134C174.963 134.05 175.213 134.11 175.463 134.11C176.183 134.11 176.843 133.56 176.893 131.87L176.963 129.59H178.803V134H179.653V128.84ZM185.01 128.84H181.5L181.41 131.96C181.38 133.08 181 133.38 180.66 133.38C180.55 133.38 180.32 133.37 180.21 133.31V134C180.32 134.05 180.57 134.11 180.82 134.11C181.54 134.11 182.2 133.56 182.25 131.87L182.32 129.59H184.16V134H185.01V128.84ZM188.327 128.69C186.767 128.69 185.797 129.74 185.797 131.44C185.797 133.14 186.737 134.16 188.317 134.16C189.887 134.16 190.797 133.14 190.797 131.39C190.797 129.68 189.887 128.69 188.327 128.69ZM188.307 129.4C189.307 129.4 189.927 130.18 189.927 131.41C189.927 132.68 189.327 133.44 188.327 133.44C187.287 133.44 186.677 132.69 186.677 131.42C186.677 130.19 187.307 129.4 188.307 129.4ZM191.589 134H194.399C195.319 134 195.969 133.36 195.969 132.48C195.969 131.79 195.589 131.33 194.989 131.21V131.2C195.469 130.98 195.749 130.64 195.749 130.09C195.749 129.04 194.879 128.84 193.979 128.84H191.589V134ZM193.889 130.92H192.419V129.57H193.889C194.639 129.57 194.869 129.8 194.869 130.23C194.869 130.67 194.619 130.92 193.889 130.92ZM192.419 131.64H194.089C194.789 131.64 195.089 131.94 195.089 132.41C195.089 132.9 194.779 133.27 194.239 133.27H192.419V131.64Z" fill="black"/>
<path d="M165.12 178.12C164.62 178.89 164.5 180.09 164.5 181.08C164.5 181.42 164.52 181.74 164.56 182.02C164.77 183.44 165.74 184.17 166.95 184.17C168.48 184.17 169.37 183.18 169.37 181.46C169.37 179.78 168.47 178.82 167.02 178.82C166.16 178.82 165.5 179.31 165.21 179.99H165.18C165.33 178.77 165.91 177.9 167.04 177.82C167.94 177.75 169.01 177.77 169.2 176.71H168.35C168.21 176.97 167.81 176.98 167.16 177.03C166.18 177.1 165.58 177.41 165.12 178.12ZM165.37 181.49C165.37 180.28 165.98 179.53 166.94 179.53C167.9 179.53 168.5 180.27 168.5 181.48C168.5 182.73 167.91 183.45 166.96 183.45C165.96 183.45 165.37 182.65 165.37 181.49ZM174.752 183.32C174.662 183.34 174.622 183.35 174.542 183.35C174.282 183.35 174.192 183.22 174.192 182.84C174.192 182.07 174.232 181.31 174.232 180.54C174.232 180.08 174.242 179.55 173.882 179.2C173.542 178.88 172.952 178.7 172.262 178.7C170.932 178.7 170.132 179.35 170.102 180.45H170.932C171.012 179.69 171.422 179.4 172.212 179.4C172.972 179.4 173.382 179.7 173.382 180.25C173.382 180.95 172.962 180.92 171.732 181.07C170.512 181.22 169.902 181.76 169.902 182.68C169.902 183.58 170.532 184.14 171.552 184.14C172.352 184.14 172.912 183.89 173.422 183.32C173.432 183.81 173.692 184.08 174.172 184.08C174.362 184.08 174.572 184.05 174.752 183.98V183.32ZM173.382 181.32V182.26C173.382 182.92 172.612 183.47 171.812 183.47C171.172 183.47 170.782 183.14 170.782 182.61C170.782 181.78 171.622 181.71 172.242 181.63C172.622 181.58 173.062 181.56 173.382 181.32ZM179.653 178.84H176.143L176.053 181.96C176.023 183.08 175.643 183.38 175.303 183.38C175.193 183.38 174.963 183.37 174.853 183.31V184C174.963 184.05 175.213 184.11 175.463 184.11C176.183 184.11 176.843 183.56 176.893 181.87L176.963 179.59H178.803V184H179.653V178.84ZM185.01 178.84H181.5L181.41 181.96C181.38 183.08 181 183.38 180.66 183.38C180.55 183.38 180.32 183.37 180.21 183.31V184C180.32 184.05 180.57 184.11 180.82 184.11C181.54 184.11 182.2 183.56 182.25 181.87L182.32 179.59H184.16V184H185.01V178.84ZM188.327 178.69C186.767 178.69 185.797 179.74 185.797 181.44C185.797 183.14 186.737 184.16 188.317 184.16C189.887 184.16 190.797 183.14 190.797 181.39C190.797 179.68 189.887 178.69 188.327 178.69ZM188.307 179.4C189.307 179.4 189.927 180.18 189.927 181.41C189.927 182.68 189.327 183.44 188.327 183.44C187.287 183.44 186.677 182.69 186.677 181.42C186.677 180.19 187.307 179.4 188.307 179.4ZM191.589 184H194.399C195.319 184 195.969 183.36 195.969 182.48C195.969 181.79 195.589 181.33 194.989 181.21V181.2C195.469 180.98 195.749 180.64 195.749 180.09C195.749 179.04 194.879 178.84 193.979 178.84H191.589V184ZM193.889 180.92H192.419V179.57H193.889C194.639 179.57 194.869 179.8 194.869 180.23C194.869 180.67 194.619 180.92 193.889 180.92ZM192.419 181.64H194.089C194.789 181.64 195.089 181.94 195.089 182.41C195.089 182.9 194.779 183.27 194.239 183.27H192.419V181.64Z" fill="black"/>
<path d="M165.12 227.12C164.62 227.89 164.5 229.09 164.5 230.08C164.5 230.42 164.52 230.74 164.56 231.02C164.77 232.44 165.74 233.17 166.95 233.17C168.48 233.17 169.37 232.18 169.37 230.46C169.37 228.78 168.47 227.82 167.02 227.82C166.16 227.82 165.5 228.31 165.21 228.99H165.18C165.33 227.77 165.91 226.9 167.04 226.82C167.94 226.75 169.01 226.77 169.2 225.71H168.35C168.21 225.97 167.81 225.98 167.16 226.03C166.18 226.1 165.58 226.41 165.12 227.12ZM165.37 230.49C165.37 229.28 165.98 228.53 166.94 228.53C167.9 228.53 168.5 229.27 168.5 230.48C168.5 231.73 167.91 232.45 166.96 232.45C165.96 232.45 165.37 231.65 165.37 230.49ZM174.752 232.32C174.662 232.34 174.622 232.35 174.542 232.35C174.282 232.35 174.192 232.22 174.192 231.84C174.192 231.07 174.232 230.31 174.232 229.54C174.232 229.08 174.242 228.55 173.882 228.2C173.542 227.88 172.952 227.7 172.262 227.7C170.932 227.7 170.132 228.35 170.102 229.45H170.932C171.012 228.69 171.422 228.4 172.212 228.4C172.972 228.4 173.382 228.7 173.382 229.25C173.382 229.95 172.962 229.92 171.732 230.07C170.512 230.22 169.902 230.76 169.902 231.68C169.902 232.58 170.532 233.14 171.552 233.14C172.352 233.14 172.912 232.89 173.422 232.32C173.432 232.81 173.692 233.08 174.172 233.08C174.362 233.08 174.572 233.05 174.752 232.98V232.32ZM173.382 230.32V231.26C173.382 231.92 172.612 232.47 171.812 232.47C171.172 232.47 170.782 232.14 170.782 231.61C170.782 230.78 171.622 230.71 172.242 230.63C172.622 230.58 173.062 230.56 173.382 230.32ZM179.653 227.84H176.143L176.053 230.96C176.023 232.08 175.643 232.38 175.303 232.38C175.193 232.38 174.963 232.37 174.853 232.31V233C174.963 233.05 175.213 233.11 175.463 233.11C176.183 233.11 176.843 232.56 176.893 230.87L176.963 228.59H178.803V233H179.653V227.84ZM185.01 227.84H181.5L181.41 230.96C181.38 232.08 181 232.38 180.66 232.38C180.55 232.38 180.32 232.37 180.21 232.31V233C180.32 233.05 180.57 233.11 180.82 233.11C181.54 233.11 182.2 232.56 182.25 230.87L182.32 228.59H184.16V233H185.01V227.84ZM190.637 232.32C190.547 232.34 190.507 232.35 190.427 232.35C190.167 232.35 190.077 232.22 190.077 231.84C190.077 231.07 190.117 230.31 190.117 229.54C190.117 229.08 190.127 228.55 189.767 228.2C189.427 227.88 188.837 227.7 188.147 227.7C186.817 227.7 186.017 228.35 185.987 229.45H186.817C186.897 228.69 187.307 228.4 188.097 228.4C188.857 228.4 189.267 228.7 189.267 229.25C189.267 229.95 188.847 229.92 187.617 230.07C186.397 230.22 185.787 230.76 185.787 231.68C185.787 232.58 186.417 233.14 187.437 233.14C188.237 233.14 188.797 232.89 189.307 232.32C189.317 232.81 189.577 233.08 190.057 233.08C190.247 233.08 190.457 233.05 190.637 232.98V232.32ZM189.267 230.32V231.26C189.267 231.92 188.497 232.47 187.697 232.47C187.057 232.47 186.667 232.14 186.667 231.61C186.667 230.78 187.507 230.71 188.127 230.63C188.507 230.58 188.947 230.56 189.267 230.32Z" fill="black"/>
<path d="M259.12 68.12C258.62 68.89 258.5 70.09 258.5 71.08C258.5 71.42 258.52 71.74 258.56 72.02C258.77 73.44 259.74 74.17 260.95 74.17C262.48 74.17 263.37 73.18 263.37 71.46C263.37 69.78 262.47 68.82 261.02 68.82C260.16 68.82 259.5 69.31 259.21 69.99H259.18C259.33 68.77 259.91 67.9 261.04 67.82C261.94 67.75 263.01 67.77 263.2 66.71H262.35C262.21 66.97 261.81 66.98 261.16 67.03C260.18 67.1 259.58 67.41 259.12 68.12ZM259.37 71.49C259.37 70.28 259.98 69.53 260.94 69.53C261.9 69.53 262.5 70.27 262.5 71.48C262.5 72.73 261.91 73.45 260.96 73.45C259.96 73.45 259.37 72.65 259.37 71.49ZM268.752 73.32C268.662 73.34 268.622 73.35 268.542 73.35C268.282 73.35 268.192 73.22 268.192 72.84C268.192 72.07 268.232 71.31 268.232 70.54C268.232 70.08 268.242 69.55 267.882 69.2C267.542 68.88 266.952 68.7 266.262 68.7C264.932 68.7 264.132 69.35 264.102 70.45H264.932C265.012 69.69 265.422 69.4 266.212 69.4C266.972 69.4 267.382 69.7 267.382 70.25C267.382 70.95 266.962 70.92 265.732 71.07C264.512 71.22 263.902 71.76 263.902 72.68C263.902 73.58 264.532 74.14 265.552 74.14C266.352 74.14 266.912 73.89 267.422 73.32C267.432 73.81 267.692 74.08 268.172 74.08C268.362 74.08 268.572 74.05 268.752 73.98V73.32ZM267.382 71.32V72.26C267.382 72.92 266.612 73.47 265.812 73.47C265.172 73.47 264.782 73.14 264.782 72.61C264.782 71.78 265.622 71.71 266.242 71.63C266.622 71.58 267.062 71.56 267.382 71.32ZM273.653 68.84H270.143L270.053 71.96C270.023 73.08 269.643 73.38 269.303 73.38C269.193 73.38 268.963 73.37 268.853 73.31V74C268.963 74.05 269.213 74.11 269.463 74.11C270.183 74.11 270.843 73.56 270.893 71.87L270.963 69.59H272.803V74H273.653V68.84ZM279.01 68.84H275.5L275.41 71.96C275.38 73.08 275 73.38 274.66 73.38C274.55 73.38 274.32 73.37 274.21 73.31V74C274.32 74.05 274.57 74.11 274.82 74.11C275.54 74.11 276.2 73.56 276.25 71.87L276.32 69.59H278.16V74H279.01V68.84ZM282.327 68.69C280.767 68.69 279.797 69.74 279.797 71.44C279.797 73.14 280.737 74.16 282.317 74.16C283.887 74.16 284.797 73.14 284.797 71.39C284.797 69.68 283.887 68.69 282.327 68.69ZM282.307 69.4C283.307 69.4 283.927 70.18 283.927 71.41C283.927 72.68 283.327 73.44 282.327 73.44C281.287 73.44 280.677 72.69 280.677 71.42C280.677 70.19 281.307 69.4 282.307 69.4ZM285.589 74H288.399C289.319 74 289.969 73.36 289.969 72.48C289.969 71.79 289.589 71.33 288.989 71.21V71.2C289.469 70.98 289.749 70.64 289.749 70.09C289.749 69.04 288.879 68.84 287.979 68.84H285.589V74ZM287.889 70.92H286.419V69.57H287.889C288.639 69.57 288.869 69.8 288.869 70.23C288.869 70.67 288.619 70.92 287.889 70.92ZM286.419 71.64H288.089C288.789 71.64 289.089 71.94 289.089 72.41C289.089 72.9 288.779 73.27 288.239 73.27H286.419V71.64Z" fill="black"/>
<path d="M262.12 128.12C261.62 128.89 261.5 130.09 261.5 131.08C261.5 131.42 261.52 131.74 261.56 132.02C261.77 133.44 262.74 134.17 263.95 134.17C265.48 134.17 266.37 133.18 266.37 131.46C266.37 129.78 265.47 128.82 264.02 128.82C263.16 128.82 262.5 129.31 262.21 129.99H262.18C262.33 128.77 262.91 127.9 264.04 127.82C264.94 127.75 266.01 127.77 266.2 126.71H265.35C265.21 126.97 264.81 126.98 264.16 127.03C263.18 127.1 262.58 127.41 262.12 128.12ZM262.37 131.49C262.37 130.28 262.98 129.53 263.94 129.53C264.9 129.53 265.5 130.27 265.5 131.48C265.5 132.73 264.91 133.45 263.96 133.45C262.96 133.45 262.37 132.65 262.37 131.49ZM271.752 133.32C271.662 133.34 271.622 133.35 271.542 133.35C271.282 133.35 271.192 133.22 271.192 132.84C271.192 132.07 271.232 131.31 271.232 130.54C271.232 130.08 271.242 129.55 270.882 129.2C270.542 128.88 269.952 128.7 269.262 128.7C267.932 128.7 267.132 129.35 267.102 130.45H267.932C268.012 129.69 268.422 129.4 269.212 129.4C269.972 129.4 270.382 129.7 270.382 130.25C270.382 130.95 269.962 130.92 268.732 131.07C267.512 131.22 266.902 131.76 266.902 132.68C266.902 133.58 267.532 134.14 268.552 134.14C269.352 134.14 269.912 133.89 270.422 133.32C270.432 133.81 270.692 134.08 271.172 134.08C271.362 134.08 271.572 134.05 271.752 133.98V133.32ZM270.382 131.32V132.26C270.382 132.92 269.612 133.47 268.812 133.47C268.172 133.47 267.782 133.14 267.782 132.61C267.782 131.78 268.622 131.71 269.242 131.63C269.622 131.58 270.062 131.56 270.382 131.32ZM276.653 128.84H273.143L273.053 131.96C273.023 133.08 272.643 133.38 272.303 133.38C272.193 133.38 271.963 133.37 271.853 133.31V134C271.963 134.05 272.213 134.11 272.463 134.11C273.183 134.11 273.843 133.56 273.893 131.87L273.963 129.59H275.803V134H276.653V128.84ZM282.01 128.84H278.5L278.41 131.96C278.38 133.08 278 133.38 277.66 133.38C277.55 133.38 277.32 133.37 277.21 133.31V134C277.32 134.05 277.57 134.11 277.82 134.11C278.54 134.11 279.2 133.56 279.25 131.87L279.32 129.59H281.16V134H282.01V128.84ZM285.327 128.69C283.767 128.69 282.797 129.74 282.797 131.44C282.797 133.14 283.737 134.16 285.317 134.16C286.887 134.16 287.797 133.14 287.797 131.39C287.797 129.68 286.887 128.69 285.327 128.69ZM285.307 129.4C286.307 129.4 286.927 130.18 286.927 131.41C286.927 132.68 286.327 133.44 285.327 133.44C284.287 133.44 283.677 132.69 283.677 131.42C283.677 130.19 284.307 129.4 285.307 129.4ZM288.589 134H291.399C292.319 134 292.969 133.36 292.969 132.48C292.969 131.79 292.589 131.33 291.989 131.21V131.2C292.469 130.98 292.749 130.64 292.749 130.09C292.749 129.04 291.879 128.84 290.979 128.84H288.589V134ZM290.889 130.92H289.419V129.57H290.889C291.639 129.57 291.869 129.8 291.869 130.23C291.869 130.67 291.619 130.92 290.889 130.92ZM289.419 131.64H291.089C291.789 131.64 292.089 131.94 292.089 132.41C292.089 132.9 291.779 133.27 291.239 133.27H289.419V131.64Z" fill="black"/>
<path d="M262.12 178.12C261.62 178.89 261.5 180.09 261.5 181.08C261.5 181.42 261.52 181.74 261.56 182.02C261.77 183.44 262.74 184.17 263.95 184.17C265.48 184.17 266.37 183.18 266.37 181.46C266.37 179.78 265.47 178.82 264.02 178.82C263.16 178.82 262.5 179.31 262.21 179.99H262.18C262.33 178.77 262.91 177.9 264.04 177.82C264.94 177.75 266.01 177.77 266.2 176.71H265.35C265.21 176.97 264.81 176.98 264.16 177.03C263.18 177.1 262.58 177.41 262.12 178.12ZM262.37 181.49C262.37 180.28 262.98 179.53 263.94 179.53C264.9 179.53 265.5 180.27 265.5 181.48C265.5 182.73 264.91 183.45 263.96 183.45C262.96 183.45 262.37 182.65 262.37 181.49ZM271.752 183.32C271.662 183.34 271.622 183.35 271.542 183.35C271.282 183.35 271.192 183.22 271.192 182.84C271.192 182.07 271.232 181.31 271.232 180.54C271.232 180.08 271.242 179.55 270.882 179.2C270.542 178.88 269.952 178.7 269.262 178.7C267.932 178.7 267.132 179.35 267.102 180.45H267.932C268.012 179.69 268.422 179.4 269.212 179.4C269.972 179.4 270.382 179.7 270.382 180.25C270.382 180.95 269.962 180.92 268.732 181.07C267.512 181.22 266.902 181.76 266.902 182.68C266.902 183.58 267.532 184.14 268.552 184.14C269.352 184.14 269.912 183.89 270.422 183.32C270.432 183.81 270.692 184.08 271.172 184.08C271.362 184.08 271.572 184.05 271.752 183.98V183.32ZM270.382 181.32V182.26C270.382 182.92 269.612 183.47 268.812 183.47C268.172 183.47 267.782 183.14 267.782 182.61C267.782 181.78 268.622 181.71 269.242 181.63C269.622 181.58 270.062 181.56 270.382 181.32ZM276.653 178.84H273.143L273.053 181.96C273.023 183.08 272.643 183.38 272.303 183.38C272.193 183.38 271.963 183.37 271.853 183.31V184C271.963 184.05 272.213 184.11 272.463 184.11C273.183 184.11 273.843 183.56 273.893 181.87L273.963 179.59H275.803V184H276.653V178.84ZM282.01 178.84H278.5L278.41 181.96C278.38 183.08 278 183.38 277.66 183.38C277.55 183.38 277.32 183.37 277.21 183.31V184C277.32 184.05 277.57 184.11 277.82 184.11C278.54 184.11 279.2 183.56 279.25 181.87L279.32 179.59H281.16V184H282.01V178.84ZM287.637 183.32C287.547 183.34 287.507 183.35 287.427 183.35C287.167 183.35 287.077 183.22 287.077 182.84C287.077 182.07 287.117 181.31 287.117 180.54C287.117 180.08 287.127 179.55 286.767 179.2C286.427 178.88 285.837 178.7 285.147 178.7C283.817 178.7 283.017 179.35 282.987 180.45H283.817C283.897 179.69 284.307 179.4 285.097 179.4C285.857 179.4 286.267 179.7 286.267 180.25C286.267 180.95 285.847 180.92 284.617 181.07C283.397 181.22 282.787 181.76 282.787 182.68C282.787 183.58 283.417 184.14 284.437 184.14C285.237 184.14 285.797 183.89 286.307 183.32C286.317 183.81 286.577 184.08 287.057 184.08C287.247 184.08 287.457 184.05 287.637 183.98V183.32ZM286.267 181.32V182.26C286.267 182.92 285.497 183.47 284.697 183.47C284.057 183.47 283.667 183.14 283.667 182.61C283.667 181.78 284.507 181.71 285.127 181.63C285.507 181.58 285.947 181.56 286.267 181.32Z" fill="black"/>
<path d="M262.12 227.12C261.62 227.89 261.5 229.09 261.5 230.08C261.5 230.42 261.52 230.74 261.56 231.02C261.77 232.44 262.74 233.17 263.95 233.17C265.48 233.17 266.37 232.18 266.37 230.46C266.37 228.78 265.47 227.82 264.02 227.82C263.16 227.82 262.5 228.31 262.21 228.99H262.18C262.33 227.77 262.91 226.9 264.04 226.82C264.94 226.75 266.01 226.77 266.2 225.71H265.35C265.21 225.97 264.81 225.98 264.16 226.03C263.18 226.1 262.58 226.41 262.12 227.12ZM262.37 230.49C262.37 229.28 262.98 228.53 263.94 228.53C264.9 228.53 265.5 229.27 265.5 230.48C265.5 231.73 264.91 232.45 263.96 232.45C262.96 232.45 262.37 231.65 262.37 230.49ZM271.752 232.32C271.662 232.34 271.622 232.35 271.542 232.35C271.282 232.35 271.192 232.22 271.192 231.84C271.192 231.07 271.232 230.31 271.232 229.54C271.232 229.08 271.242 228.55 270.882 228.2C270.542 227.88 269.952 227.7 269.262 227.7C267.932 227.7 267.132 228.35 267.102 229.45H267.932C268.012 228.69 268.422 228.4 269.212 228.4C269.972 228.4 270.382 228.7 270.382 229.25C270.382 229.95 269.962 229.92 268.732 230.07C267.512 230.22 266.902 230.76 266.902 231.68C266.902 232.58 267.532 233.14 268.552 233.14C269.352 233.14 269.912 232.89 270.422 232.32C270.432 232.81 270.692 233.08 271.172 233.08C271.362 233.08 271.572 233.05 271.752 232.98V232.32ZM270.382 230.32V231.26C270.382 231.92 269.612 232.47 268.812 232.47C268.172 232.47 267.782 232.14 267.782 231.61C267.782 230.78 268.622 230.71 269.242 230.63C269.622 230.58 270.062 230.56 270.382 230.32ZM276.653 227.84H273.143L273.053 230.96C273.023 232.08 272.643 232.38 272.303 232.38C272.193 232.38 271.963 232.37 271.853 232.31V233C271.963 233.05 272.213 233.11 272.463 233.11C273.183 233.11 273.843 232.56 273.893 230.87L273.963 228.59H275.803V233H276.653V227.84ZM282.01 227.84H278.5L278.41 230.96C278.38 232.08 278 232.38 277.66 232.38C277.55 232.38 277.32 232.37 277.21 232.31V233C277.32 233.05 277.57 233.11 277.82 233.11C278.54 233.11 279.2 232.56 279.25 230.87L279.32 228.59H281.16V233H282.01V227.84ZM287.637 232.32C287.547 232.34 287.507 232.35 287.427 232.35C287.167 232.35 287.077 232.22 287.077 231.84C287.077 231.07 287.117 230.31 287.117 229.54C287.117 229.08 287.127 228.55 286.767 228.2C286.427 227.88 285.837 227.7 285.147 227.7C283.817 227.7 283.017 228.35 282.987 229.45H283.817C283.897 228.69 284.307 228.4 285.097 228.4C285.857 228.4 286.267 228.7 286.267 229.25C286.267 229.95 285.847 229.92 284.617 230.07C283.397 230.22 282.787 230.76 282.787 231.68C282.787 232.58 283.417 233.14 284.437 233.14C285.237 233.14 285.797 232.89 286.307 232.32C286.317 232.81 286.577 233.08 287.057 233.08C287.247 233.08 287.457 233.05 287.637 232.98V232.32ZM286.267 230.32V231.26C286.267 231.92 285.497 232.47 284.697 232.47C284.057 232.47 283.667 232.14 283.667 231.61C283.667 230.78 284.507 230.71 285.127 230.63C285.507 230.58 285.947 230.56 286.267 230.32Z" fill="black"/>
<path d="M355.12 227.12C354.62 227.89 354.5 229.09 354.5 230.08C354.5 230.42 354.52 230.74 354.56 231.02C354.77 232.44 355.74 233.17 356.95 233.17C358.48 233.17 359.37 232.18 359.37 230.46C359.37 228.78 358.47 227.82 357.02 227.82C356.16 227.82 355.5 228.31 355.21 228.99H355.18C355.33 227.77 355.91 226.9 357.04 226.82C357.94 226.75 359.01 226.77 359.2 225.71H358.35C358.21 225.97 357.81 225.98 357.16 226.03C356.18 226.1 355.58 226.41 355.12 227.12ZM355.37 230.49C355.37 229.28 355.98 228.53 356.94 228.53C357.9 228.53 358.5 229.27 358.5 230.48C358.5 231.73 357.91 232.45 356.96 232.45C355.96 232.45 355.37 231.65 355.37 230.49ZM364.752 232.32C364.662 232.34 364.622 232.35 364.542 232.35C364.282 232.35 364.192 232.22 364.192 231.84C364.192 231.07 364.232 230.31 364.232 229.54C364.232 229.08 364.242 228.55 363.882 228.2C363.542 227.88 362.952 227.7 362.262 227.7C360.932 227.7 360.132 228.35 360.102 229.45H360.932C361.012 228.69 361.422 228.4 362.212 228.4C362.972 228.4 363.382 228.7 363.382 229.25C363.382 229.95 362.962 229.92 361.732 230.07C360.512 230.22 359.902 230.76 359.902 231.68C359.902 232.58 360.532 233.14 361.552 233.14C362.352 233.14 362.912 232.89 363.422 232.32C363.432 232.81 363.692 233.08 364.172 233.08C364.362 233.08 364.572 233.05 364.752 232.98V232.32ZM363.382 230.32V231.26C363.382 231.92 362.612 232.47 361.812 232.47C361.172 232.47 360.782 232.14 360.782 231.61C360.782 230.78 361.622 230.71 362.242 230.63C362.622 230.58 363.062 230.56 363.382 230.32ZM369.653 227.84H366.143L366.053 230.96C366.023 232.08 365.643 232.38 365.303 232.38C365.193 232.38 364.963 232.37 364.853 232.31V233C364.963 233.05 365.213 233.11 365.463 233.11C366.183 233.11 366.843 232.56 366.893 230.87L366.963 228.59H368.803V233H369.653V227.84ZM375.01 227.84H371.5L371.41 230.96C371.38 232.08 371 232.38 370.66 232.38C370.55 232.38 370.32 232.37 370.21 232.31V233C370.32 233.05 370.57 233.11 370.82 233.11C371.54 233.11 372.2 232.56 372.25 230.87L372.32 228.59H374.16V233H375.01V227.84Z" fill="black"/>
<path d="M355.12 178.12C354.62 178.89 354.5 180.09 354.5 181.08C354.5 181.42 354.52 181.74 354.56 182.02C354.77 183.44 355.74 184.17 356.95 184.17C358.48 184.17 359.37 183.18 359.37 181.46C359.37 179.78 358.47 178.82 357.02 178.82C356.16 178.82 355.5 179.31 355.21 179.99H355.18C355.33 178.77 355.91 177.9 357.04 177.82C357.94 177.75 359.01 177.77 359.2 176.71H358.35C358.21 176.97 357.81 176.98 357.16 177.03C356.18 177.1 355.58 177.41 355.12 178.12ZM355.37 181.49C355.37 180.28 355.98 179.53 356.94 179.53C357.9 179.53 358.5 180.27 358.5 181.48C358.5 182.73 357.91 183.45 356.96 183.45C355.96 183.45 355.37 182.65 355.37 181.49ZM364.752 183.32C364.662 183.34 364.622 183.35 364.542 183.35C364.282 183.35 364.192 183.22 364.192 182.84C364.192 182.07 364.232 181.31 364.232 180.54C364.232 180.08 364.242 179.55 363.882 179.2C363.542 178.88 362.952 178.7 362.262 178.7C360.932 178.7 360.132 179.35 360.102 180.45H360.932C361.012 179.69 361.422 179.4 362.212 179.4C362.972 179.4 363.382 179.7 363.382 180.25C363.382 180.95 362.962 180.92 361.732 181.07C360.512 181.22 359.902 181.76 359.902 182.68C359.902 183.58 360.532 184.14 361.552 184.14C362.352 184.14 362.912 183.89 363.422 183.32C363.432 183.81 363.692 184.08 364.172 184.08C364.362 184.08 364.572 184.05 364.752 183.98V183.32ZM363.382 181.32V182.26C363.382 182.92 362.612 183.47 361.812 183.47C361.172 183.47 360.782 183.14 360.782 182.61C360.782 181.78 361.622 181.71 362.242 181.63C362.622 181.58 363.062 181.56 363.382 181.32ZM369.653 178.84H366.143L366.053 181.96C366.023 183.08 365.643 183.38 365.303 183.38C365.193 183.38 364.963 183.37 364.853 183.31V184C364.963 184.05 365.213 184.11 365.463 184.11C366.183 184.11 366.843 183.56 366.893 181.87L366.963 179.59H368.803V184H369.653V178.84ZM375.01 178.84H371.5L371.41 181.96C371.38 183.08 371 183.38 370.66 183.38C370.55 183.38 370.32 183.37 370.21 183.31V184C370.32 184.05 370.57 184.11 370.82 184.11C371.54 184.11 372.2 183.56 372.25 181.87L372.32 179.59H374.16V184H375.01V178.84ZM380.637 183.32C380.547 183.34 380.507 183.35 380.427 183.35C380.167 183.35 380.077 183.22 380.077 182.84C380.077 182.07 380.117 181.31 380.117 180.54C380.117 180.08 380.127 179.55 379.767 179.2C379.427 178.88 378.837 178.7 378.147 178.7C376.817 178.7 376.017 179.35 375.987 180.45H376.817C376.897 179.69 377.307 179.4 378.097 179.4C378.857 179.4 379.267 179.7 379.267 180.25C379.267 180.95 378.847 180.92 377.617 181.07C376.397 181.22 375.787 181.76 375.787 182.68C375.787 183.58 376.417 184.14 377.437 184.14C378.237 184.14 378.797 183.89 379.307 183.32C379.317 183.81 379.577 184.08 380.057 184.08C380.247 184.08 380.457 184.05 380.637 183.98V183.32ZM379.267 181.32V182.26C379.267 182.92 378.497 183.47 377.697 183.47C377.057 183.47 376.667 183.14 376.667 182.61C376.667 181.78 377.507 181.71 378.127 181.63C378.507 181.58 378.947 181.56 379.267 181.32Z" fill="black"/>
<path d="M355.12 129.12C354.62 129.89 354.5 131.09 354.5 132.08C354.5 132.42 354.52 132.74 354.56 133.02C354.77 134.44 355.74 135.17 356.95 135.17C358.48 135.17 359.37 134.18 359.37 132.46C359.37 130.78 358.47 129.82 357.02 129.82C356.16 129.82 355.5 130.31 355.21 130.99H355.18C355.33 129.77 355.91 128.9 357.04 128.82C357.94 128.75 359.01 128.77 359.2 127.71H358.35C358.21 127.97 357.81 127.98 357.16 128.03C356.18 128.1 355.58 128.41 355.12 129.12ZM355.37 132.49C355.37 131.28 355.98 130.53 356.94 130.53C357.9 130.53 358.5 131.27 358.5 132.48C358.5 133.73 357.91 134.45 356.96 134.45C355.96 134.45 355.37 133.65 355.37 132.49ZM364.752 134.32C364.662 134.34 364.622 134.35 364.542 134.35C364.282 134.35 364.192 134.22 364.192 133.84C364.192 133.07 364.232 132.31 364.232 131.54C364.232 131.08 364.242 130.55 363.882 130.2C363.542 129.88 362.952 129.7 362.262 129.7C360.932 129.7 360.132 130.35 360.102 131.45H360.932C361.012 130.69 361.422 130.4 362.212 130.4C362.972 130.4 363.382 130.7 363.382 131.25C363.382 131.95 362.962 131.92 361.732 132.07C360.512 132.22 359.902 132.76 359.902 133.68C359.902 134.58 360.532 135.14 361.552 135.14C362.352 135.14 362.912 134.89 363.422 134.32C363.432 134.81 363.692 135.08 364.172 135.08C364.362 135.08 364.572 135.05 364.752 134.98V134.32ZM363.382 132.32V133.26C363.382 133.92 362.612 134.47 361.812 134.47C361.172 134.47 360.782 134.14 360.782 133.61C360.782 132.78 361.622 132.71 362.242 132.63C362.622 132.58 363.062 132.56 363.382 132.32ZM369.653 129.84H366.143L366.053 132.96C366.023 134.08 365.643 134.38 365.303 134.38C365.193 134.38 364.963 134.37 364.853 134.31V135C364.963 135.05 365.213 135.11 365.463 135.11C366.183 135.11 366.843 134.56 366.893 132.87L366.963 130.59H368.803V135H369.653V129.84ZM375.01 129.84H371.5L371.41 132.96C371.38 134.08 371 134.38 370.66 134.38C370.55 134.38 370.32 134.37 370.21 134.31V135C370.32 135.05 370.57 135.11 370.82 135.11C371.54 135.11 372.2 134.56 372.25 132.87L372.32 130.59H374.16V135H375.01V129.84ZM378.327 129.69C376.767 129.69 375.797 130.74 375.797 132.44C375.797 134.14 376.737 135.16 378.317 135.16C379.887 135.16 380.797 134.14 380.797 132.39C380.797 130.68 379.887 129.69 378.327 129.69ZM378.307 130.4C379.307 130.4 379.927 131.18 379.927 132.41C379.927 133.68 379.327 134.44 378.327 134.44C377.287 134.44 376.677 133.69 376.677 132.42C376.677 131.19 377.307 130.4 378.307 130.4ZM381.589 135H384.399C385.319 135 385.969 134.36 385.969 133.48C385.969 132.79 385.589 132.33 384.989 132.21V132.2C385.469 131.98 385.749 131.64 385.749 131.09C385.749 130.04 384.879 129.84 383.979 129.84H381.589V135ZM383.889 131.92H382.419V130.57H383.889C384.639 130.57 384.869 130.8 384.869 131.23C384.869 131.67 384.619 131.92 383.889 131.92ZM382.419 132.64H384.089C384.789 132.64 385.089 132.94 385.089 133.41C385.089 133.9 384.779 134.27 384.239 134.27H382.419V132.64Z" fill="black"/>
<path d="M353.12 68.12C352.62 68.89 352.5 70.09 352.5 71.08C352.5 71.42 352.52 71.74 352.56 72.02C352.77 73.44 353.74 74.17 354.95 74.17C356.48 74.17 357.37 73.18 357.37 71.46C357.37 69.78 356.47 68.82 355.02 68.82C354.16 68.82 353.5 69.31 353.21 69.99H353.18C353.33 68.77 353.91 67.9 355.04 67.82C355.94 67.75 357.01 67.77 357.2 66.71H356.35C356.21 66.97 355.81 66.98 355.16 67.03C354.18 67.1 353.58 67.41 353.12 68.12ZM353.37 71.49C353.37 70.28 353.98 69.53 354.94 69.53C355.9 69.53 356.5 70.27 356.5 71.48C356.5 72.73 355.91 73.45 354.96 73.45C353.96 73.45 353.37 72.65 353.37 71.49ZM362.752 73.32C362.662 73.34 362.622 73.35 362.542 73.35C362.282 73.35 362.192 73.22 362.192 72.84C362.192 72.07 362.232 71.31 362.232 70.54C362.232 70.08 362.242 69.55 361.882 69.2C361.542 68.88 360.952 68.7 360.262 68.7C358.932 68.7 358.132 69.35 358.102 70.45H358.932C359.012 69.69 359.422 69.4 360.212 69.4C360.972 69.4 361.382 69.7 361.382 70.25C361.382 70.95 360.962 70.92 359.732 71.07C358.512 71.22 357.902 71.76 357.902 72.68C357.902 73.58 358.532 74.14 359.552 74.14C360.352 74.14 360.912 73.89 361.422 73.32C361.432 73.81 361.692 74.08 362.172 74.08C362.362 74.08 362.572 74.05 362.752 73.98V73.32ZM361.382 71.32V72.26C361.382 72.92 360.612 73.47 359.812 73.47C359.172 73.47 358.782 73.14 358.782 72.61C358.782 71.78 359.622 71.71 360.242 71.63C360.622 71.58 361.062 71.56 361.382 71.32ZM367.653 68.84H364.143L364.053 71.96C364.023 73.08 363.643 73.38 363.303 73.38C363.193 73.38 362.963 73.37 362.853 73.31V74C362.963 74.05 363.213 74.11 363.463 74.11C364.183 74.11 364.843 73.56 364.893 71.87L364.963 69.59H366.803V74H367.653V68.84ZM373.01 68.84H369.5L369.41 71.96C369.38 73.08 369 73.38 368.66 73.38C368.55 73.38 368.32 73.37 368.21 73.31V74C368.32 74.05 368.57 74.11 368.82 74.11C369.54 74.11 370.2 73.56 370.25 71.87L370.32 69.59H372.16V74H373.01V68.84ZM376.327 68.69C374.767 68.69 373.797 69.74 373.797 71.44C373.797 73.14 374.737 74.16 376.317 74.16C377.887 74.16 378.797 73.14 378.797 71.39C378.797 69.68 377.887 68.69 376.327 68.69ZM376.307 69.4C377.307 69.4 377.927 70.18 377.927 71.41C377.927 72.68 377.327 73.44 376.327 73.44C375.287 73.44 374.677 72.69 374.677 71.42C374.677 70.19 375.307 69.4 376.307 69.4ZM379.589 74H382.399C383.319 74 383.969 73.36 383.969 72.48C383.969 71.79 383.589 71.33 382.989 71.21V71.2C383.469 70.98 383.749 70.64 383.749 70.09C383.749 69.04 382.879 68.84 381.979 68.84H379.589V74ZM381.889 70.92H380.419V69.57H381.889C382.639 69.57 382.869 69.8 382.869 70.23C382.869 70.67 382.619 70.92 381.889 70.92ZM380.419 71.64H382.089C382.789 71.64 383.089 71.94 383.089 72.41C383.089 72.9 382.779 73.27 382.239 73.27H380.419V71.64Z" fill="black"/>
<line y1="30.75" x2="389" y2="30.75" stroke="black" stroke-width="0.5"/>
</g>
<defs>
<clipPath id="clip0">
<rect width="410" height="238" fill="white"/>
</clipPath>
</defs>
</svg>
