<svg width="284" height="402" viewBox="0 0 284 402" fill="none" xmlns="http://www.w3.org/2000/svg">
<rect width="284" height="402" fill="black"/>
<rect x="35" y="37" width="214" height="328" fill="white"/>
<rect x="72" y="73" width="140" height="259" fill="black"/>
<rect x="105" y="110" width="74" height="186" fill="white"/>
<path d="M138.984 209.776V214H122.056V210.64L130.696 202.48C131.613 201.605 132.232 200.859 132.552 200.24C132.872 199.6 133.032 198.971 133.032 198.352C133.032 197.456 132.723 196.773 132.104 196.304C131.507 195.813 130.621 195.568 129.448 195.568C128.467 195.568 127.581 195.76 126.792 196.144C126.003 196.507 125.341 197.061 124.808 197.808L121.032 195.376C121.907 194.075 123.112 193.061 124.648 192.336C126.184 191.589 127.944 191.216 129.928 191.216C131.592 191.216 133.043 191.493 134.28 192.048C135.539 192.581 136.509 193.349 137.192 194.352C137.896 195.333 138.248 196.496 138.248 197.84C138.248 199.056 137.992 200.197 137.48 201.264C136.968 202.331 135.976 203.547 134.504 204.912L129.352 209.776H138.984ZM150.661 214.384C148.805 214.384 147.151 213.925 145.701 213.008C144.25 212.091 143.109 210.768 142.277 209.04C141.466 207.291 141.061 205.211 141.061 202.8C141.061 200.389 141.466 198.32 142.277 196.592C143.109 194.843 144.25 193.509 145.701 192.592C147.151 191.675 148.805 191.216 150.661 191.216C152.517 191.216 154.17 191.675 155.621 192.592C157.071 193.509 158.202 194.843 159.013 196.592C159.845 198.32 160.261 200.389 160.261 202.8C160.261 205.211 159.845 207.291 159.013 209.04C158.202 210.768 157.071 212.091 155.621 213.008C154.17 213.925 152.517 214.384 150.661 214.384ZM150.661 210C152.026 210 153.093 209.413 153.861 208.24C154.65 207.067 155.045 205.253 155.045 202.8C155.045 200.347 154.65 198.533 153.861 197.36C153.093 196.187 152.026 195.6 150.661 195.6C149.317 195.6 148.25 196.187 147.461 197.36C146.693 198.533 146.309 200.347 146.309 202.8C146.309 205.253 146.693 207.067 147.461 208.24C148.25 209.413 149.317 210 150.661 210Z" fill="black"/>
<path d="M83.7117 193.8V212H79.4997V197.18H75.8597V193.8H83.7117ZM93.1134 200.638C95.6787 200.638 97.568 201.149 98.7814 202.172C100.012 203.195 100.627 204.564 100.627 206.28C100.627 207.389 100.35 208.403 99.7954 209.322C99.2407 210.223 98.3914 210.951 97.2474 211.506C96.1207 212.043 94.7254 212.312 93.0614 212.312C91.7787 212.312 90.5134 212.147 89.2654 211.818C88.0347 211.471 86.986 210.986 86.1194 210.362L87.7834 207.138C88.4767 207.658 89.274 208.065 90.1754 208.36C91.0767 208.637 92.004 208.776 92.9574 208.776C94.0147 208.776 94.8467 208.568 95.4534 208.152C96.06 207.736 96.3634 207.155 96.3634 206.41C96.3634 205.63 96.0427 205.041 95.4014 204.642C94.7774 204.243 93.6854 204.044 92.1254 204.044H87.4714L88.4074 193.8H99.5094V197.18H91.9174L91.6314 200.638H93.1134Z" fill="white"/>
<path d="M17.0226 200.638C19.5879 200.638 21.4772 201.149 22.6906 202.172C23.9212 203.195 24.5366 204.564 24.5366 206.28C24.5366 207.389 24.2592 208.403 23.7046 209.322C23.1499 210.223 22.3006 210.951 21.1566 211.506C20.0299 212.043 18.6346 212.312 16.9706 212.312C15.6879 212.312 14.4226 212.147 13.1746 211.818C11.9439 211.471 10.8952 210.986 10.0286 210.362L11.6926 207.138C12.3859 207.658 13.1832 208.065 14.0846 208.36C14.9859 208.637 15.9132 208.776 16.8666 208.776C17.9239 208.776 18.7559 208.568 19.3626 208.152C19.9692 207.736 20.2726 207.155 20.2726 206.41C20.2726 205.63 19.9519 205.041 19.3106 204.642C18.6866 204.243 17.5946 204.044 16.0346 204.044H11.3806L12.3166 193.8H23.4186V197.18H15.8266L15.5406 200.638H17.0226Z" fill="white"/>
<path d="M47.6199 193.8V212H43.4079V197.18H39.7679V193.8H47.6199ZM58.5816 212.312C57.0736 212.312 55.7302 211.939 54.5516 211.194C53.3729 210.449 52.4456 209.374 51.7696 207.97C51.1109 206.549 50.7816 204.859 50.7816 202.9C50.7816 200.941 51.1109 199.26 51.7696 197.856C52.4456 196.435 53.3729 195.351 54.5516 194.606C55.7302 193.861 57.0736 193.488 58.5816 193.488C60.0896 193.488 61.4329 193.861 62.6116 194.606C63.7902 195.351 64.7089 196.435 65.3676 197.856C66.0436 199.26 66.3816 200.941 66.3816 202.9C66.3816 204.859 66.0436 206.549 65.3676 207.97C64.7089 209.374 63.7902 210.449 62.6116 211.194C61.4329 211.939 60.0896 212.312 58.5816 212.312ZM58.5816 208.75C59.6909 208.75 60.5576 208.273 61.1816 207.32C61.8229 206.367 62.1436 204.893 62.1436 202.9C62.1436 200.907 61.8229 199.433 61.1816 198.48C60.5576 197.527 59.6909 197.05 58.5816 197.05C57.4896 197.05 56.6229 197.527 55.9816 198.48C55.3576 199.433 55.0456 200.907 55.0456 202.9C55.0456 204.893 55.3576 206.367 55.9816 207.32C56.6229 208.273 57.4896 208.75 58.5816 208.75Z" fill="black"/>
</svg>
