<svg width="226" height="54" viewBox="0 0 226 54" fill="none" xmlns="http://www.w3.org/2000/svg">
<path d="M0.92 23H6.04V4.92L5.08 1.72H6.36L9.976 23H19.896L23.512 1.72H24.792L23.832 4.92V23H28.952V0.439999H18.872L15.576 21.72H14.296L11 0.439999H0.92V23ZM30.8738 14.712C30.8738 19.288 33.7218 23.32 39.9298 23.32C45.5298 23.32 48.1858 19.64 48.5058 17.304H43.3858C43.0658 18.52 41.7218 19.16 39.9298 19.16C37.0178 19.16 35.6738 17.848 35.6738 15.992H47.9298V14.392C47.9298 9.496 44.4098 6.52 39.3858 6.52C34.3618 6.52 30.8738 9.592 30.8738 14.712ZM35.6738 13.112C35.6738 11.896 36.5378 10.68 39.3858 10.68C42.2338 10.68 43.1298 11.896 43.1298 13.112H35.6738ZM66.4275 6.84H49.1475V11.32H55.2275V23H60.3475V11.32H66.4275V6.84ZM67.3738 18.584C67.3738 20.248 68.2378 23.32 73.2618 23.32C77.7738 23.32 79.3418 21.048 79.9498 18.36H81.2298L80.4298 20.28V20.6C80.4298 22.136 81.2938 23 82.8298 23H86.3818V18.52H84.0458V13.976C84.0458 8.664 80.1418 6.52 75.6938 6.52C71.1818 6.52 67.6938 8.92 67.6938 13.016H72.4938C72.4938 11.544 73.6458 10.68 75.6938 10.68C77.9018 10.68 78.9258 11.48 78.9258 12.792L73.8378 13.496C69.0378 14.168 67.3738 15.8 67.3738 18.584ZM72.4938 17.624C72.4938 16.696 73.2618 16.472 74.7978 16.248L78.9258 15.672C78.9258 17.656 77.0698 18.84 74.2538 18.84C73.3898 18.84 72.4938 18.552 72.4938 17.624ZM102.365 6.84H85.085V11.32H91.165V23H96.285V11.32H102.365V6.84ZM102.686 14.712C102.686 19.288 105.534 23.32 111.742 23.32C117.342 23.32 119.998 19.64 120.318 17.304H115.198C114.878 18.52 113.534 19.16 111.742 19.16C108.83 19.16 107.486 17.848 107.486 15.992H119.742V14.392C119.742 9.496 116.222 6.52 111.198 6.52C106.174 6.52 102.686 9.592 102.686 14.712ZM107.486 13.112C107.486 11.896 108.35 10.68 111.198 10.68C114.046 10.68 114.942 11.896 114.942 13.112H107.486ZM137.8 6.84H124.104C124.104 15.864 123.784 18.52 120.968 18.52V23C127.72 23 128.968 18.712 129.192 11.32H132.68V23H137.8V6.84ZM149.063 10.328H146.759V6.84H141.639V23H149.063C152.839 23 156.871 21.912 156.871 16.664C156.871 11.416 152.839 10.328 149.063 10.328ZM146.759 18.52V14.808H148.743C150.887 14.808 151.751 15.032 151.751 16.664C151.751 18.296 150.887 18.52 148.743 18.52H146.759ZM172.812 6.84V12.664H165.196V6.84H160.076V23H165.196V17.144H172.812V23H177.932V6.84H172.812ZM189.188 10.328H186.884V6.84H181.764V23H189.188C192.964 23 196.996 21.912 196.996 16.664C196.996 11.416 192.964 10.328 189.188 10.328ZM199.46 23H204.58V6.84H199.46V23ZM186.884 18.52V14.808H188.868C191.012 14.808 191.876 15.032 191.876 16.664C191.876 18.296 191.012 18.52 188.868 18.52H186.884ZM207.78 14.712C207.78 19.288 210.628 23.32 216.836 23.32C222.436 23.32 225.092 19.64 225.412 17.304H220.292C219.972 18.52 218.628 19.16 216.836 19.16C213.924 19.16 212.58 17.848 212.58 15.992H224.836V14.392C224.836 9.496 221.316 6.52 216.292 6.52C211.268 6.52 207.78 9.592 207.78 14.712ZM212.58 13.112C212.58 11.896 213.444 10.68 216.292 10.68C219.14 10.68 220.036 11.896 220.036 13.112H212.58ZM17.368 30.84H0.92V47H6.04V35.32H12.248V47H17.368V30.84ZM21.2013 30.84V53.08H26.3213V46.008L25.3613 43.128H26.6413C27.4733 45.272 29.0093 47.32 33.0093 47.32C37.6813 47.32 40.0173 43.512 40.0173 38.936C40.0173 34.36 37.6813 30.52 33.0093 30.52C29.0093 30.52 27.4733 32.568 26.6413 34.712H25.3613L26.3213 31.832V30.84H21.2013ZM26.3213 38.936C26.3213 36.184 27.8573 35 30.6093 35C33.3613 35 34.8973 36.184 34.8973 38.936C34.8973 41.688 33.3613 42.84 30.6093 42.84C27.8573 42.84 26.3213 41.688 26.3213 38.936ZM42.5925 42.584C42.5925 44.248 43.4565 47.32 48.4805 47.32C52.9925 47.32 54.5605 45.048 55.1685 42.36H56.4485L55.6485 44.28V44.6C55.6485 46.136 56.5125 47 58.0485 47H61.6005V42.52H59.2645V37.976C59.2645 32.664 55.3605 30.52 50.9125 30.52C46.4005 30.52 42.9125 32.92 42.9125 37.016H47.7125C47.7125 35.544 48.8645 34.68 50.9125 34.68C53.1205 34.68 54.1445 35.48 54.1445 36.792L49.0565 37.496C44.2565 38.168 42.5925 39.8 42.5925 42.584ZM47.7125 41.624C47.7125 40.696 48.4805 40.472 50.0165 40.248L54.1445 39.672C54.1445 41.656 52.2885 42.84 49.4725 42.84C48.6085 42.84 47.7125 42.552 47.7125 41.624ZM80.1538 47L74.9698 37.88L76.9218 35.32H79.5138V30.84H76.6338C75.2578 30.84 74.0418 31.096 73.2418 32.152L70.0098 36.504H68.6338V30.84H63.5138V47H68.6338V40.984H70.2658C70.5858 40.984 70.8738 40.984 71.1618 40.952L74.6178 47H80.1538ZM98.3963 30.84H81.1163V35.32H87.1963V47H92.3163V35.32H98.3963V30.84ZM119.583 47V30.84H109.567L106.079 45.72H104.799L105.759 42.84V30.84H100.639V47H110.655L114.143 32.12H115.423L114.463 34.84V47H119.583ZM139.435 47L134.251 37.88L136.203 35.32H138.795V30.84H135.915C134.539 30.84 133.323 31.096 132.523 32.152L129.291 36.504H127.915V30.84H122.795V47H127.915V40.984H129.547C129.867 40.984 130.155 40.984 130.443 40.952L133.899 47H139.435ZM160.927 47V30.84H150.911L147.423 45.72H146.143L147.103 42.84V30.84H141.983V47H151.999L155.487 32.12H156.767L155.807 34.84V47H160.927Z" fill="white"/>
</svg>
