<svg width="146" height="45" viewBox="0 0 146 45" fill="none" xmlns="http://www.w3.org/2000/svg">
<path d="M22 44.166C7.33333 44.166 0 35.7851 0 22.166C0 8.54697 7.33333 0.166016 22 0.166016C36.6667 0.166016 44 8.54697 44 22.166C44 35.7851 36.6667 44.166 22 44.166Z" fill="white"/>
<path d="M36.0878 15.5269C35.9758 16.0867 35.528 17.0383 34.7443 18.3258C34.1845 19.2775 33.5127 20.3411 32.729 21.5726C32.0573 22.5803 31.6654 23.0841 31.6654 23.0841C31.4415 23.4199 31.3296 23.6998 31.3296 23.8678C31.3296 24.0917 31.4415 24.3156 31.6654 24.5395L32.1692 25.0993C34.8562 27.8983 36.3677 29.8016 36.7035 30.8092C36.8155 31.257 36.7595 31.6489 36.5356 31.8728C36.3117 32.0967 36.0318 32.2087 35.584 32.2087H32.2812C31.8334 32.2087 31.4975 32.0967 31.1616 31.8168C30.9377 31.7049 30.4899 31.313 29.9301 30.6413C29.3703 29.9695 28.8665 29.4097 28.4186 28.9619C26.9072 27.5624 25.7876 26.8347 25.1159 26.8347C24.78 26.8347 24.5561 26.8907 24.4441 27.0026C24.3322 27.1146 24.2762 27.3945 24.2762 27.7303C24.2202 28.0102 24.2202 28.57 24.2202 29.4657V30.9211C24.2202 31.369 24.1082 31.7049 23.8843 31.8728C23.5485 32.0967 22.8767 32.2087 21.8691 32.2087C20.0778 32.2087 18.3424 31.7049 16.5511 30.6413C14.7597 29.6336 13.1923 28.1222 11.8488 26.1629C10.5613 24.4836 9.4977 22.7482 8.65801 20.9569C7.98626 19.6134 7.42647 18.3818 7.03462 17.2063C6.75472 16.3106 6.64276 15.6389 6.64276 15.247C6.64276 14.6312 6.97864 14.2954 7.76235 14.2954H11.0651C11.457 14.2954 11.7369 14.4073 11.9608 14.5752C12.1847 14.7992 12.3526 15.135 12.5206 15.5829C13.0244 17.0943 13.6402 18.5498 14.4239 19.9492C15.0956 21.2927 15.7674 22.3563 16.4391 23.1401C17.1109 23.9797 17.6147 24.3716 18.0065 24.3716C18.2304 24.3716 18.3424 24.3156 18.4544 24.1477C18.5663 23.9797 18.6223 23.6439 18.6223 23.1401V18.2699C18.5663 17.7101 18.4544 17.1503 18.2304 16.7025C18.1185 16.4785 17.8946 16.1986 17.6706 15.8628C17.3908 15.5269 17.2788 15.303 17.2788 15.0791C17.2788 14.8551 17.3348 14.6872 17.5027 14.5193C17.6706 14.4073 17.8946 14.2954 18.1185 14.2954H23.3245C23.6604 14.2954 23.8843 14.4073 23.9963 14.5752C24.1082 14.7992 24.2202 15.0791 24.2202 15.5269V22.0205C24.2202 22.3563 24.2762 22.6362 24.3881 22.7482C24.5001 22.9161 24.6121 22.9721 24.78 22.9721C24.9479 22.9721 25.1719 22.9161 25.3958 22.8042C25.6197 22.6922 25.8996 22.4123 26.2914 21.9645C26.9632 21.1808 27.6909 20.2291 28.4186 19.0536C28.8665 18.2699 29.3703 17.3742 29.8181 16.3666L30.3779 15.247C30.6018 14.6312 31.1056 14.2954 31.7774 14.2954H35.0802C35.9758 14.2954 36.3117 14.7432 36.0878 15.5269Z" fill="black"/>
<path d="M73 44.166C58.3333 44.166 51 35.7851 51 22.166C51 8.54697 58.3333 0.166016 73 0.166016C87.6667 0.166016 95 8.54697 95 22.166C95 35.7851 87.6667 44.166 73 44.166Z" fill="#FFC100"/>
<path d="M87.0878 15.5269C86.9758 16.0867 86.528 17.0383 85.7443 18.3258C85.1845 19.2775 84.5127 20.3411 83.729 21.5726C83.0573 22.5803 82.6654 23.0841 82.6654 23.0841C82.4415 23.4199 82.3296 23.6998 82.3296 23.8678C82.3296 24.0917 82.4415 24.3156 82.6654 24.5395L83.1692 25.0993C85.8562 27.8983 87.3677 29.8016 87.7035 30.8092C87.8155 31.257 87.7595 31.6489 87.5356 31.8728C87.3117 32.0967 87.0318 32.2087 86.584 32.2087H83.2812C82.8334 32.2087 82.4975 32.0967 82.1616 31.8168C81.9377 31.7049 81.4899 31.313 80.9301 30.6413C80.3703 29.9695 79.8665 29.4097 79.4186 28.9619C77.9072 27.5624 76.7876 26.8347 76.1159 26.8347C75.78 26.8347 75.5561 26.8907 75.4441 27.0026C75.3322 27.1146 75.2762 27.3945 75.2762 27.7303C75.2202 28.0102 75.2202 28.57 75.2202 29.4657V30.9211C75.2202 31.369 75.1082 31.7049 74.8843 31.8728C74.5485 32.0967 73.8767 32.2087 72.8691 32.2087C71.0778 32.2087 69.3424 31.7049 67.5511 30.6413C65.7597 29.6336 64.1923 28.1222 62.8488 26.1629C61.5613 24.4836 60.4977 22.7482 59.658 20.9569C58.9863 19.6134 58.4265 18.3818 58.0346 17.2063C57.7547 16.3106 57.6428 15.6389 57.6428 15.247C57.6428 14.6312 57.9786 14.2954 58.7623 14.2954H62.0651C62.457 14.2954 62.7369 14.4073 62.9608 14.5752C63.1847 14.7992 63.3526 15.135 63.5206 15.5829C64.0244 17.0943 64.6402 18.5498 65.4239 19.9492C66.0956 21.2927 66.7674 22.3563 67.4391 23.1401C68.1109 23.9797 68.6147 24.3716 69.0065 24.3716C69.2304 24.3716 69.3424 24.3156 69.4544 24.1477C69.5663 23.9797 69.6223 23.6439 69.6223 23.1401V18.2699C69.5663 17.7101 69.4544 17.1503 69.2304 16.7025C69.1185 16.4785 68.8946 16.1986 68.6706 15.8628C68.3908 15.5269 68.2788 15.303 68.2788 15.0791C68.2788 14.8551 68.3348 14.6872 68.5027 14.5193C68.6706 14.4073 68.8946 14.2954 69.1185 14.2954H74.3245C74.6604 14.2954 74.8843 14.4073 74.9963 14.5752C75.1082 14.7992 75.2202 15.0791 75.2202 15.5269V22.0205C75.2202 22.3563 75.2762 22.6362 75.3881 22.7482C75.5001 22.9161 75.6121 22.9721 75.78 22.9721C75.9479 22.9721 76.1719 22.9161 76.3958 22.8042C76.6197 22.6922 76.8996 22.4123 77.2914 21.9645C77.9632 21.1808 78.6909 20.2291 79.4186 19.0536C79.8665 18.2699 80.3703 17.3742 80.8181 16.3666L81.3779 15.247C81.6018 14.6312 82.1056 14.2954 82.7774 14.2954H86.0802C86.9758 14.2954 87.3117 14.7432 87.0878 15.5269Z" fill="black"/>
<path d="M124 44.166C109.333 44.166 102 35.7851 102 22.166C102 8.54697 109.333 0.166016 124 0.166016C138.667 0.166016 146 8.54697 146 22.166C146 35.7851 138.667 44.166 124 44.166Z" fill="#FFC100"/>
<path d="M138.088 15.5269C137.976 16.0867 137.528 17.0383 136.744 18.3258C136.184 19.2775 135.513 20.3411 134.729 21.5726C134.057 22.5803 133.665 23.0841 133.665 23.0841C133.442 23.4199 133.33 23.6998 133.33 23.8678C133.33 24.0917 133.442 24.3156 133.665 24.5395L134.169 25.0993C136.856 27.8983 138.368 29.8016 138.704 30.8092C138.816 31.257 138.76 31.6489 138.536 31.8728C138.312 32.0967 138.032 32.2087 137.584 32.2087H134.281C133.833 32.2087 133.497 32.0967 133.162 31.8168C132.938 31.7049 132.49 31.313 131.93 30.6413C131.37 29.9695 130.866 29.4097 130.419 28.9619C128.907 27.5624 127.788 26.8347 127.116 26.8347C126.78 26.8347 126.556 26.8907 126.444 27.0026C126.332 27.1146 126.276 27.3945 126.276 27.7303C126.22 28.0102 126.22 28.57 126.22 29.4657V30.9211C126.22 31.369 126.108 31.7049 125.884 31.8728C125.548 32.0967 124.877 32.2087 123.869 32.2087C122.078 32.2087 120.342 31.7049 118.551 30.6413C116.76 29.6336 115.192 28.1222 113.849 26.1629C112.561 24.4836 111.498 22.7482 110.658 20.9569C109.986 19.6134 109.426 18.3818 109.035 17.2063C108.755 16.3106 108.643 15.6389 108.643 15.247C108.643 14.6312 108.979 14.2954 109.762 14.2954H113.065C113.457 14.2954 113.737 14.4073 113.961 14.5752C114.185 14.7992 114.353 15.135 114.521 15.5829C115.024 17.0943 115.64 18.5498 116.424 19.9492C117.096 21.2927 117.767 22.3563 118.439 23.1401C119.111 23.9797 119.615 24.3716 120.007 24.3716C120.23 24.3716 120.342 24.3156 120.454 24.1477C120.566 23.9797 120.622 23.6439 120.622 23.1401V18.2699C120.566 17.7101 120.454 17.1503 120.23 16.7025C120.118 16.4785 119.895 16.1986 119.671 15.8628C119.391 15.5269 119.279 15.303 119.279 15.0791C119.279 14.8551 119.335 14.6872 119.503 14.5193C119.671 14.4073 119.895 14.2954 120.118 14.2954H125.325C125.66 14.2954 125.884 14.4073 125.996 14.5752C126.108 14.7992 126.22 15.0791 126.22 15.5269V22.0205C126.22 22.3563 126.276 22.6362 126.388 22.7482C126.5 22.9161 126.612 22.9721 126.78 22.9721C126.948 22.9721 127.172 22.9161 127.396 22.8042C127.62 22.6922 127.9 22.4123 128.291 21.9645C128.963 21.1808 129.691 20.2291 130.419 19.0536C130.866 18.2699 131.37 17.3742 131.818 16.3666L132.378 15.247C132.602 14.6312 133.106 14.2954 133.777 14.2954H137.08C137.976 14.2954 138.312 14.7432 138.088 15.5269Z" fill="white"/>
</svg>
