<svg width="45" height="47" viewBox="0 0 45 47" fill="none" xmlns="http://www.w3.org/2000/svg">
<path d="M22.4235 44.4924C7.64766 44.4924 0.259766 36.0491 0.259766 22.3287C0.259766 8.60835 7.64766 0.165039 22.4235 0.165039C37.1993 0.165039 44.5872 8.60835 44.5872 22.3287C44.5872 36.0491 37.1993 44.4924 22.4235 44.4924Z" fill="#FFBE00"/>
<path d="M36.5957 15.3995C36.4829 15.9631 36.032 16.9214 35.2429 18.2178C34.6792 19.176 34.0029 20.2469 33.2137 21.4869C32.5374 22.5015 32.1428 23.0088 32.1428 23.0088C31.9173 23.347 31.8046 23.6288 31.8046 23.7979C31.8046 24.0234 31.9173 24.2488 32.1428 24.4743L32.6501 25.0379C35.3556 27.8562 36.8775 29.7726 37.2157 30.7872C37.3284 31.2381 37.272 31.6327 37.0466 31.8581C36.8211 32.0836 36.5393 32.1963 36.0884 32.1963H32.7628C32.3119 32.1963 31.9737 32.0836 31.6355 31.8018C31.4101 31.689 30.9591 31.2945 30.3955 30.6181C29.8318 29.9417 29.3245 29.3781 28.8736 28.9271C27.3518 27.518 26.2245 26.7853 25.5481 26.7853C25.2099 26.7853 24.9844 26.8416 24.8717 26.9544C24.759 27.0671 24.7026 27.3489 24.7026 27.6871C24.6462 27.9689 24.6462 28.5326 24.6462 29.4344V30.8999C24.6462 31.3508 24.5335 31.689 24.308 31.8581C23.9699 32.0836 23.2935 32.1963 22.2789 32.1963C20.4752 32.1963 18.7279 31.689 16.9242 30.6181C15.1205 29.6035 13.5423 28.0817 12.1895 26.1089C10.8931 24.4179 9.8222 22.6706 8.97672 20.8669C8.30034 19.5141 7.73669 18.2741 7.34213 17.0904C7.0603 16.1886 6.94757 15.5122 6.94757 15.1177C6.94757 14.4976 7.28576 14.1595 8.07488 14.1595H11.4004C11.795 14.1595 12.0768 14.2722 12.3023 14.4413C12.5277 14.6667 12.6968 15.0049 12.8659 15.4559C13.3732 16.9777 13.9932 18.4432 14.7823 19.8523C15.4587 21.2051 16.1351 22.276 16.8115 23.0652C17.4879 23.9106 17.9951 24.3052 18.3897 24.3052C18.6152 24.3052 18.7279 24.2488 18.8406 24.0797C18.9534 23.9106 19.0097 23.5724 19.0097 23.0652V18.1614C18.9534 17.5977 18.8406 17.0341 18.6152 16.5832C18.5024 16.3577 18.277 16.0759 18.0515 15.7377C17.7697 15.3995 17.657 15.174 17.657 14.9486C17.657 14.7231 17.7133 14.554 17.8824 14.3849C18.0515 14.2722 18.277 14.1595 18.5024 14.1595H23.7444C24.0826 14.1595 24.308 14.2722 24.4208 14.4413C24.5335 14.6667 24.6462 14.9486 24.6462 15.3995V21.9379C24.6462 22.276 24.7026 22.5579 24.8153 22.6706C24.9281 22.8397 25.0408 22.8961 25.2099 22.8961C25.379 22.8961 25.6044 22.8397 25.8299 22.727C26.0554 22.6142 26.3372 22.3324 26.7318 21.8815C27.4081 21.0924 28.1409 20.1342 28.8736 18.9505C29.3245 18.1614 29.8318 17.2595 30.2828 16.245L30.8464 15.1177C31.0719 14.4976 31.5792 14.1595 32.2555 14.1595H35.5811C36.4829 14.1595 36.8211 14.6104 36.5957 15.3995Z" fill="black"/>
</svg>
