<svg width="1171" height="377" viewBox="0 0 1171 377" fill="none" xmlns="http://www.w3.org/2000/svg">
<path d="M96.8954 28.898H0.143927V136.4H21.6443V50.3983H75.3951V136.4H96.8954V28.898ZM158.165 57.3091C158.165 41.1839 147.415 29.0515 132.211 28.898H109.175V136.4H130.676V85.7203H132.211C147.415 85.5667 158.165 73.4344 158.165 57.3091ZM132.058 67.2914H130.676V47.3268H132.058C136.665 47.3268 139.736 51.934 139.736 57.3091C139.736 62.6842 136.665 67.2914 132.058 67.2914ZM260.124 28.898L188.866 125.957V28.898H167.365V136.4H207.295L277.938 40.2624V136.4H299.439V28.898H260.124ZM348.034 82.6488C356.481 78.0416 361.702 68.6736 361.702 57.3091C361.702 41.1839 350.952 28.898 335.595 28.898H308.719V50.3983H335.595V47.3268C340.202 47.3268 343.273 51.934 343.273 57.3091C343.273 62.6842 340.202 67.2914 335.595 67.2914V70.9772H319.469V92.9382H335.595V98.0062C340.202 98.0062 343.273 102.613 343.273 107.988C343.273 113.364 340.202 117.971 335.595 117.971V114.899H308.719V136.4H335.595C350.952 136.4 361.702 124.114 361.702 107.988C361.702 96.624 356.481 87.256 348.034 82.6488ZM383.166 22.9086C389.156 22.9086 394.07 18.1478 394.07 11.6977C394.07 5.55474 389.156 0.793964 383.166 0.793964C376.716 0.793964 371.802 5.55474 371.802 11.6977C371.802 18.1478 376.716 22.9086 383.166 22.9086ZM411.578 22.9086C417.567 22.9086 422.481 18.1478 422.481 11.6977C422.481 5.55474 417.567 0.793964 411.578 0.793964C405.128 0.793964 400.213 5.55474 400.213 11.6977C400.213 18.1478 405.128 22.9086 411.578 22.9086ZM424.631 50.3983V28.898H370.881V136.4H424.631V114.899H392.381V91.8632H414.188V69.9022H392.381V50.3983H424.631ZM482.86 57.3091C482.86 41.1839 472.11 29.0515 456.906 28.898H433.87V136.4H455.37V85.7203H456.906C472.11 85.5667 482.86 73.4344 482.86 57.3091ZM456.752 67.2914H455.37V47.3268H456.752C461.36 47.3268 464.431 51.934 464.431 57.3091C464.431 62.6842 461.36 67.2914 456.752 67.2914ZM604.169 28.898H570.075L530.453 82.6488H513.56V28.898H492.06V136.4H578.061L538.439 82.6488H556.561L582.668 47.1732V136.4H604.169V28.898ZM513.56 117.971V84.3381L538.439 117.971H513.56Z" fill="white"/>
<path d="M352.903 203.828H342.613C351.06 199.221 356.281 189.853 356.281 178.488C356.281 162.363 345.531 150.231 330.327 150.077H307.291V257.579H392.525L352.903 203.828ZM330.174 168.506C334.781 168.506 337.853 173.113 337.853 178.488C337.853 183.864 334.781 188.471 330.174 188.471H328.792V168.506H330.174ZM328.792 239.15V206.9H329.099L352.903 239.15H328.792ZM437.007 150.077H383.256V171.578H399.535V257.579H421.036V171.578H437.007V150.077ZM490.698 150.077C458.448 150.077 436.947 171.578 436.947 203.828C436.947 236.079 458.448 257.579 490.698 257.579C522.949 257.579 544.449 236.079 544.449 203.828C544.449 171.578 522.949 150.077 490.698 150.077ZM490.698 236.079C469.198 236.079 458.448 223.793 458.448 203.828C458.448 183.864 469.198 171.578 490.698 171.578C512.198 171.578 522.949 183.864 522.949 203.828C522.949 223.793 512.198 236.079 490.698 236.079ZM602.689 178.488C602.689 162.363 591.939 150.231 576.735 150.077H553.699V257.579H575.2V206.9H576.735C591.939 206.746 602.689 194.614 602.689 178.488ZM576.582 188.471H575.2V168.506H576.582C581.189 168.506 584.26 173.113 584.26 178.488C584.26 183.864 581.189 188.471 576.582 188.471ZM662.569 150.077C630.318 150.077 608.818 171.578 608.818 203.828C608.818 236.079 630.318 257.579 662.569 257.579C694.819 257.579 716.32 236.079 716.32 203.828C716.32 171.578 694.819 150.077 662.569 150.077ZM662.569 236.079C641.068 236.079 630.318 223.793 630.318 203.828C630.318 183.864 641.068 171.578 662.569 171.578C684.069 171.578 694.819 183.864 694.819 203.828C694.819 223.793 684.069 236.079 662.569 236.079ZM747.07 257.579V171.578H779.321V150.077H725.57V257.579H747.07ZM831.59 150.077C799.339 150.077 777.839 171.578 777.839 203.828C777.839 236.079 799.339 257.579 831.59 257.579C863.84 257.579 885.341 236.079 885.341 203.828C885.341 171.578 863.84 150.077 831.59 150.077ZM831.59 236.079C810.089 236.079 799.339 223.793 799.339 203.828C799.339 183.864 810.089 171.578 831.59 171.578C853.09 171.578 863.84 183.864 863.84 203.828C863.84 223.793 853.09 236.079 831.59 236.079Z" fill="white"/>
<path d="M729.685 268.857H717.4V290.357H729.685C746.118 290.357 756.254 297.575 760.093 309.861H729.685V331.822H761.014C758.097 346.258 747.654 354.858 729.685 354.858H717.4V376.359H729.685C761.936 376.359 783.436 354.858 783.436 322.608C783.436 290.357 761.936 268.857 729.685 268.857ZM898.981 268.703L817.741 268.703L802.23 289.743H832.945L769.519 376.359H795.626L859.052 289.743L883.47 289.743L898.981 268.703ZM912.527 268.857L872.598 322.608H891.027L851.405 376.359H877.512L901.47 343.955H933.567V376.359H955.067V268.857H912.527ZM933.567 275.768V322.454H898.859L933.567 275.768ZM1064.08 268.857H967.329V376.359H988.829V290.357H1042.58V376.359L1064.08 376.359V268.857ZM1128.34 268.857L1088.41 322.608H1106.84L1067.22 376.359H1093.33L1117.28 343.955H1149.38V376.359H1170.88V268.857H1128.34ZM1149.38 275.768V322.454H1114.67L1149.38 275.768Z" fill="white"/>
</svg>
