<svg width="1172" height="197" viewBox="0 0 1172 197" fill="none" xmlns="http://www.w3.org/2000/svg">
<path d="M82.0887 1.13439H0.393995V91.9062H18.5484V19.2888H63.9343V91.9062H82.0887V1.13439ZM135.25 1.13439C108.018 1.13439 89.864 19.2888 89.864 46.5203C89.864 73.7519 108.018 91.9062 135.25 91.9062C162.482 91.9062 180.636 73.7519 180.636 46.5203C180.636 19.2888 162.482 1.13439 135.25 1.13439ZM135.25 73.7519C117.096 73.7519 108.018 63.378 108.018 46.5203C108.018 29.6627 117.096 19.2888 135.25 19.2888C153.404 19.2888 162.482 29.6627 162.482 46.5203C162.482 63.378 153.404 73.7519 135.25 73.7519ZM227.608 46.5203H206.601V19.2888H233.833V1.13439H188.447V91.9062H261.064L227.608 46.5203ZM206.601 76.3454V47.9467L227.608 76.3454H206.601ZM309.054 19.2888V1.13439H263.668V91.9062H309.054V73.7519H281.822V54.3008H300.236V35.7574H281.822V19.2888H309.054ZM401.532 73.7519V1.13439H365.612L331.897 46.5203H348.365L328.266 73.7519H314.261V117.841H332.545V91.9062H399.846V117.841H418V73.7519H401.532ZM353.941 46.5203L383.377 6.96973V73.7519H350.31L370.41 46.5203H353.941ZM504.084 1.13439L443.915 83.0884V1.13439H425.76V91.9062H459.476L519.126 10.7303V91.9062H537.28V1.13439H504.084ZM649.305 1.00472H580.708L567.611 18.7701H593.546L539.99 91.9062H562.035L615.59 18.7701H636.208L649.305 1.00472ZM700.991 18.6404L714.088 0.875048H657.679L657.55 1.13439H657.29L630.578 37.5728L617.48 55.3382H617.61L590.897 91.9062H647.435L660.532 74.1409H625.909L639.655 55.3382H673.889L686.986 37.5728H652.622L666.497 18.6404H700.991ZM724.283 1.13439L690.568 46.5203H707.426L673.97 91.9062H696.014L729.47 46.5203H712.613L742.049 6.96973V91.9062H760.203V1.13439H724.283ZM848.91 1.13439L788.741 83.0884V1.13439H770.587V91.9062H804.302L863.952 10.7303V91.9062H882.107V1.13439H848.91Z" fill="white"/>
<rect x="310.423" y="106.859" width="108.212" height="12.3671" fill="black"/>
<path d="M246.922 149.075H238.234C245.366 145.185 249.775 137.275 249.775 127.679C249.775 114.063 240.697 103.819 227.86 103.689H208.409V194.461H280.378L246.922 149.075ZM227.73 119.25C231.62 119.25 234.214 123.14 234.214 127.679C234.214 132.217 231.62 136.108 227.73 136.108H226.563V119.25H227.73ZM226.563 178.9V151.668H226.822L246.922 178.9H226.563ZM317.938 103.689H272.552V121.843H286.297V194.461H304.452V121.843H317.938V103.689ZM363.273 103.689C336.041 103.689 317.887 121.843 317.887 149.075C317.887 176.307 336.041 194.461 363.273 194.461C390.504 194.461 408.659 176.307 408.659 149.075C408.659 121.843 390.504 103.689 363.273 103.689ZM363.273 176.307C345.119 176.307 336.041 165.933 336.041 149.075C336.041 132.217 345.119 121.843 363.273 121.843C381.427 121.843 390.504 132.217 390.504 149.075C390.504 165.933 381.427 176.307 363.273 176.307ZM457.836 127.679C457.836 114.063 448.759 103.819 435.921 103.689H416.47V194.461H434.624V151.668H435.921C448.759 151.539 457.836 141.295 457.836 127.679ZM435.791 136.108H434.624V119.25H435.791C439.681 119.25 442.275 123.14 442.275 127.679C442.275 132.217 439.681 136.108 435.791 136.108ZM508.396 103.689C481.165 103.689 463.011 121.843 463.011 149.075C463.011 176.307 481.165 194.461 508.396 194.461C535.628 194.461 553.782 176.307 553.782 149.075C553.782 121.843 535.628 103.689 508.396 103.689ZM508.396 176.307C490.242 176.307 481.165 165.933 481.165 149.075C481.165 132.217 490.242 121.843 508.396 121.843C526.551 121.843 535.628 132.217 535.628 149.075C535.628 165.933 526.551 176.307 508.396 176.307ZM665.287 103.559H608.879L608.749 103.689H608.49L542.096 194.461H564.141L617.696 121.325H652.19L665.287 103.559ZM696.449 103.689C669.218 103.689 651.063 121.843 651.063 149.075C651.063 176.307 669.218 194.461 696.449 194.461C723.681 194.461 741.835 176.307 741.835 149.075C741.835 121.843 723.681 103.689 696.449 103.689ZM696.449 176.307C678.295 176.307 669.218 165.933 669.218 149.075C669.218 132.217 678.295 121.843 696.449 121.843C714.604 121.843 723.681 132.217 723.681 149.075C723.681 165.933 714.604 176.307 696.449 176.307Z" fill="white"/>
<path d="M789.985 103.847H779.44V122.302H789.985C804.09 122.302 812.79 128.497 816.086 139.043H789.985V157.893H816.876C814.372 170.284 805.408 177.666 789.985 177.666H779.44V196.121H789.985C817.667 196.121 836.122 177.666 836.122 149.984C836.122 122.302 817.667 103.847 789.985 103.847ZM935.3 103.715L865.567 103.715L852.254 121.775H878.618L824.176 196.121H846.585L901.027 121.775H921.986L935.3 103.715ZM946.927 103.847L912.654 149.984H928.472L894.463 196.121H916.872L937.436 168.307H964.987V196.121H983.441V103.847H946.927ZM964.987 109.779V149.852H935.195L964.987 109.779ZM1077.01 103.847H993.966V196.121H1012.42V122.302H1058.56V196.121H1077.01V103.847ZM1132.17 103.847L1097.9 149.984H1113.72L1079.71 196.121H1102.12L1122.68 168.307H1150.23V196.121L1168.68 196.121V103.847H1132.17ZM1150.23 109.779V149.852H1120.44L1150.23 109.779Z" fill="white"/>
</svg>
