<svg width="861" height="459" viewBox="0 0 861 459" fill="none" xmlns="http://www.w3.org/2000/svg">
<rect x="1.75" y="112.75" width="84.5" height="121.5" fill="black" stroke="white" stroke-width="0.5"/>
<rect x="12" y="124" width="64" height="99" fill="white"/>
<rect x="23" y="135" width="42" height="78" fill="black"/>
<rect x="33" y="146" width="22" height="56" fill="white"/>
<rect x="99.75" y="171.75" width="84.5" height="121.5" fill="black" stroke="white" stroke-width="0.5"/>
<rect x="110" y="183" width="64" height="99" fill="white"/>
<rect x="121" y="194" width="42" height="78" fill="black"/>
<rect x="131" y="205" width="22" height="56" fill="white"/>
<rect x="197.75" y="80.75" width="84.5" height="121.5" fill="black" stroke="white" stroke-width="0.5"/>
<rect x="208" y="92" width="64" height="99" fill="white"/>
<rect x="219" y="103" width="42" height="78" fill="black"/>
<rect x="229" y="114" width="22" height="56" fill="white"/>
<rect x="352.75" y="38.75" width="84.5" height="121.5" fill="black" stroke="white" stroke-width="0.5"/>
<rect x="363" y="50" width="64" height="99" fill="white"/>
<rect x="374" y="61" width="42" height="78" fill="black"/>
<rect x="384" y="72" width="22" height="56" fill="white"/>
<rect x="352.75" y="173.75" width="84.5" height="121.5" fill="black" stroke="white" stroke-width="0.5"/>
<rect x="363" y="185" width="64" height="99" fill="white"/>
<rect x="374" y="196" width="42" height="78" fill="black"/>
<rect x="384" y="207" width="22" height="56" fill="white"/>
<rect x="352.75" y="308.75" width="84.5" height="121.5" fill="black" stroke="white" stroke-width="0.5"/>
<rect x="363" y="320" width="64" height="99" fill="white"/>
<rect x="374" y="331" width="42" height="78" fill="black"/>
<rect x="384" y="342" width="22" height="56" fill="white"/>
<rect x="524.75" y="171.75" width="84.5" height="121.5" fill="black" stroke="white" stroke-width="0.5"/>
<rect x="535" y="183" width="64" height="99" fill="white"/>
<rect x="546" y="194" width="42" height="78" fill="black"/>
<rect x="556" y="205" width="22" height="56" fill="white"/>
<rect x="622.75" y="171.75" width="84.5" height="121.5" fill="black" stroke="white" stroke-width="0.5"/>
<rect x="633" y="183" width="64" height="99" fill="white"/>
<rect x="644" y="194" width="42" height="78" fill="black"/>
<rect x="654" y="205" width="22" height="56" fill="white"/>
<rect x="720.75" y="171.75" width="84.5" height="121.5" fill="black" stroke="white" stroke-width="0.5"/>
<rect x="731" y="183" width="64" height="99" fill="white"/>
<rect x="742" y="194" width="42" height="78" fill="black"/>
<rect x="752" y="205" width="22" height="56" fill="white"/>
<line x1="2.64943" y1="10.3208" x2="781.574" y2="447.206" stroke="#E70000" stroke-width="1.00218"/>
</svg>
