<svg width="342" height="252" viewBox="0 0 342 252" fill="none" xmlns="http://www.w3.org/2000/svg">
<g clip-path="url(#clip0)">
<path d="M101.192 15.8C89.4319 15.8 81.5919 23.64 81.5919 35.4C81.5919 47.16 89.4319 55 101.192 55C112.952 55 120.792 47.16 120.792 35.4C120.792 23.64 112.952 15.8 101.192 15.8ZM101.192 47.16C93.3519 47.16 89.4319 42.68 89.4319 35.4C89.4319 28.12 93.3519 23.64 101.192 23.64C109.032 23.64 112.952 28.12 112.952 35.4C112.952 42.68 109.032 47.16 101.192 47.16ZM169.225 15.8L158.025 31.144H142.177L153.377 15.8H143.857L115.185 55H124.705L136.521 38.816H152.369L140.553 55H150.073L178.745 15.8H169.225ZM182.564 15.8L168.004 35.4H175.284L160.836 55H170.356L184.804 35.4H177.524L190.236 18.32V55H198.076V15.8H182.564ZM220.955 15.8L206.395 35.4H213.115L198.667 55H208.187L216.923 43.184H228.627V55H236.467V15.8H220.955ZM228.627 18.32V35.344H215.971L228.627 18.32ZM263.45 15.8C269.33 15.8 274.37 11.88 274.37 6.28H268.098C268.098 8.52 266.082 10.2 263.45 10.2C260.818 10.2 258.802 8.52 258.802 6.28H252.53C252.53 11.88 257.57 15.8 263.45 15.8ZM274.202 15.8L248.218 51.192V15.8H240.378V55H254.938L280.698 19.944V55H288.538V15.8H274.202ZM319.922 15.8V30.808H300.322V15.8H292.482V55H300.322V38.648H319.922V55H327.762V15.8H319.922Z" fill="white"/>
<path d="M109.506 64.744H79.8824L74.2264 72.416H85.4264L62.2984 104H71.8184L94.9464 72.416H103.85L109.506 64.744ZM143.654 64.8L131.11 81.936L118.454 64.8H108.934L123.382 84.4H129.318L114.982 104H124.502L153.174 64.8H143.654ZM171.626 75.16C171.626 69.28 167.706 64.856 162.162 64.8H153.762V104H161.602V85.52H162.162C167.706 85.464 171.626 81.04 171.626 75.16ZM162.106 78.8H161.602V71.52H162.106C163.786 71.52 164.906 73.2 164.906 75.16C164.906 77.12 163.786 78.8 162.106 78.8ZM201.861 64.8V79.808H182.261V64.8H174.421V104H182.261V87.648H201.861V104H209.701V64.8H201.861ZM247.443 64.8L221.459 100.192V64.8H213.619V104H228.179L253.939 68.944V104H261.779V64.8H247.443ZM283.587 75.16C283.587 69.28 279.667 64.856 274.123 64.8H265.723V104H273.563V85.52H274.123C279.667 85.464 283.587 81.04 283.587 75.16ZM274.067 78.8H273.563V71.52H274.067C275.747 71.52 276.867 73.2 276.867 75.16C276.867 77.12 275.747 78.8 274.067 78.8Z" fill="white"/>
<path d="M54.3973 113.912L46.9493 123.936V113.912H31.4373L16.8773 133.512H23.8773L9.42932 153.112H18.9493L33.3973 133.512H26.3973L39.1093 116.432V133.512H47.0053L32.5573 153.112H42.0773L56.5253 133.512H49.3573L62.0693 116.432V153.112H69.9093V113.912H54.3973ZM94.2199 121.64V113.8H74.6199V153H94.2199V145.16H82.4599V136.76H90.4119V128.752H82.4599V121.64H94.2199ZM116.293 113.8H96.6926V121.64H102.629V153H110.469V121.64H116.293V113.8ZM140.221 113.8L111.437 153L120.957 153L127.957 143.48H146.717V153H154.557V113.8H140.221ZM133.725 135.64L146.717 117.944V135.64H133.725ZM203.111 113.744H173.487L167.831 121.416H179.031L155.903 153H165.423L188.551 121.416H197.455L203.111 113.744ZM225.656 121.36L231.312 113.688H206.952L206.896 113.8H206.784L195.248 129.536L189.592 137.208H189.648L178.112 153H202.528L208.184 145.328H193.232L199.168 137.208H213.952L219.608 129.536H204.768L210.76 121.36H225.656ZM235.939 113.8L221.379 133.4H228.659L214.211 153H223.731L238.179 133.4H230.899L243.611 116.32V153H251.451V113.8H235.939ZM275.759 121.64V113.8L256.159 113.8V153H275.759V145.16H263.999V136.76H271.951V128.752H263.999V121.64H275.759ZM302.424 113.8C308.304 113.8 313.344 109.88 313.344 104.28H307.072C307.072 106.52 305.056 108.2 302.424 108.2C299.792 108.2 297.776 106.52 297.776 104.28H291.504C291.504 109.88 296.544 113.8 302.424 113.8ZM313.176 113.8L287.192 149.192V113.8H279.352V153H293.912L319.672 117.944V153H327.512V113.8H313.176Z" fill="white"/>
<path d="M47.3955 162.744L17.7715 162.744L12.1155 170.416H23.3155L0.1875 202H9.7075L32.8355 170.416H41.7395L47.3955 162.744ZM60.8294 162.8C49.0694 162.8 41.2294 170.64 41.2294 182.4C41.2294 194.16 49.0694 202 60.8294 202C72.5894 202 80.4294 194.16 80.4294 182.4C80.4294 170.64 72.5894 162.8 60.8294 162.8ZM60.8294 194.16C52.9894 194.16 49.0694 189.68 49.0694 182.4C49.0694 175.12 52.9894 170.64 60.8294 170.64C68.6694 170.64 72.5894 175.12 72.5894 182.4C72.5894 189.68 68.6694 194.16 60.8294 194.16ZM138.103 162.8H104.055L75.3828 202H84.9028L107.975 170.472H122.983L99.9108 202H109.431L138.103 162.8ZM152.103 162.8C140.343 162.8 132.503 170.64 132.503 182.4C132.503 194.16 140.343 202 152.103 202C163.863 202 171.703 194.16 171.703 182.4C171.703 170.64 163.863 162.8 152.103 162.8ZM152.103 194.16C144.263 194.16 140.343 189.68 140.343 182.4C140.343 175.12 144.263 170.64 152.103 170.64C159.943 170.64 163.863 175.12 163.863 182.4C163.863 189.68 159.943 194.16 152.103 194.16ZM192.94 173.16C192.94 167.28 189.02 162.856 183.476 162.8H175.076V202H182.916V183.52H183.476C189.02 183.464 192.94 179.04 192.94 173.16ZM183.42 176.8H182.916V169.52H183.42C185.1 169.52 186.22 171.2 186.22 173.16C186.22 175.12 185.1 176.8 183.42 176.8ZM214.775 162.8C203.015 162.8 195.175 170.64 195.175 182.4C195.175 194.16 203.015 202 214.775 202C226.535 202 234.375 194.16 234.375 182.4C234.375 170.64 226.535 162.8 214.775 162.8ZM214.775 194.16C206.935 194.16 203.015 189.68 203.015 182.4C203.015 175.12 206.935 170.64 214.775 170.64C222.615 170.64 226.535 175.12 226.535 182.4C226.535 189.68 222.615 194.16 214.775 194.16ZM254.38 182.4H250.628C253.708 180.72 255.612 177.304 255.612 173.16C255.612 167.28 251.692 162.856 246.148 162.8H237.748V202H268.828L254.38 182.4ZM246.092 169.52C247.772 169.52 248.892 171.2 248.892 173.16C248.892 175.12 247.772 176.8 246.092 176.8H245.588V169.52H246.092ZM245.588 195.28V183.52H245.7L254.38 195.28H245.588Z" fill="white"/>
<path d="M68.3999 211.8L42.4159 247.192V211.8H34.5759V251H49.1359L74.8959 215.944V251H82.7359V211.8H68.3999ZM153.04 211.8L141.84 227.144H125.992L137.192 211.8H127.672L99 251H108.52L120.336 234.816H136.184L124.368 251H133.888L162.56 211.8H153.04ZM176.54 211.8C164.78 211.8 156.94 219.64 156.94 231.4C156.94 243.16 164.78 251 176.54 251C188.3 251 196.14 243.16 196.14 231.4C196.14 219.64 188.3 211.8 176.54 211.8ZM176.54 243.16C168.7 243.16 164.78 238.68 164.78 231.4C164.78 224.12 168.7 219.64 176.54 219.64C184.38 219.64 188.3 224.12 188.3 231.4C188.3 238.68 184.38 243.16 176.54 243.16ZM241.511 231.4H236.695L251.143 211.8H241.623L228.631 229.44V211.8H220.791V229.44L207.799 211.8H198.279L212.727 231.4H207.911C207.911 238.96 203.711 243.16 196.151 243.16V251C207.911 251 215.751 243.16 215.751 231.4H220.791V251H228.631V231.4H233.671C233.671 243.16 241.511 251 253.271 251V243.16C245.711 243.16 241.511 238.96 241.511 231.4ZM276.207 219.64V211.8H256.607V251H276.207V243.16H264.447V234.76H272.399V226.752H264.447V219.64H276.207ZM302.648 211.8C308.528 211.8 313.568 207.88 313.568 202.28H307.296C307.296 204.52 305.28 206.2 302.648 206.2C300.016 206.2 298 204.52 298 202.28H291.728C291.728 207.88 296.768 211.8 302.648 211.8ZM313.4 211.8L287.416 247.192V211.8H279.576V251H294.136L319.896 215.944V251H327.736V211.8L313.4 211.8Z" fill="white"/>
</g>
<defs>
<clipPath id="clip0">
<rect width="342" height="252" fill="white"/>
</clipPath>
</defs>
</svg>
