<svg width="247" height="382" viewBox="0 0 247 382" fill="none" xmlns="http://www.w3.org/2000/svg">
<g clip-path="url(#clip0)">
<path d="M172.272 202.934V210.987H186.365V202.934C186.365 192.163 191.096 185.519 199.149 183.002V202.934H213.544V182.398C223.006 184.311 228.644 191.156 228.644 202.934V210.987H242.736V202.934C242.736 181.795 228.644 167.702 207.504 167.702C186.365 167.702 172.272 181.795 172.272 202.934ZM172.272 133.508V168.74H186.365V158.07H242.736V143.977H186.365V133.508H172.272ZM172.272 102.5L207.504 128.672V116.593L242.736 142.564V125.451L221.496 109.747V88.7089H242.736V74.6161H172.272V102.5ZM176.802 88.7089H207.404V111.459L176.802 88.7089ZM172.272 4.16789V67.5855H242.736V53.4927H186.365V18.2607H242.736V4.16789H172.272Z" fill="white"/>
<path d="M59.3306 244.511C58.2791 235.047 51.6833 228.451 42.2198 228.451H9.04953L9.04953 241.834H42.2198V239.922C44.9919 239.922 47.7641 241.739 47.8597 244.511H45.9478V255.695H28.2634V255.599L10.0054 268.982V295.365H59.3306V282.078H14.3071L31.8959 269.078H59.3306V244.511ZM112.901 244.606C112.327 235.621 105.827 229.503 96.6502 228.547V228.642H80.3996V228.547C71.2228 229.503 64.7226 235.621 64.1491 244.606L64.1491 279.497C64.7226 288.387 71.2228 294.505 80.3996 295.461H96.8413C105.923 294.505 112.327 288.292 112.901 279.497V244.606ZM96.8413 283.99V282.078H80.3996V283.99C77.9142 283.99 76.1936 281.887 75.7156 279.497H77.5319V244.606H75.7156C76.1936 242.121 77.9142 240.018 80.3996 240.018V242.025H96.8413V240.018C99.2311 240.113 100.952 242.216 101.334 244.606H99.5179V279.497H101.334C100.856 281.791 99.2311 283.894 96.8413 283.99ZM127.603 280.74C123.11 280.74 119.573 284.181 119.573 288.483C119.573 293.071 123.11 296.417 127.603 296.417C131.905 296.417 135.442 293.071 135.442 288.483C135.442 284.181 131.905 280.74 127.603 280.74ZM190.894 244.606C190.32 235.621 183.82 229.503 174.643 228.547V228.642H158.393V228.547C149.216 229.503 142.716 235.621 142.142 244.606V279.497C142.716 288.387 149.216 294.505 158.393 295.461H174.834C183.915 294.505 190.32 288.292 190.894 279.497V244.606ZM174.834 283.99V282.078H158.393V283.99C155.907 283.99 154.187 281.887 153.709 279.497H155.525V244.606H153.709C154.187 242.121 155.907 240.018 158.393 240.018V242.025H174.834V240.018C177.224 240.113 178.945 242.216 179.327 244.606H177.511V279.497H179.327C178.849 281.791 177.224 283.894 174.834 283.99ZM244.119 241.739V228.451H195.75V254.835L214.008 268.217V268.122H230.737V279.306H232.648C232.553 282.078 229.685 283.894 226.913 283.894V281.983H195.655V295.365H226.913C236.377 295.365 243.068 288.77 244.119 279.306V254.739H217.641L200.052 241.739H244.119Z" fill="white"/>
<path d="M59.2983 329.347C58.7247 320.361 52.2245 314.243 43.0477 313.287V313.383H26.7971V313.287C17.6204 314.243 11.1201 320.361 10.5466 329.347L10.5466 364.237C11.1201 373.127 17.6204 379.245 26.7971 380.201H43.2389C52.3201 379.245 58.7247 373.032 59.2983 364.237L59.2983 329.347ZM43.2389 368.73V366.818H26.7971V368.73C24.3118 368.73 22.5911 366.627 22.1132 364.237H23.9294L23.9294 329.347H22.1132C22.5911 326.861 24.3118 324.758 26.7971 324.758V326.766H43.2389V324.758C45.6287 324.854 47.3493 326.957 47.7317 329.347H45.9154L45.9154 364.237H47.7317C47.2537 366.532 45.6287 368.635 43.2389 368.73ZM113.384 329.251C112.333 319.787 105.737 313.192 96.2735 313.192H63.1032V326.574H96.2735V324.663C99.0456 324.663 101.818 326.479 101.913 329.251H100.002V340.435H82.3171V340.34L64.0592 353.722V380.106H113.384V366.818H68.3608L85.9496 353.818H113.384V329.251ZM127.188 365.48C122.696 365.48 119.159 368.921 119.159 373.223C119.159 377.811 122.696 381.157 127.188 381.157C131.49 381.157 135.027 377.811 135.027 373.223C135.027 368.921 131.49 365.48 127.188 365.48ZM189.523 329.347C188.949 320.361 182.449 314.243 173.272 313.287V313.383H157.022V313.287C147.845 314.243 141.345 320.361 140.771 329.347V364.237C141.345 373.127 147.845 379.245 157.022 380.201H173.464C182.545 379.245 188.949 373.032 189.523 364.237V329.347ZM173.464 368.73V366.818H157.022V368.73C154.537 368.73 152.816 366.627 152.338 364.237H154.154V329.347H152.338C152.816 326.861 154.537 324.758 157.022 324.758V326.766H173.464V324.758C175.853 324.854 177.574 326.957 177.956 329.347H176.14V364.237H177.956C177.478 366.532 175.853 368.635 173.464 368.73ZM244.852 326.574V313.192H210.439C200.975 313.192 194.284 319.883 193.328 329.442V364.142C194.284 373.605 200.975 380.297 210.534 380.297L243.991 380.106V353.722L226.211 340.722L226.307 340.435H225.829L225.733 340.34V340.435H206.711V329.442H204.799C204.799 326.574 207.571 324.663 210.439 324.663V326.574H244.852ZM222.101 353.818L239.69 366.818L210.534 367.01V368.826C207.667 368.826 204.895 366.914 204.799 364.142H206.711V353.818H222.101Z" fill="white"/>
<g clip-path="url(#clip1)">
<path d="M160.412 52.5136C157.183 23.4477 136.925 3.18957 107.859 3.18957L5.98093 3.18957L5.98093 44.2929H107.859V38.421C116.373 38.421 124.887 43.9993 125.181 52.5136H119.309V86.8643H64.9936V86.5707L8.91688 127.674L8.91688 208.706H160.412V167.897H22.1287L76.1502 127.968H160.412V52.5136Z" fill="white"/>
</g>
</g>
<defs>
<clipPath id="clip0">
<rect width="247" height="382" fill="white"/>
</clipPath>
<clipPath id="clip1">
<rect width="157" height="229" fill="white" transform="translate(10 -20)"/>
</clipPath>
</defs>
</svg>
