<svg width="237" height="270" viewBox="0 0 237 270" fill="none" xmlns="http://www.w3.org/2000/svg">
<path d="M180.94 216.864C180.352 207.652 173.688 201.38 164.28 200.4V200.498H147.62V200.4C138.212 201.38 131.548 207.652 130.96 216.864V252.634C131.548 261.748 138.212 268.02 147.62 269H164.476C173.786 268.02 180.352 261.65 180.94 252.634V216.864ZM164.476 257.24V255.28H147.62V257.24C145.072 257.24 143.308 255.084 142.818 252.634H144.68V216.864H142.818C143.308 214.316 145.072 212.16 147.62 212.16V214.218H164.476V212.16C166.926 212.258 168.69 214.414 169.082 216.864H167.22V252.634H169.082C168.592 254.986 166.926 257.142 164.476 257.24ZM236.683 214.022V200.302H201.403C191.701 200.302 184.841 207.162 183.861 216.962V252.536C184.841 262.238 191.701 269.098 201.501 269.098L235.801 268.902V241.854L217.573 228.526L217.671 228.232H217.181L217.083 228.134V228.232H197.581V216.962H195.621C195.621 214.022 198.463 212.062 201.403 212.062V214.022H236.683ZM213.359 241.952L231.391 255.28L201.501 255.476V257.338C198.561 257.338 195.719 255.378 195.621 252.536H197.581V241.952H213.359Z" fill="white"/>
<path d="M50.94 216.864C50.352 207.652 43.688 201.38 34.28 200.4V200.498H17.62V200.4C8.212 201.38 1.548 207.652 0.96 216.864V252.634C1.548 261.748 8.212 268.02 17.62 269H34.476C43.786 268.02 50.352 261.65 50.94 252.634V216.864ZM34.476 257.24V255.28H17.62V257.24C15.072 257.24 13.308 255.084 12.818 252.634H14.68V216.864H12.818C13.308 214.316 15.072 212.16 17.62 212.16V214.218H34.476V212.16C36.926 212.258 38.69 214.414 39.082 216.864H37.22V252.634H39.082C38.592 254.986 36.926 257.142 34.476 257.24ZM105.409 216.766C104.331 207.064 97.5689 200.302 87.8669 200.302H53.8609V214.022H87.8669V212.062C90.7089 212.062 93.5509 213.924 93.6489 216.766H91.6889V228.232H73.5589V228.134L54.8409 241.854V268.902H105.409V255.28H59.2509L77.2829 241.952H105.409V216.766Z" fill="white"/>
<path d="M119.263 201C114.64 201 111 204.541 111 208.968C111 213.69 114.64 217.133 119.263 217.133C123.69 217.133 127.329 213.69 127.329 208.968C127.329 204.541 123.69 201 119.263 201Z" fill="white"/>
<path d="M119.263 201C114.64 201 111 204.541 111 208.968C111 213.69 114.64 217.133 119.263 217.133C123.69 217.133 127.329 213.69 127.329 208.968C127.329 204.541 123.69 201 119.263 201Z" fill="white"/>
<path d="M119.263 179C114.64 179 111 182.541 111 186.968C111 191.69 114.64 195.133 119.263 195.133C123.69 195.133 127.329 191.69 127.329 186.968C127.329 182.541 123.69 179 119.263 179Z" fill="white"/>
<path d="M119.263 156C114.64 156 111 159.541 111 163.968C111 168.69 114.64 172.133 119.263 172.133C123.69 172.133 127.329 168.69 127.329 163.968C127.329 159.541 123.69 156 119.263 156Z" fill="white"/>
<path d="M52.508 97.766C51.43 88.064 44.668 81.302 34.966 81.302H0.96V95.022H34.966V93.062C37.808 93.062 40.65 94.924 40.748 97.766H38.788V109.232H20.658V109.134L1.94 122.854V149.902H52.508V136.28H6.35L24.382 122.952H52.508V97.766ZM105.468 97.864C104.88 88.652 98.2158 82.38 88.8078 81.4V81.498H72.1478V81.4C62.7398 82.38 56.0758 88.652 55.4878 97.864V133.634C56.0758 142.748 62.7398 149.02 72.1478 150H89.0038C98.3138 149.02 104.88 142.65 105.468 133.634V97.864ZM89.0038 138.24V136.28H72.1478V138.24C69.5998 138.24 67.8358 136.084 67.3458 133.634H69.2078V97.864H67.3458C67.8358 95.316 69.5998 93.16 72.1478 93.16V95.218H89.0038V93.16C91.4538 93.258 93.2178 95.414 93.6098 97.864H91.7478V133.634H93.6098C93.1198 135.986 91.4538 138.142 89.0038 138.24ZM118.581 134.908C113.975 134.908 110.349 138.436 110.349 142.846C110.349 147.55 113.975 150.98 118.581 150.98C122.991 150.98 126.617 147.55 126.617 142.846C126.617 138.436 122.991 134.908 118.581 134.908ZM181.506 97.864C180.918 88.652 174.254 82.38 164.846 81.4V81.498H148.186V81.4C138.778 82.38 132.114 88.652 131.526 97.864V133.634C132.114 142.748 138.778 149.02 148.186 150H165.042C174.352 149.02 180.918 142.65 181.506 133.634V97.864ZM165.042 138.24V136.28H148.186V138.24C145.638 138.24 143.874 136.084 143.384 133.634H145.246V97.864H143.384C143.874 95.316 145.638 93.16 148.186 93.16V95.218H165.042V93.16C167.492 93.258 169.256 95.414 169.648 97.864H167.786V133.634H169.648C169.158 135.986 167.492 138.142 165.042 138.24ZM234.113 94.924V81.302H184.525V108.35L203.243 122.07V121.972H220.393V133.438H222.353C222.255 136.28 219.315 138.142 216.473 138.142V136.182H184.427V149.902H216.473C226.175 149.902 233.035 143.14 234.113 133.438V108.252H206.967L188.935 94.924H234.113Z" fill="white"/>
<path d="M52.508 16.766C51.43 7.064 44.668 0.301997 34.966 0.301997H0.96V14.022H34.966V12.062C37.808 12.062 40.65 13.924 40.748 16.766H38.788V28.232H20.658V28.134L1.94 41.854V68.902H52.508V55.28H6.35L24.382 41.952H52.508V16.766ZM84.5478 16.5H78.5478V27H84.5478C92.5728 27 97.5228 30.525 99.3978 36.525H84.5478V47.25H99.8478C98.4228 54.3 93.3228 58.5 84.5478 58.5H78.5478V69H84.5478C100.298 69 110.798 58.5 110.798 42.75C110.798 27 100.298 16.5 84.5478 16.5ZM136.274 16.5H110.024V27H117.974V69H128.474V27H136.274V16.5ZM159.377 16.5L139.877 42.75H148.877L129.527 69H142.277L153.977 53.175H169.652V69H180.152V16.5H159.377ZM169.652 19.875V42.675H152.702L169.652 19.875ZM232.641 16.5H185.391V69H195.891V27H222.141V69H232.641V16.5Z" fill="white"/>
</svg>
