<svg width="237" height="228" viewBox="0 0 237 228" fill="none" xmlns="http://www.w3.org/2000/svg">
<path d="M180.94 174.864C180.352 165.652 173.688 159.38 164.28 158.4V158.498H147.62V158.4C138.212 159.38 131.548 165.652 130.96 174.864V210.634C131.548 219.748 138.212 226.02 147.62 227H164.476C173.786 226.02 180.352 219.65 180.94 210.634V174.864ZM164.476 215.24V213.28H147.62V215.24C145.072 215.24 143.308 213.084 142.818 210.634H144.68V174.864H142.818C143.308 172.316 145.072 170.16 147.62 170.16V172.218H164.476V170.16C166.926 170.258 168.69 172.414 169.082 174.864H167.22V210.634H169.082C168.592 212.986 166.926 215.142 164.476 215.24ZM236.683 172.022V158.302H201.403C191.701 158.302 184.841 165.162 183.861 174.962V210.536C184.841 220.238 191.701 227.098 201.501 227.098L235.801 226.902V199.854L217.573 186.526L217.671 186.232H217.181L217.083 186.134V186.232H197.581V174.962H195.621C195.621 172.022 198.463 170.062 201.403 170.062V172.022H236.683ZM213.359 199.952L231.391 213.28L201.501 213.476V215.338C198.561 215.338 195.719 213.378 195.621 210.536H197.581V199.952H213.359Z" fill="white"/>
<path d="M50.94 174.864C50.352 165.652 43.688 159.38 34.28 158.4V158.498H17.62V158.4C8.212 159.38 1.548 165.652 0.96 174.864V210.634C1.548 219.748 8.212 226.02 17.62 227H34.476C43.786 226.02 50.352 219.65 50.94 210.634V174.864ZM34.476 215.24V213.28H17.62V215.24C15.072 215.24 13.308 213.084 12.818 210.634H14.68V174.864H12.818C13.308 172.316 15.072 170.16 17.62 170.16V172.218H34.476V170.16C36.926 170.258 38.69 172.414 39.082 174.864H37.22V210.634H39.082C38.592 212.986 36.926 215.142 34.476 215.24ZM105.409 174.766C104.331 165.064 97.5689 158.302 87.8669 158.302H53.8609V172.022H87.8669V170.062C90.7089 170.062 93.5509 171.924 93.6489 174.766H91.6889V186.232H73.5589V186.134L54.8409 199.854V226.902H105.409V213.28H59.2509L77.2829 199.952H105.409V174.766Z" fill="white"/>
<path d="M119.263 159C114.64 159 111 162.541 111 166.968C111 171.69 114.64 175.133 119.263 175.133C123.69 175.133 127.329 171.69 127.329 166.968C127.329 162.541 123.69 159 119.263 159Z" fill="white"/>
<path d="M119.263 159C114.64 159 111 162.541 111 166.968C111 171.69 114.64 175.133 119.263 175.133C123.69 175.133 127.329 171.69 127.329 166.968C127.329 162.541 123.69 159 119.263 159Z" fill="white"/>
<path d="M119.263 137C114.64 137 111 140.541 111 144.968C111 149.69 114.64 153.133 119.263 153.133C123.69 153.133 127.329 149.69 127.329 144.968C127.329 140.541 123.69 137 119.263 137Z" fill="white"/>
<path d="M119.263 114C114.64 114 111 117.541 111 121.968C111 126.69 114.64 130.133 119.263 130.133C123.69 130.133 127.329 126.69 127.329 121.968C127.329 117.541 123.69 114 119.263 114Z" fill="white"/>
<path d="M52.508 55.766C51.43 46.064 44.668 39.302 34.966 39.302H0.96V53.022H34.966V51.062C37.808 51.062 40.65 52.924 40.748 55.766H38.788V67.232H20.658V67.134L1.94 80.854V107.902H52.508V94.28H6.35L24.382 80.952H52.508V55.766ZM105.468 55.864C104.88 46.652 98.2158 40.38 88.8078 39.4V39.498H72.1478V39.4C62.7398 40.38 56.0758 46.652 55.4878 55.864V91.634C56.0758 100.748 62.7398 107.02 72.1478 108H89.0038C98.3138 107.02 104.88 100.65 105.468 91.634V55.864ZM89.0038 96.24V94.28H72.1478V96.24C69.5998 96.24 67.8358 94.084 67.3458 91.634H69.2078V55.864H67.3458C67.8358 53.316 69.5998 51.16 72.1478 51.16V53.218H89.0038V51.16C91.4538 51.258 93.2178 53.414 93.6098 55.864H91.7478V91.634H93.6098C93.1198 93.986 91.4538 96.142 89.0038 96.24ZM118.581 92.908C113.975 92.908 110.349 96.436 110.349 100.846C110.349 105.55 113.975 108.98 118.581 108.98C122.991 108.98 126.617 105.55 126.617 100.846C126.617 96.436 122.991 92.908 118.581 92.908ZM181.506 55.864C180.918 46.652 174.254 40.38 164.846 39.4V39.498H148.186V39.4C138.778 40.38 132.114 46.652 131.526 55.864V91.634C132.114 100.748 138.778 107.02 148.186 108H165.042C174.352 107.02 180.918 100.65 181.506 91.634V55.864ZM165.042 96.24V94.28H148.186V96.24C145.638 96.24 143.874 94.084 143.384 91.634H145.246V55.864H143.384C143.874 53.316 145.638 51.16 148.186 51.16V53.218H165.042V51.16C167.492 51.258 169.256 53.414 169.648 55.864H167.786V91.634H169.648C169.158 93.986 167.492 96.142 165.042 96.24ZM234.113 52.924V39.302H184.525V66.35L203.243 80.07V79.972H220.393V91.438H222.353C222.255 94.28 219.315 96.142 216.473 96.142V94.182H184.427V107.902H216.473C226.175 107.902 233.035 101.14 234.113 91.438V66.252H206.967L188.935 52.924H234.113Z" fill="white"/>
<path d="M0.92 27H9.24C15.128 27 19.832 26.136 19.832 21.016C19.832 16.216 16.184 15.896 12.76 15.768V14.488C15.16 14.296 18.168 14.2 18.168 9.976C18.168 5.528 15.128 4.44 8.856 4.44H0.92V27ZM6.04 13.016V8.92H9.496C11.576 8.92 13.048 8.92 13.048 10.968C13.048 13.016 11.576 13.016 9.496 13.016H6.04ZM6.04 22.52V17.496H9.88C12.92 17.496 14.712 17.496 14.712 20.024C14.712 22.52 12.92 22.52 9.88 22.52H6.04ZM37.4513 10.84H20.1713V15.32H26.2513V27H31.3713V15.32H37.4513V10.84ZM37.4525 18.904C37.4525 24.568 41.4845 27.32 46.5725 27.32C51.6285 27.32 55.6605 24.568 55.6605 18.904C55.6605 13.272 51.6285 10.52 46.5725 10.52C41.4845 10.52 37.4525 13.272 37.4525 18.904ZM42.5725 18.904C42.5725 16.216 44.1405 15 46.5725 15C48.9725 15 50.5405 16.216 50.5405 18.904C50.5405 21.624 48.9725 22.84 46.5725 22.84C44.1405 22.84 42.5725 21.624 42.5725 18.904ZM57.585 10.84V33.08H62.705V26.008L61.745 23.128H63.025C63.857 25.272 65.393 27.32 69.393 27.32C74.065 27.32 76.401 23.512 76.401 18.936C76.401 14.36 74.065 10.52 69.393 10.52C65.393 10.52 63.857 12.568 63.025 14.712H61.745L62.705 11.832V10.84H57.585ZM62.705 18.936C62.705 16.184 64.241 15 66.993 15C69.745 15 71.281 16.184 71.281 18.936C71.281 21.688 69.745 22.84 66.993 22.84C64.241 22.84 62.705 21.688 62.705 18.936ZM78.6563 18.904C78.6563 24.568 82.6883 27.32 87.7763 27.32C92.8323 27.32 96.8643 24.568 96.8643 18.904C96.8643 13.272 92.8323 10.52 87.7763 10.52C82.6883 10.52 78.6563 13.272 78.6563 18.904ZM83.7763 18.904C83.7763 16.216 85.3443 15 87.7763 15C90.1763 15 91.7443 16.216 91.7443 18.904C91.7443 21.624 90.1763 22.84 87.7763 22.84C85.3443 22.84 83.7763 21.624 83.7763 18.904ZM114.277 2.872H110.437C110.437 5.112 109.669 5.72 108.421 5.72C107.173 5.72 106.405 5.112 106.405 2.872H102.565C102.565 6.136 104.101 9.24 108.421 9.24C112.741 9.24 114.277 6.136 114.277 2.872ZM117.733 27V10.84H107.717L104.229 25.72H102.949L103.909 22.84V10.84H98.7888V27H108.805L112.293 12.12H113.573L112.613 14.84V27H117.733ZM137.306 10.52C132.89 10.52 128.858 12.92 128.634 17.528H133.754C133.946 16.088 135.258 15 137.306 15C139.162 15 140.346 15.832 140.794 17.304H135.994V20.504H140.794C140.346 22.008 139.162 22.84 137.306 22.84C135.258 22.84 133.946 21.752 133.754 20.312H128.634C128.858 24.92 132.89 27.32 137.306 27.32C142.458 27.32 146.138 24.312 146.138 18.904C146.138 13.528 142.458 10.52 137.306 10.52ZM164.062 10.84H146.782V15.32H152.862V27H157.982V15.32H164.062V10.84ZM165.009 22.584C165.009 24.248 165.873 27.32 170.897 27.32C175.409 27.32 176.977 25.048 177.585 22.36H178.865L178.065 24.28V24.6C178.065 26.136 178.929 27 180.465 27H184.017V22.52H181.681V17.976C181.681 12.664 177.777 10.52 173.329 10.52C168.817 10.52 165.329 12.92 165.329 17.016H170.129C170.129 15.544 171.281 14.68 173.329 14.68C175.537 14.68 176.561 15.48 176.561 16.792L171.473 17.496C166.673 18.168 165.009 19.8 165.009 22.584ZM170.129 21.624C170.129 20.696 170.897 20.472 172.433 20.248L176.561 19.672C176.561 21.656 174.705 22.84 171.889 22.84C171.025 22.84 170.129 22.552 170.129 21.624ZM202.378 10.84H185.93V27H191.05V15.32H197.258V27H202.378V10.84Z" fill="white"/>
</svg>
