<svg width="375" height="37" viewBox="0 0 375 37" fill="none" xmlns="http://www.w3.org/2000/svg">
<g clip-path="url(#clip0)">
<path d="M157.652 12.8922C157.216 8.97124 154.484 6.23846 150.563 6.23846L136.819 6.23846V11.7832H150.563V10.9911C151.711 10.9911 152.86 11.7436 152.899 12.8922H152.107V17.526H144.78V17.4864L137.216 23.0312V33.9623H157.652V28.4572H138.998L146.285 23.0708H157.652V12.8922ZM179.847 12.9318C179.61 9.20888 176.916 6.67412 173.114 6.27806V6.31767H166.381V6.27806C162.579 6.67412 159.886 9.20888 159.648 12.9318V27.3878C159.886 31.0711 162.579 33.6059 166.381 34.002H173.193C176.956 33.6059 179.61 31.0315 179.847 27.3878V12.9318ZM173.193 29.2493V28.4572L166.381 28.4572V29.2493C165.352 29.2493 164.639 28.378 164.441 27.3878H165.193V12.9318H164.441C164.639 11.9021 165.352 11.0307 166.381 11.0307V11.8624H173.193V11.0307C174.184 11.0703 174.896 11.9417 175.055 12.9318H174.302V27.3878H175.055C174.857 28.3384 174.184 29.2097 173.193 29.2493ZM185.939 27.9027C184.077 27.9027 182.612 29.3285 182.612 31.1107C182.612 33.0118 184.077 34.398 185.939 34.398C187.721 34.398 189.186 33.0118 189.186 31.1107C189.186 29.3285 187.721 27.9027 185.939 27.9027ZM212.161 12.9318C211.924 9.20888 209.23 6.67412 205.428 6.27806V6.31767H198.695V6.27806C194.893 6.67412 192.2 9.20888 191.962 12.9318V27.3878C192.2 31.0711 194.893 33.6059 198.695 34.002L205.508 34.002C209.27 33.6059 211.924 31.0315 212.161 27.3878V12.9318ZM205.508 29.2493V28.4572H198.695V29.2493C197.666 29.2493 196.953 28.378 196.755 27.3878H197.507V12.9318H196.755C196.953 11.9021 197.666 11.0307 198.695 11.0307V11.8624H205.508V11.0307C206.498 11.0703 207.211 11.9417 207.369 12.9318H206.617V27.3878H207.369C207.171 28.3384 206.498 29.2097 205.508 29.2493ZM234.214 11.7436V6.23846L214.173 6.23846V17.1696L221.738 22.7144V22.6748H228.669V27.3086H229.461C229.422 28.4572 228.233 29.2097 227.085 29.2097V28.4176H214.134V33.9623H227.085C231.006 33.9623 233.778 31.2296 234.214 27.3086V17.13L223.243 17.13L215.956 11.7436L234.214 11.7436Z" fill="white"/>
<path d="M284.295 12.9318C284.057 9.20888 281.364 6.67412 277.562 6.27806V6.31767L270.829 6.31767V6.27806C267.027 6.67412 264.333 9.20888 264.096 12.9318V27.3878C264.333 31.0711 267.027 33.6059 270.829 34.002H277.641C281.403 33.6059 284.057 31.0315 284.295 27.3878V12.9318ZM277.641 29.2493V28.4572H270.829V29.2493C269.799 29.2493 269.086 28.378 268.888 27.3878H269.641V12.9318H268.888C269.086 11.9021 269.799 11.0307 270.829 11.0307V11.8624H277.641V11.0307C278.631 11.0703 279.344 11.9417 279.502 12.9318L278.75 12.9318V27.3878H279.502C279.304 28.3384 278.631 29.2097 277.641 29.2493ZM306.704 12.8922C306.268 8.97124 303.535 6.23846 299.614 6.23846L285.871 6.23846V11.7832H299.614V10.9911C300.763 10.9911 301.911 11.7436 301.951 12.8922H301.159V17.526L293.832 17.526V17.4864L286.267 23.0312V33.9623H306.704V28.4572L288.049 28.4572L295.337 23.0708H306.704V12.8922ZM312.423 27.9027C310.561 27.9027 309.096 29.3285 309.096 31.1107C309.096 33.0118 310.561 34.398 312.423 34.398C314.205 34.398 315.671 33.0118 315.671 31.1107C315.671 29.3285 314.205 27.9027 312.423 27.9027ZM338.249 12.9318C338.012 9.20888 335.319 6.67412 331.517 6.27806V6.31767H324.784V6.27806C320.981 6.67412 318.288 9.20888 318.051 12.9318V27.3878C318.288 31.0711 320.981 33.6059 324.784 34.002L331.596 34.002C335.358 33.6059 338.012 31.0315 338.249 27.3878V12.9318ZM331.596 29.2493V28.4572H324.784V29.2493C323.754 29.2493 323.041 28.378 322.843 27.3878H323.595V12.9318H322.843C323.041 11.9021 323.754 11.0307 324.784 11.0307V11.8624H331.596V11.0307C332.586 11.0703 333.299 11.9417 333.457 12.9318H332.705V27.3878H333.457C333.259 28.3384 332.586 29.2097 331.596 29.2493ZM361.173 11.7832V6.23846L346.915 6.23846C342.994 6.23846 340.222 9.01085 339.826 12.9714V27.3482C340.222 31.2692 342.994 34.0416 346.955 34.0416L360.817 33.9623V23.0312L353.45 17.6449L353.49 17.526H353.292L353.252 17.4864V17.526H345.371V12.9714H344.579C344.579 11.7832 345.727 10.9911 346.915 10.9911V11.7832H361.173ZM351.747 23.0708L359.035 28.4572L346.955 28.5364V29.2889C345.767 29.2889 344.618 28.4968 344.579 27.3482H345.371V23.0708H351.747Z" fill="white"/>
<path d="M43.4469 6.40892H40.2784V11.9537H43.4469C47.6847 11.9537 50.2986 13.8152 51.2888 16.9836H43.4469V22.6472H51.5264C50.7739 26.3701 48.0807 28.588 43.4469 28.588H40.2784V34.1328H43.4469C51.764 34.1328 57.3088 28.588 57.3088 20.2709C57.3088 11.9537 51.764 6.40892 43.4469 6.40892ZM70.7623 6.40892H56.9004V11.9537H61.0986V34.1328H66.6434V11.9537H70.7623V6.40892ZM82.9624 6.40892L72.665 20.2709H77.4176L67.1994 34.1328H73.9323L80.1108 25.776H88.3884V34.1328H93.9331V6.40892H82.9624ZM88.3884 8.19117V20.2313H79.4375L88.3884 8.19117ZM121.651 6.40892H96.6993V34.1328H102.244V11.9537H116.106V34.1328H121.651V6.40892Z" fill="white"/>
<g clip-path="url(#clip1)">
<path d="M32.8931 13.5719C32.4574 9.65093 29.7246 6.91815 25.8037 6.91815H12.0606V12.4629H25.8037V11.6708C26.9523 11.6708 28.1008 12.4233 28.1404 13.5719H27.3483V18.2057H20.0213V18.1661L12.4566 23.7109V34.642H32.8931V29.1369H14.2389L21.5263 23.7505H32.8931V13.5719Z" fill="white"/>
</g>
<rect x="238.761" y="19.9883" width="20.7321" height="2.96173" fill="white"/>
</g>
<defs>
<clipPath id="clip0">
<rect width="375" height="37" fill="white"/>
</clipPath>
<clipPath id="clip1">
<rect width="65.0297" height="94.8523" fill="white" transform="translate(-7.85742 -28.3184)"/>
</clipPath>
</defs>
</svg>
